<svg viewBox="0 0 308 106" fill="none" xmlns="http://www.w3.org/2000/svg">
			<g clip-path="url(#clip0_6_2)">
			<mask id="mask0_6_2" style="mask-type:luminance" maskUnits="userSpaceOnUse" x="0" y="0" width="308" height="106">
			<path d="M307.44 0H0V105.09H307.44V0Z" fill="white"></path>
			</mask>
			<g mask="url(#mask0_6_2)">
			<mask id="mask1_6_2" style="mask-type:luminance" maskUnits="userSpaceOnUse" x="0" y="0" width="308" height="106">
			<path d="M307.44 0H0V105.09H307.44V0Z" fill="white"></path>
			</mask>
			<g mask="url(#mask1_6_2)">
			<path d="M12.38 0C5.55 0 0 5.55 0 12.37C0 19.19 5.55 24.74 12.38 24.74C19.21 24.74 24.75 19.19 24.75 12.37C24.75 5.55 19.2 0 12.38 0ZM12.38 17.51C9.54 17.51 7.24 15.2 7.24 12.37C7.24 9.54 9.54 7.24 12.38 7.24C15.22 7.24 17.51 9.55 17.51 12.37C17.51 15.19 15.2 17.51 12.38 17.51Z" fill="black"></path>
			<path d="M64.19 29.27C66.38 29.21 66.89 29.21 68.93 29.2L79.58 29.16C103.3 29.49 110.95 4.87001 111.61 3.14001C95.38 4.75001 69.43 3.93001 69.43 3.93001C42.55 3.38001 19.63 25.41 19.08 52.29V53.46C21.24 50.2 35.47 29.31 64.19 29.27Z" fill="black"></path>
			<path d="M78.28 76.94C75.37 78.23 72.17 78.88 68.89 78.88C55.88 78.88 45.3 68.29 45.3 55.28C45.3 47.05 49.54 39.07 57.66 34.32C60.65 32.76 63.34 31.76 65.94 31.09C35.37 32.05 21.69 50.83 19.1 54.81C19.55 81.92 41.71 105.1 68.9 105.1C83.82 105.1 97.82 98.5 107.32 86.99C107.32 86.99 94.88 69.6 78.28 76.95" fill="black"></path>
			<path d="M305.46 67.61C305.75 67.48 305.92 67.25 305.91 66.97C305.91 66.71 305.81 66.5 305.61 66.37C305.45 66.25 305.23 66.16 304.74 66.16H304.69C304.29 66.16 303.97 66.2 303.74 66.24H303.69C303.69 66.24 303.64 66.28 303.64 66.31L303.66 68.89C303.66 68.89 303.69 68.95 303.73 68.95H304.32C304.32 68.95 304.38 68.92 304.38 68.88V67.92H304.6C304.89 67.92 305.03 68.02 305.07 68.26L305.1 68.39C305.16 68.66 305.21 68.82 305.29 68.92C305.29 68.92 305.31 68.94 305.34 68.94H305.97C305.97 68.94 306.01 68.92 306.02 68.91C306.02 68.89 306.03 68.87 306.02 68.85C305.97 68.75 305.91 68.61 305.83 68.23C305.75 67.9 305.63 67.71 305.44 67.61M305.16 67.06C305.16 67.13 305.14 67.19 305.09 67.24C305 67.33 304.83 67.37 304.62 67.38H304.4V66.75C304.4 66.75 304.54 66.73 304.66 66.73C304.99 66.73 305.15 66.85 305.16 67.06Z" fill="black"></path>
			<path d="M304.74 64.9H304.71C303.19 64.92 302 66.09 302.02 67.57C302.02 68.28 302.3 68.94 302.8 69.43C303.32 69.93 303.99 70.2 304.73 70.2H304.75C305.49 70.2 306.18 69.91 306.68 69.4C307.17 68.9 307.43 68.23 307.43 67.52C307.41 66.04 306.23 64.89 304.73 64.89M306.65 67.55C306.65 68.1 306.44 68.64 306.07 69.01C305.72 69.36 305.27 69.55 304.78 69.55H304.75C304.21 69.55 303.73 69.35 303.36 68.98C303 68.61 302.79 68.11 302.79 67.57C302.79 67.03 302.98 66.53 303.33 66.15C303.69 65.76 304.18 65.56 304.7 65.55H304.73C305.25 65.55 305.74 65.75 306.1 66.13C306.46 66.5 306.66 67.01 306.66 67.56" fill="black"></path>
			<path d="M125.29 71.58C121.34 71.58 118.11 70.12 115.58 67.52C111.95 63.77 112.04 59.13 112.04 52.73C112.04 46.33 111.95 41.69 115.58 37.94C118.11 35.33 121.34 33.87 125.29 33.87C132.01 33.87 137.27 37.83 138.54 45.58H131.41C130.7 42.61 128.88 40.32 125.34 40.32C123.42 40.32 121.84 41.05 120.84 42.25C119.48 43.81 119.07 45.58 119.07 52.72C119.07 59.86 119.47 61.62 120.84 63.19C121.85 64.39 123.42 65.11 125.34 65.11C128.88 65.11 130.7 62.83 131.41 59.86H138.54C137.28 67.62 131.97 71.57 125.29 71.57" fill="black"></path>
			<path d="M143.34 70.55V34.55H167.04V40.82H150.36V49.26H164.57V55.54H150.36V64.28H167.04V70.55H143.34Z" fill="black"></path>
			<path d="M173.92 70.55V34.55H180.95V64.28H197.28V70.55H173.92Z" fill="black"></path>
			<path d="M212.89 70.86C207.43 70.86 203.29 69.7 199.75 66.11L204.3 61.56C206.58 63.83 209.67 64.6 213 64.6C217.15 64.6 219.38 63.03 219.38 60.15C219.38 58.89 219.02 57.83 218.26 57.12C217.55 56.46 216.75 56.11 215.08 55.85L210.73 55.25C207.64 54.79 205.37 53.83 203.75 52.26C202.03 50.54 201.17 48.21 201.17 45.18C201.17 38.76 205.92 34.26 213.71 34.26C218.66 34.26 222.26 35.48 225.34 38.46L220.89 42.86C218.62 40.69 215.89 40.38 213.51 40.38C209.77 40.38 207.95 42.45 207.95 44.94C207.95 45.84 208.25 46.8 209.01 47.51C209.72 48.17 210.88 48.72 212.34 48.93L216.59 49.53C219.87 49.99 221.94 50.89 223.46 52.31C225.38 54.13 226.25 56.76 226.25 59.95C226.25 66.93 220.44 70.87 212.9 70.87" fill="black"></path>
			<path d="M238.63 34.55H231.6V70.55H238.63V34.55Z" fill="black"></path>
			<path d="M258.96 70.86C251.58 70.86 245.71 65.85 245.71 58.22V34.56H252.73V57.97C252.73 62.11 255.16 64.6 258.95 64.6C262.74 64.6 265.22 62.12 265.22 57.97V34.56H272.2V58.22C272.2 65.86 266.34 70.86 258.96 70.86Z" fill="black"></path>
			<path d="M288.68 70.86C283.22 70.86 279.08 69.7 275.54 66.11L280.09 61.56C282.36 63.83 285.44 64.6 288.79 64.6C292.93 64.6 295.16 63.03 295.16 60.15C295.16 58.89 294.81 57.83 294.04 57.12C293.34 56.46 292.52 56.11 290.86 55.85L286.5 55.25C283.43 54.79 281.15 53.83 279.53 52.26C277.81 50.54 276.95 48.21 276.95 45.18C276.95 38.76 281.7 34.26 289.49 34.26C294.44 34.26 298.03 35.48 301.11 38.46L296.66 42.86C294.38 40.69 291.65 40.38 289.28 40.38C285.53 40.38 283.71 42.45 283.71 44.94C283.71 45.84 284.02 46.8 284.78 47.51C285.49 48.17 286.65 48.72 288.11 48.93L292.36 49.53C295.65 49.99 297.72 50.89 299.23 52.31C301.15 54.13 302.01 56.76 302.01 59.95C302.01 66.93 296.19 70.87 288.66 70.87" fill="black"></path>
			<path d="M231.62 90.4V78.1H234.02V88.26H239.6V90.4H231.62Z" fill="black"></path>
			<path d="M244.81 78.1H242.41V90.4H244.81V78.1Z" fill="black"></path>
			<path d="M253.01 90.4H251.21L247.15 78.1H249.64L252.11 86.12L254.58 78.1H257.08L253.01 90.4Z" fill="black"></path>
			<path d="M259.43 90.4V78.1H267.53V80.24H261.83V83.13H266.68V85.27H261.83V88.26H267.53V90.4H259.43Z" fill="black"></path>
			<path d="M278 80.24V83.27H282.86V85.41H278V90.4H275.6V78.1H283.7V80.24H278Z" fill="black"></path>
			<path d="M289.05 78.1H286.65V90.4H289.05V78.1Z" fill="black"></path>
			<path d="M297.48 80.24V90.4H295.08V80.24H291.86V78.1H300.69V80.24H297.48Z" fill="black"></path>
			</g>
			</g>
			</g>
			<defs>
			<clipPath id="clip0_6_2">
			<rect width="307.44" height="105.09" fill="white"></rect>
			</clipPath>
			</defs>
			</svg>
