<?xml version="1.0" encoding="UTF-8"?><svg id="a" xmlns="http://www.w3.org/2000/svg" width="300.94289" height="139.99749" viewBox="0 0 300.94289 139.99749"><defs><style>.d{fill:#e31937;}</style></defs><path class="d" d="M74.7988,26.9995c-27.3994,0-44.1992,21.3994-44.1992,42.999,0,26,21.1997,42.999,44.3994,42.999,15.3994,0,29.9995-6.7988,42.3994-17.7988v32.1992c-13,7.7998-30.7998,12.5996-44.5996,12.5996C33.1997,139.99749,0,107.79829,0,69.9985,0,29.9995,33.3994,0,72.999,0c15.1997,0,32.9995,4.5996,44.5991,10.3999v31.5991c-14.5996-9.5996-29.3994-14.9995-42.7993-14.9995Z"/><path class="d" d="M201.57959,139.99749c-39.7988,0-73.398-31-73.398-69.999C128.18159,30.5996,161.58149,0,203.38039,0c15.1992,0,34,4,45.5996,9.3999v31.39939c-13.1992-7.6001-30.1992-13.7998-45-13.7998-27.3985,0-45.1992,21.3994-45.1992,42.999,0,25.3994,21,43.7998,45.5996,43.7998,5.1992,0,10.1992-.4004,16.5996-2.8008v-25.1992h-22.3985v-26.5996h51.1993v70.7988c-14.60159,6.6006-31,10-48.2012,10Z"/><path class="d" d="M272.14399,137.19769V2.7998h28.7989v134.39789h-28.7989Z"/></svg>