<?xml version="1.0" encoding="UTF-8"?> <svg xmlns="http://www.w3.org/2000/svg" viewBox="0 0 1152.36 402.73"><g id="Layer_2" data-name="Layer 2"><g id="Layer_2-2" data-name="Layer 2"><polygon points="179.59 0 0 191.39 0 0 179.59 0" style="fill:#4590ce"></polygon><polygon points="60.22 222.13 197.14 402.73 0 402.73 0 287.02 60.22 222.13" style="fill:#4590ce"></polygon><polygon points="363.72 0 150.4 224.29 111.57 170.78 268.39 0 363.72 0" style="fill:#4590ce"></polygon><polygon points="244.48 222.13 381.4 402.73 279.83 402.73 190.43 279.53 244.48 222.13" style="fill:#4590ce"></polygon><polygon points="441.98 11.63 441.98 372.23 295.83 170.78 441.98 11.63" style="fill:#4590ce"></polygon><path d="M578.74,169.66H563.82l-24.55-32.1-11.52,5.1v-10C543.62,126,568,111.87,568,94.31c0-11.33-7.74-18.88-18.32-18.88-15.67,0-37.39,18.69-38,38.14v56.09H498.86V19.72H511.7V92.05c10.58-16.43,24.93-26.25,41.55-26.25,16,0,26.06,11.89,26.06,26.43,0,14.36-11.14,27.58-29.27,39.66Z" style="fill:#4590ce"></path><path d="M613.49,134.16c0,19.45,4.53,30.21,21.15,30.21,16.81,0,35.32-12.65,35.32-33.23V71.84h12.27v97.82H670.9L670,149.27c-5.86,15.1-19.64,23.6-38.34,23.6-16.81,0-31-10.2-31-40.41V71.84h12.84Z" style="fill:#4590ce"></path><path d="M713.39,169.66V19.72h12.46V169.66Z" style="fill:#4590ce"></path><path d="M771.36,172.68c0,29.84-16.62,35.88-24.74,37.4.19-3.59.19-6.05.19-8.5a35.47,35.47,0,0,0,11.71-27V71.84h12.84Zm0-137.29H755.5v-16h15.86Z" style="fill:#4590ce"></path><path d="M869.56,149.64c5.85,4.54,7,5.67,8.31,6.61-11.52,13.6-25.12,16.43-37.2,16.43-33.62,0-43.82-19.26-44.38-49.66,0-33.81,13.59-53.83,44.38-53.83,25.68,0,38.9,16.25,38.71,50.8l-70.63-.18c0,26.43,1.89,45.13,31.92,45.13A35.13,35.13,0,0,0,869.56,149.64Zm-1.32-37.77A48.68,48.68,0,0,0,862,88.27c-4.35-6.8-10.77-10.39-21.34-10.39-21.91,0-30.41,16.62-30.41,34.18Z" style="fill:#4590ce"></path><path d="M910.16,71.84c1.32-9.07,2.46-19.64,3.78-28.9h8.5v28.9h25.3V80h-25.3v63.45c0,16.81,1.51,19.26,11.14,19.26a33,33,0,0,0,13.78-3v9.45c-8.87,2.07-14.16,2.83-18.5,2.83-11.9,0-18.51-3.78-18.51-21.91V80H891.09V71.84Z" style="fill:#4590ce"></path><path d="M980.6,134.16c0,19.45,4.53,30.21,21.15,30.21,16.81,0,35.31-12.65,35.31-33.23V71.84h12.28v97.82H1038l-1-20.39c-5.85,15.1-19.64,23.6-38.33,23.6-16.81,0-31-10.2-31-40.41V71.84H980.6Z" style="fill:#4590ce"></path><path d="M1143.76,78.83c0,2.83.19,6.61.19,9.06-12.27-5.29-23.61-10-36.45-10-10,0-20.39,2.27-20.39,16.81,0,12.09,7,14.54,22.09,18.51,26.63,6.61,39.66,15.1,39.66,30.4,0,18.13-15.67,28.89-38.71,28.89-19.64,0-34-7.74-38.72-11,0-4.34.19-7.93.19-12.27,11.52,6.79,24.36,13.78,38.53,13.78,13.4,0,25.49-3.77,25.49-19.45,0-12.84-16.24-17.18-35.12-22.28-20.78-6-26.82-14-26.82-27,0-9.06,5.66-24.36,33.8-24.36C1124.69,70,1136.77,75.8,1143.76,78.83Z" style="fill:#4590ce"></path><path d="M498.86,229.63h27.29v50.2l46.18-50.2h33.76l-48.63,54.05q6.3,8.74,23.26,32.62t25.37,35.6H574.25l-35.86-48.28-12.24,13.64V351.9H498.86Z" style="fill:#4590ce"></path><path d="M612.9,355.4H572.49l-34.35-46.26-8.49,9.46v36.8H495.36V226.13h34.29v44.72l41.14-44.72h43.15l-52,57.79c4.53,6.32,11.79,16.51,21.63,30.35,11.47,16.15,19.76,27.79,25.35,35.59Zm-36.89-7h23.27C594,340.94,586.9,331,577.87,318.33c-11.12-15.66-19-26.63-23.25-32.61L553,283.43l45.26-50.3H573.86L522.65,288.8V233.13H502.36V348.4h20.29V315.92l16-17.83Z" style="fill:#4590ce"></path><path d="M727,335q-18.54,18.11-45.66,18.1T635.65,335q-18.54-18.11-18.54-45t18.54-45q18.54-18.1,45.65-18.1T727,244.93Q745.5,263,745.5,290T727,335Zm-9.27-45q0-16.35-10.5-27.9a34.61,34.61,0,0,0-51.6,0q-10.5,11.55-10.5,27.9t10.5,27.81a34.77,34.77,0,0,0,51.6,0Q717.69,306.43,717.69,290.06Z" style="fill:#4590ce"></path><path d="M681.3,356.62c-18.94,0-35.12-6.43-48.1-19.1S613.61,308.83,613.61,290s6.59-34.85,19.59-47.54,29.16-19.1,48.1-19.1,35.12,6.42,48.1,19.1S749,271.12,749,290s-6.6,34.85-19.6,47.55h0C716.42,350.2,700.24,356.62,681.3,356.62Zm0-126.29c-17,0-31.58,5.75-43.21,17.11s-17.48,25.4-17.48,42.53,5.72,31,17.48,42.54,26.17,17.11,43.21,17.11,31.58-5.75,43.21-17.11h0C736.28,321,742,307.11,742,290c0-16.89-5.89-31.2-17.49-42.53S698.35,230.33,681.3,230.33Zm.09,102.5A37.15,37.15,0,0,1,653,320.24c-7.58-8.27-11.42-18.42-11.42-30.18s3.84-21.93,11.41-30.25a38.1,38.1,0,0,1,56.78,0c7.57,8.32,11.41,18.5,11.41,30.25s-3.84,21.91-11.42,30.18A37.15,37.15,0,0,1,681.39,332.83Zm0-78.71c-9.26,0-16.85,3.4-23.21,10.4s-9.59,15.45-9.59,25.54,3.14,18.42,9.58,25.45a31.28,31.28,0,0,0,46.44,0c6.44-7,9.58-15.36,9.58-25.45s-3.14-18.45-9.59-25.54S690.65,254.12,681.39,254.12Z" style="fill:#4590ce"></path><path d="M860.16,240.56Q873,251.5,873,274.14t-13.2,33.15q-13.21,10.5-40.32,10.5H803.22V351.9H775.93V229.63h43.21Q847.3,229.63,860.16,240.56Zm-20,48.1q4.89-5.51,4.9-16.09t-6.39-15q-6.39-4.47-19.85-4.46H803.22v41.1h18.37Q835.22,294.17,840.13,288.66Z" style="fill:#4590ce"></path><path d="M806.72,355.4H772.43V226.13h46.71c19.54,0,34.1,4,43.28,11.76h0c9.34,8,14.08,20.15,14.08,36.25S871.63,302.37,862,310c-9.4,7.47-23.7,11.26-42.5,11.26H806.72Zm-27.29-7h20.29V314.29h19.77c17.18,0,30-3.28,38.14-9.74s11.88-16.3,11.88-30.41c0-13.95-3.91-24.36-11.62-30.92h0c-7.88-6.71-20.92-10.1-38.75-10.1H779.43Zm42.16-50.73H799.72v-48.1h19.07c9.8,0,17,1.66,21.86,5.09,5.23,3.65,7.88,9.68,7.88,17.91,0,7.9-1.95,14.1-5.78,18.42h0C838.75,295.49,831.82,297.67,821.59,297.67Zm-14.87-7h14.87c7.89,0,13.4-1.5,15.92-4.33h0c2.67-3,4-7.63,4-13.77,0-5.89-1.6-9.88-4.89-12.17-3.64-2.55-9.65-3.83-17.85-3.83H806.72Z" style="fill:#4590ce"></path><path d="M985.92,240.56q12.87,10.94,12.86,33.58t-13.21,33.15q-13.2,10.5-40.32,10.5H929V351.9H901.7V229.63h43.2Q973.07,229.63,985.92,240.56Zm-20,48.1q4.89-5.51,4.89-16.09t-6.38-15q-6.39-4.47-19.85-4.46H929v41.1h18.36Q961,294.17,965.9,288.66Z" style="fill:#4590ce"></path><path d="M932.49,355.4H898.2V226.13h46.7c19.54,0,34.11,4,43.29,11.76h0c9.35,8,14.09,20.15,14.09,36.25s-4.89,28.23-14.53,35.89c-9.4,7.47-23.7,11.26-42.5,11.26H932.49Zm-27.29-7h20.29V314.29h19.76c17.18,0,30-3.28,38.15-9.74s11.88-16.3,11.88-30.41c0-13.95-3.91-24.36-11.62-30.92h0c-7.89-6.71-20.92-10.1-38.76-10.1H905.2Zm42.15-50.73H925.49v-48.1h19.07c9.8,0,17,1.66,21.85,5.09,5.23,3.65,7.88,9.68,7.88,17.91,0,7.9-1.94,14.1-5.78,18.42h0C964.51,295.49,957.59,297.67,947.35,297.67Zm-14.86-7h14.86c7.9,0,13.41-1.5,15.93-4.33h0c2.66-3,4-7.63,4-13.77,0-5.89-1.6-9.88-4.89-12.17-3.63-2.55-9.64-3.83-17.84-3.83H932.49Z" style="fill:#4590ce"></path><path d="M1130.32,335q-18.54,18.11-45.65,18.1T1039,335q-18.54-18.11-18.54-45t18.54-45q18.54-18.1,45.66-18.1t45.65,18.1q18.54,18.1,18.54,45T1130.32,335Zm-9.27-45q0-16.35-10.5-27.9a34.61,34.61,0,0,0-51.6,0q-10.5,11.55-10.49,27.9T1059,317.87a34.77,34.77,0,0,0,51.6,0Q1121.05,306.43,1121.05,290.06Z" style="fill:#4590ce"></path><path d="M1084.66,356.62c-18.93,0-35.12-6.43-48.09-19.1S1017,308.83,1017,290s6.59-34.85,19.6-47.54,29.16-19.1,48.09-19.1,35.12,6.42,48.1,19.1,19.6,28.69,19.6,47.54-6.59,34.85-19.6,47.55h0C1119.78,350.2,1103.6,356.62,1084.66,356.62Zm0-126.29c-17,0-31.58,5.75-43.2,17.11C1029.69,258.92,1024,272.84,1024,290s5.72,31,17.49,42.54c11.62,11.36,26.16,17.11,43.2,17.11s31.59-5.75,43.21-17.11h0c11.77-11.49,17.49-25.4,17.49-42.54,0-16.89-5.88-31.2-17.49-42.53S1101.71,230.33,1084.66,230.33Zm.09,102.5a37.15,37.15,0,0,1-28.38-12.59C1048.8,312,1045,301.82,1045,290.06s3.83-21.93,11.4-30.25a38.1,38.1,0,0,1,56.78,0c7.57,8.32,11.41,18.5,11.41,30.25s-3.84,21.91-11.42,30.18A37.15,37.15,0,0,1,1084.75,332.83Zm0-78.71c-9.26,0-16.85,3.4-23.21,10.4S1052,280,1052,290.06s3.13,18.42,9.57,25.45a31.28,31.28,0,0,0,46.44,0c6.45-7,9.58-15.36,9.58-25.45s-3.14-18.45-9.59-25.54S1094,254.12,1084.75,254.12Z" style="fill:#4590ce"></path><line x1="498.86" y1="197.05" x2="727.85" y2="197.05" style="fill:#4590ce"></line><rect x="498.86" y="194.55" width="228.99" height="5" style="fill:#4590ce"></rect><line x1="790.36" y1="197.05" x2="1147.36" y2="197.05" style="fill:#4590ce"></line><rect x="790.36" y="194.55" width="357" height="5" style="fill:#4590ce"></rect></g></g></svg> 