<?xml version="1.0" encoding="UTF-8"?><svg id="a" xmlns="http://www.w3.org/2000/svg" width="27.37556cm" height="8.65184cm" viewBox="0 0 776 245.24897"><defs><style>.b,.c{fill:#0b552f;}.b,.c,.d,.e,.f,.g,.h,.i,.j,.k,.l,.m,.n,.o{fill-rule:evenodd;isolation:isolate;}.b,.k{opacity:.942;}.c{opacity:.944;}.d{opacity:.961;}.d,.e{fill:#0b562f;}.e{opacity:.952;}.f{opacity:.959;}.f,.g,.h{fill:#0c562f;}.g,.i{opacity:.946;}.h{opacity:.949;}.i,.j,.k,.l,.m,.n,.o{fill:#0c552f;}.j{opacity:.948;}.l{opacity:.982;}.m{opacity:.935;}.n{opacity:.936;}.o{opacity:.985;}</style></defs><path class="l" d="M411,.1243c10.34409-.33226,20.69882.00176,31,1,22.22522,4.55626,44.24536,10.0613,66,16.5,21.87201,6.088,43.87201,6.754,66,2,8.84375-2.46165,17.52698-5.46738,26-9-22.367,28.267-51.534,43.767-87.5,46.5-7.84235-.74606-15.67621-1.57942-23.5-2.5-22.45013-5.19598-44.78839-10.86389-67-17-20.37399-5.797-40.707-5.797-61,0-8.51462,3.83745-16.70755,8.35194-24.5,13.5-1.25699-.35-1.591-1.017-1-2,9.84106-10.51414,20.36383-20.3688,31.5-29.5,13.742-9.047,28.409-15.547,44-19.5Z"/><path class="o" d="M283,50.1243c14.74823-.35793,29.4938.81502,44,3.5,26.07941,6.35304,52.0813,13.02015,78,20,37.98499,9.76801,74.651,6.26801,110-10.5l1,1c-18.17999,21.69099-40.17999,38.19101-66,49.5-24.42499,8.838-49.42499,10.838-75,6-29.19287-6.54831-58.20346-13.88432-87-22-20.423-5.377-41.09-6.71001-62-4-7.53302,1.17859-14.91165,3.19095-22,6-9.06415,4.76154-17.90665,9.93356-26.5,15.5-1.257-.35001-1.591-1.017-1-2,18.194-22.16299,40.02701-39.66299,65.5-52.5,13.27701-5.568,26.94299-9.068,41-10.5Z"/><path class="n" d="M85,172.1243c2.411-.36301,3.911.63699,4.5,3l24,62c1.69501,3.19501,4.19501,5.52802,7.5,7-8,1.33301-16,1.33301-24,0,2.623-.797,4.623-2.297,6-4.5-1.35562-4.54684-2.85638-9.04916-4.5-13.5-8.11705-1.14877-16.34283-1.31665-24.5-.5-2.75977,5.1076-4.46039,10.71964-5,16.5,2.196.065,4.196.73199,6,2-8,1.33301-16,1.33301-24,0,4.728-1.74301,7.894-5.07599,9.5-10,8.26231-20.62875,16.42897-41.29567,24.5-62ZM86,193.1243c3.20573,7.58456,6.20682,15.254,9,23-6,1.33301-12,1.33301-18,0,3.19357-7.58951,6.19452-15.25864,9-23Z"/><path class="c" d="M532,172.1243c2.54999.061,4.04999,1.394,4.5,4,7.94495,22.01833,16.78564,43.70303,26.5,65,1.77441.80835,3.45172,1.81473,5,3-8,1.33301-16,1.33301-24,0,2.37201-.84698,4.37201-2.181,6-4-1.26648-4.80008-2.93915-9.48364-5-14-8.29352-.99731-16.65332-1.3317-25-1-1.46576,5.06476-3.13373,10.06876-5,15,1.62799,1.819,3.62799,3.15302,6,4-7.6087,1.33301-15.3913,1.33301-23,0,5.38501-2.74899,8.88501-7.082,10.5-13,7.849-19.69199,15.68201-39.35901,23.5-59ZM532,193.1243c3.73041,7.65836,7.06805,15.50186,10,23.5-5.99103.49899-11.99103.66599-18,.5l8-24Z"/><path class="k" d="M740,172.1243h4c7.9472,23.00209,16.78729,45.68594,26.5,68,1.74243,1.45407,3.57983,2.79037,5.5,4-8,1.33301-16,1.33301-24,0,1.75494-1.25177,3.84497-1.94846,6-2-.57318-5.55157-2.09528-10.96353-4.5-16-8.11707-1.14877-16.34283-1.31665-24.5-.5-2.75977,5.1076-4.46039,10.71964-5,16.5,2.19598.065,4.19598.73199,6,2-7.6087,1.33301-15.3913,1.33301-23,0,1.7514-1.44247,3.58807-2.7782,5.5-4,9.8476-22.38528,19.01843-45.06226,27.5-68ZM741,193.1243c3.20575,7.58456,6.20679,15.254,9,23-6,1.33301-12,1.33301-18,0,3.19354-7.58951,6.19452-15.25864,9-23Z"/><path class="f" d="M0,173.1243h25v3c-5.36-.13699-7.86,2.52901-7.5,8-.5,17.664-.667,35.33002-.5,53,7.341.16599,14.674,0,22-.5,2.247-1.995,3.247-4.495,3-7.5h3v16c-15.00741.33282-30.02219-.00082-45-1,2.2244-1.23715,4.39317-2.57178,6.5-4,1.9863-20.28482,1.9863-40.71518,0-61-1.465-2.41499-3.632-3.41499-6.5-3v-3Z"/><path class="b" d="M127,173.1243c11.396-.409,22.73.091,34,1.5,10.93401,5.037,15.101,13.537,12.5,25.5-1.66499,7.66299-6.16499,12.82999-13.5,15.5-5.23308,1.26907-10.62224,1.77429-16,1.5-.166,7.008,0,14.008.5,21,.29901,1.24292.80618,2.4263,1.5,3.5,2.11171.53479,4.13332,1.37714,6,2.5-8.28003,1.33301-16.71997,1.33301-25,0,2.867-.84,5.033-2.50699,6.5-5,2-20,2-40,0-60-1.465-2.41499-3.632-3.41499-6.5-3v-3ZM144,181.1243c16.04001-1.46899,22.20599,5.53101,18.5,21-4.519,6.16-10.685,8.827-18.5,8v-29Z"/><path class="j" d="M183,173.1243c11.68793-.41376,23.39032.08777,35,1.5,9.82001,4.80701,13.987,12.64,12.5,23.5-4.34201,15.271-14.508,21.604-30.5,19-.20615,7.69644.29596,15.39554,1.5,23,1.91376,1.70633,4.11435,3.06052,6.5,4-8,1.33301-16,1.33301-24,0,1.41199-1.306,3.07901-2.14001,5-2.5.69382-1.07373,1.20099-2.25708,1.5-3.5.66699-19,.66699-38,0-57-.74301-4.23599-3.24301-5.903-7.5-5v-3ZM200,181.1243c15.98001-2.151,22.48001,4.51601,19.5,20-4.60001,6.88101-11.10001,9.88101-19.5,9v-29Z"/><path class="d" d="M241,173.1243h43c-.71982,5.63731-1.05392,11.31718-1,17h-3c.655-3.855-.67899-6.688-4-8.5-6.32501-.5-12.65799-.666-19-.5v23c6.34201.16599,12.67499,0,19-.5,1.009-2.172,2.67599-3.33801,5-3.5-1.12302,5.94745-1.12302,12.05255,0,18-2.53354-1.36688-4.88531-3.04672-7-5-5.61819-.90793-11.31409-1.24298-17-1-.3186,8.18027.01578,16.37292,1,24.5,7,.66699,14,.66699,21,0,2.24701-1.995,3.24701-4.495,3-7.5h3v16c-15.00742.33282-30.02219-.00082-45-1,2.38565-.93948,4.58624-2.29367,6.5-4,1.98599-20.28485,1.98599-40.71516,0-61-.92801-2.535-2.76199-3.535-5.5-3v-3Z"/><path class="e" d="M300,173.1243h43c-.854,5.62401-1.18875,11.31465-1,17h-3c.27499-3.71001-1.05801-6.543-4-8.5-6.32501-.5-12.65799-.666-19-.5v23c6.34201.16599,12.67499,0,19-.5.71899-2.556,2.38599-3.72299,5-3.5-1.33301,6-1.33301,12,0,18-2.53354-1.36688-4.88531-3.04672-7-5-5.61819-.90793-11.31409-1.24298-17-1v25c7.341.16599,14.67401,0,22-.5,2.24701-1.995,3.24701-4.495,3-7.5h3c.17734,5.35303-.1575,10.71072-1,16-14.67426.33282-29.35602-.00085-44-1,2.867-.84,5.03299-2.50699,6.5-5,2-20,2-40,0-60-.92801-2.535-2.76199-3.535-5.5-3v-3Z"/><path class="g" d="M364,173.1243c1.64401-.214,3.14401.12,4.5,1,14.69907,17.02762,29.03561,34.36484,43,52,.66699-14.65909.66699-29.34091,0-44-.41699-4.472-2.91699-6.472-7.5-6v-3h23v3c-2.49301-.17101-4.32599.82899-5.5,3-1.37997,21.97119-1.88037,43.9888-1.5,66-2.22198.32199-4.056-.345-5.5-2-13.68451-16.17993-27.18539-32.51431-40.5-49-1.16599,14.63828-1.33304,29.33899-.5,44,.29901,1.24292.80618,2.4263,1.5,3.5,2.11169.53479,4.13333,1.37714,6,2.5-8.28003,1.33301-16.71997,1.33301-25,0,1.86667-1.12286,3.88831-1.96521,6-2.5.69382-1.07373,1.20099-2.25708,1.5-3.5.5-21.664.66699-43.33099.5-65Z"/><path class="i" d="M438,173.1243c11.68793-.41376,23.39032.08777,35,1.5,10.93402,6.69099,14.09998,16.19099,9.5,28.5-2.52197,5.189-6.35602,9.022-11.5,11.5,5.29456,7.4111,10.46198,14.91217,15.5,22.5,2.79498,2.96701,5.96198,5.29999,9.5,7-5.59357,1.1619-11.34784,1.33115-17,.5-6.12573-9.08377-12.12628-18.25131-18-27.5-1.8446-.95734-3.94458-1.30731-6-1-.37,8.40302.13,16.73599,1.5,25,1.97632.71201,3.83136,1.72385,5.5,3-8,1.33301-16,1.33301-24,0,2.38568-.93948,4.58624-2.29367,6.5-4,1.08624-10.29663,1.58704-20.64661,1.5-31,.09998-10.048-.40002-20.048-1.5-30-1.46503-2.41499-3.63202-3.41499-6.5-3v-3ZM455,181.1243c14.32098-2.17799,20.48798,3.82201,18.5,18-3.83398,7.461-10.00098,10.461-18.5,9v-27Z"/><path class="m" d="M581,173.1243c2.763.244,4.92902,1.577,6.5,4,13.66162,16.33755,27.32739,32.67166,41,49,.79614-15.67035.46191-31.3777-1-47-1.84802-2.541-4.34802-3.541-7.5-3v-3h24v3c-3.75098-.418-5.91803,1.24899-6.5,5-.50018,21.32944-.66681,42.66537-.5,64-3.64697-.12201-6.48102-1.78799-8.5-5l-39-47c-.90198,15.66861-.56763,31.38394,1,47,1.91376,1.70633,4.11432,3.06052,6.5,4-8,1.33301-16,1.33301-24,0,5.375-1.20499,7.875-4.53799,7.5-10,.5-20.33099.66699-40.664.5-61Z"/><path class="h" d="M652,173.1243h57v17h-3c.42999-3.362-.57001-6.19501-3-8.5-5.98615-.49904-11.99536-.66595-18-.5-.34338,19.34595.1571,38.69766,1.5,58,.37402.91599.87402,1.75,1.5,2.5,2.11169.53479,4.1333,1.37714,6,2.5-8.61542,1.33301-17.38458,1.33301-26,0,4.43201-.92999,6.93201-3.59601,7.5-8,.5-18.32999.66699-36.664.5-55-5.67157-.16597-11.34796.00099-17,.5-2.94202,1.957-4.27502,4.78999-4,8.5h-3v-17Z"/></svg>