<?xml version="1.0" encoding="UTF-8"?><svg id="a" xmlns="http://www.w3.org/2000/svg" width="967.74171" height="265.1253" viewBox="0 0 967.74171 265.1253"><defs><style>.b{fill:#8dc63f;}.c{fill:#6dae50;}.d{fill-rule:evenodd;}.d,.e{fill:#43b649;}.f{fill:#72bf44;}</style></defs><path class="d" d="M33.50936,265.1253h87.28274c18.51256,0,33.51258-15.00881,33.51258-33.51532s-15.00002-33.51095-33.51258-33.51095h-53.77049V33.97227C67.02161,15.45999,52.02164.45704,33.51523.45704,15.00295.45704,0,15.45999,0,33.97227v197.63771c0,18.50651,15.00295,33.51532,33.50936,33.51532h0Z"/><path class="f" d="M451.15594,36.09947c-3.88349,9.68211-6.90057,20.06162-10.12205,29.44572-14.97255,43.59077-31.81512,86.99693-46.99202,128.0316-3.31606,8.96135-7.92861,18.52559-9.96643,26.61107-6.39416,25.37035,8.96581,44.6574,32.41611,42.13695,26.70222-2.87189,31.65643-36.26786,38.8895-57.52868,8.73093-25.63848,16.99204-49.17964,25.80535-73.83798l-30.03047-94.85869h0Z"/><path class="c" d="M489.13331,156.06346c-13.18181,7.90086-21.40018,29.39806-13.49299,45.49137,5.25627,10.69679,17.4161,12.41854,31.90053,12.63909l-18.40755-58.13046h0Z"/><path class="f" d="M370.74109,57.32276C351.13155,22.65759,309.41713-3.9223,251.42147.83837c-14.33408,1.17974-26.99543,4.31082-38.11656,8.75867,2.11654-.84608,4.28833-1.64449,6.5198-2.38927l17.3951,58.31666c5.28369-3.13387,11.29708-5.18054,18.09087-5.80048-.06252.00605-.08635.00605.09091-.01192.09822-.01192.13546-.01192.14612-.01192,28.15133-3.34837,48.02504,11.24039,56.3313,27.05068,12.2971,23.42181,12.74555,64.8798,0,89.89256-7.16809,14.07346-20.51156,23.0942-35.19002,26.46063.48867-.10716.98316-.20835,1.46886-.33348l17.24615,57.82641c22.40239-5.06435,43.1742-15.53901,58.63487-31.4478,36.05546-37.07996,45.82671-120.35259,16.70222-171.82635h0Z"/><path class="e" d="M278.15785,202.77051c-.48569.12512-.98018.22632-1.46886.33348-1.04275.24438-2.08549.45302-3.14006.63754-.80413.13704-1.6086.26235-2.41608.36951-.62269.07746-1.23918.16683-1.86187.22632-1.29011.12512-2.58291.20258-3.87884.24438-.46465.01192-.92344.01797-1.38837.01797-1.45084.01192-2.90145-.01797-4.3481-.11935-.15613-.01182-.31262-.02979-.47066-.0418-6.80719-.52405-13.50276-2.26992-19.63854-5.33853-2.77484-1.38809-5.43679-3.03872-7.9408-4.96921-28.96026-22.34355-32.35201-90.99177-4.20194-120.68178.03878-.0418.07876-.08351.11898-.1254.88774-.92921,1.80997-1.8142,2.76022-2.66614.11777-.10138.23247-.20845.35024-.31272.94141-.82522,1.91247-1.60594,2.91337-2.35054.08784-.06256.17293-.13425.26077-.19672,1.10228-.80446,2.24045-1.56107,3.41554-2.26117l-.00303-.01192-17.3951-58.31666c-2.23147.74478-4.40326,1.54319-6.5198,2.38927-.0702.02979-.13848.05958-.20868.08937-1.97498.79245-3.89658,1.63257-5.77488,2.50844-.22209.10129-.44263.20854-.66439.31281-.77458.36643-1.51038.76564-2.26875,1.14697-10.95271,5.49651-20.18214,12.30385-27.67025,19.79043-31.47159,31.47163-44.86263,94.93019-27.04449,149.54974,13.70986,42.01341,49.23331,76.23786,102.1116,80.65881,3.53754.29782,7.15133.45888,10.84258.48262,2.60954.01201,5.21936-.05362,7.82303-.17875.429-.01797.85208-.04757,1.27824-.07131,2.22514-.13118,4.44171-.30424,6.65531-.53047.43775-.04767.87275-.08937,1.30775-.13704,5.26726-.58996,10.49546-1.44777,15.63457-2.60377.02686-.00605.05372-.01192.07746-.01797l-17.24615-57.82641h0Z"/><path class="b" d="M564.60307,261.50881c13.22454,5.93435,30.26848,2.60368,38.0903-8.10345,14.1336-19.38843-3.8072-52.4283-10.54913-71.30413-11.75708-32.87192-27.66317-74.77063-38.89863-106.95419-9.35636-26.83311-17.57474-66.51227-42.93168-72.93232-35.2166-8.93146-49.73762,10.51636-59.15799,33.88474l30.03047,94.85869c4.17326-11.66622,8.38009-23.8361,12.91639-36.37213,7.96827,19.04275,16.12571,37.89745,22.69374,58.33733-8.89869.58391-16.20196-1.09632-22.69374.81638-1.72664.50645-3.3648,1.37925-4.96948,2.32373l18.40755,58.12441c8.28252.1254,17.32156-.22632,26.266.32184,7.93471,15.97405,13.69129,39.33647,30.79621,46.99909h0Z"/><path class="b" d="M676.61346,194.13082c-9.65227-3.5152-20.35088-10.23614-32.62056-8.75253-15.69248,1.89473-28.0506,18.89957-25.44837,37.39556,2.46179,17.45767,22.92853,27.55714,36.58933,32.60957,65.41181,24.19667,140.95176-1.05462,147.16578-65.22668,6.08908-62.91636-33.83763-77.44255-76.3635-92.28481-7.48932-2.60954-33.72177-9.16383-34.20378-20.68435-.67417-15.96791,22.74252-16.73057,32.60827-15.11001,14.7224,2.40714,25.38744,11.00476,40.57658,9.5393,24.53024-2.35352,33.60879-33.27699,16.6992-51.70008-13.79193-15.03274-47.12319-21.07443-73.9841-19.09629-15.33559,1.13803-30.76869,4.72492-42.15376,10.34953-24.91152,12.29193-41.06465,38.83607-41.36973,70.79339-.40265,43.57867,30.22272,58.42093,63.64252,70.00355,15.35379,5.32102,48.61798,10.04892,47.72414,31.02783-1.05247,24.83588-42.61743,17.04664-58.86203,11.13602h0Z"/><path class="b" d="M830.47505,257.05101v-30.70722h26.64237v30.70722h-26.64237Z"/><path class="b" d="M906.14158,185.64003v71.41098h-24.7906v-71.41098h-9.9865v-21.08706h9.9865v-4.06987c0-13.31867,1.97221-22.50725,5.92164-27.56574,3.94442-5.05347,10.97511-7.58271,21.08706-7.58271,4.44123,0,10.17719.61726,17.20789,1.84675l3.8842.55704-.37136,20.16369c-5.42984-.2459-9.9865-.36634-13.69003-.36634-3.69852,0-6.16754.98861-7.39703,2.9558-1.23451,1.97723-1.85177,5.36461-1.85177,10.17719v3.8842h22.38681v21.08706h-22.38681Z"/><path class="b" d="M942.95613,152.7147v-25.16196h24.78558v25.16196h-24.78558ZM942.95613,257.05101v-92.49804h24.78558v92.49804h-24.78558Z"/></svg>