<?xml version="1.0" encoding="utf-8"?>
<!-- Generator: Adobe Illustrator 25.1.0, SVG Export Plug-In . SVG Version: 6.00 Build 0)  -->
<svg version="1.1" id="Layer_1" xmlns="http://www.w3.org/2000/svg" xmlns:xlink="http://www.w3.org/1999/xlink" x="0px" y="0px"
	 viewBox="0 0 360 130" style="enable-background:new 0 0 360 130;" xml:space="preserve">
<style type="text/css">
	.st0{fill:#54565A;}
	.st1{fill:#FFFFFF;}
	.st2{fill:#0071CE;}
</style>
<g>
	<path class="st0" d="M359.3,75.8c0,3.3-2.6,6.2-6.1,6.2c-3.6,0-6.1-2.9-6.1-6.2c0-3.3,2.6-6.2,6.1-6.2
		C356.8,69.6,359.3,72.6,359.3,75.8 M348.2,75.8c0,2.7,2.1,5.2,5,5.2c3,0,5-2.5,5-5.2c0-2.7-2.1-5.1-5-5.1
		C350.2,70.6,348.2,73.1,348.2,75.8 M355.8,74.7c0,0.7-0.3,1.2-0.9,1.4c0.4,0.2,0.6,0.6,0.8,1.2l0.3,1.4h-1.7l-0.2-0.9
		c-0.2-1-0.7-1-1.2-1h-0.3v2h-1.7v-5.8h2.5C354.5,72.9,355.8,73.3,355.8,74.7 M352.6,74.3v1.1l0.8,0c0.5,0,0.8-0.2,0.8-0.6
		c0-0.4-0.3-0.5-0.8-0.5H352.6z"/>
	<path class="st1" d="M96,51.4l23.8-0.1L96,51.4z"/>
	<polygon class="st0" points="79,104.1 78.7,106.9 73,106.9 70.7,123.1 67.4,123.1 69.7,106.9 64.1,106.9 64.5,104.1 	"/>
	<path class="st0" d="M89.5,123.1h-3l1.2-8.4c0-0.2,0-0.3,0-0.5c0-0.5-0.1-0.9-0.4-1.2c-0.2-0.3-0.6-0.4-1-0.4
		c-0.9,0-2.1,0.8-3.5,2.4l-1.1,8.1h-3l2.7-18.9h3l-1.2,8.2h0.1c0.7-0.7,1.3-1.2,2.1-1.5c0.7-0.4,1.5-0.5,2.2-0.5c1,0,1.8,0.3,2.3,1
		c0.6,0.6,0.8,1.5,0.8,2.6c0,0.2,0,0.5-0.1,0.9L89.5,123.1z"/>
	<path class="st0" d="M99.3,110.2c0.9,0,1.8,0.2,2.5,0.7c0.7,0.4,1.3,1.1,1.7,1.9c0.4,0.8,0.6,1.7,0.6,2.7c0,0.5,0,0.9-0.1,1.4h-8
		c-0.1,0.3-0.1,0.6-0.1,0.9c0,0.7,0.1,1.3,0.4,1.8c0.3,0.5,0.6,0.9,1.1,1.2c0.5,0.3,1,0.4,1.6,0.4c0.6,0,1.2-0.1,1.9-0.4
		c0.7-0.2,1.5-0.6,2.4-1.1l-0.5,2.6c-1.4,0.8-2.9,1.2-4.3,1.2c-1.1,0-2.1-0.2-3-0.7c-0.9-0.5-1.5-1.2-2-2.1c-0.5-0.9-0.7-2-0.7-3.2
		c0-1.3,0.3-2.5,0.8-3.6c0.6-1.1,1.3-2,2.3-2.6C97.1,110.5,98.1,110.2,99.3,110.2 M101.2,115v-0.2c0-0.7-0.2-1.3-0.5-1.7
		c-0.4-0.4-0.9-0.6-1.5-0.6c-1.3,0-2.2,0.9-2.8,2.6H101.2z"/>
	<path class="st0" d="M125.4,107.9c-0.6-0.4-1.2-0.7-1.9-0.9c-0.7-0.2-1.4-0.3-2-0.3c-0.9,0-1.6,0.2-2.2,0.7
		c-0.6,0.5-0.8,1.1-0.8,1.8c0,0.3,0.1,0.6,0.3,0.9c0.2,0.3,0.4,0.6,0.8,0.9c0.3,0.3,0.9,0.7,1.6,1.3c0.5,0.3,0.9,0.7,1.4,1.1
		c0.5,0.4,0.9,0.8,1.3,1.2c0.4,0.5,0.7,1,0.9,1.5c0.2,0.6,0.4,1.2,0.4,1.9c0,1-0.2,1.9-0.7,2.7c-0.5,0.8-1.2,1.5-2.1,1.9
		c-0.9,0.5-1.9,0.7-3.1,0.7c-1.9,0-3.7-0.5-5.4-1.5l0.5-3c0.9,0.6,1.8,1.1,2.6,1.4c0.8,0.3,1.6,0.4,2.3,0.4c0.5,0,0.9-0.1,1.4-0.3
		c0.4-0.2,0.8-0.5,1-0.8c0.3-0.3,0.4-0.7,0.4-1.2c0-0.4-0.1-0.7-0.2-1c-0.2-0.3-0.4-0.6-0.7-0.9c-0.3-0.3-0.6-0.6-0.9-0.8
		c-0.4-0.3-0.7-0.5-1.1-0.8c-1.1-0.8-1.8-1.4-2.3-1.9c-0.5-0.5-0.8-1-1.1-1.6c-0.3-0.6-0.4-1.2-0.4-1.9c0-1,0.3-1.9,0.8-2.7
		c0.6-0.8,1.3-1.5,2.3-2c1-0.5,2.1-0.7,3.2-0.7c0.7,0,1.5,0.1,2.3,0.3c0.8,0.2,1.5,0.5,2.1,0.8L125.4,107.9z"/>
	<path class="st0" d="M145.9,123.1h-3l1.1-7.8c0-0.4,0.1-0.7,0.1-0.9c0-0.6-0.1-1-0.3-1.3c-0.2-0.3-0.5-0.4-0.9-0.4
		c-0.5,0-1,0.2-1.6,0.6c-0.6,0.4-1.2,1-1.9,1.9l-1.1,8h-3l1.1-7.6c0.1-0.4,0.1-0.7,0.1-1.1c0-0.6-0.1-1.1-0.3-1.4
		c-0.2-0.3-0.6-0.4-1-0.4c-0.3,0-0.7,0.1-1,0.3c-0.4,0.2-0.8,0.5-1.2,0.9c-0.4,0.4-0.8,0.8-1.1,1.2l-1.1,8h-3l1.8-12.5h3l-0.3,1.9
		l0.1,0.1c1.4-1.5,2.8-2.2,4.1-2.2c0.8,0,1.5,0.2,2,0.7c0.5,0.5,0.9,1.1,1,1.9c0.9-0.9,1.7-1.6,2.4-2c0.7-0.4,1.5-0.6,2.2-0.6
		c1,0,1.8,0.3,2.4,1c0.6,0.7,0.9,1.6,0.9,2.7c0,0.4,0,0.7-0.1,1.1L145.9,123.1z"/>
	<path class="st0" d="M159.8,123.1h-3l0.2-1.3l0,0l0,0c-1.1,1-2.3,1.6-3.4,1.6c-0.8,0-1.5-0.2-2.2-0.7c-0.7-0.5-1.2-1.1-1.5-1.9
		c-0.4-0.8-0.6-1.7-0.6-2.6c0-1.6,0.4-3,1.1-4.2c0.7-1.2,1.8-2.2,3.1-2.8c1.3-0.6,2.8-0.9,4.6-0.9c1.2,0,2.4,0.1,3.5,0.4
		L159.8,123.1z M158.3,112.8c-0.3,0-0.5,0-0.8,0c-0.8,0-1.4,0.1-2,0.3c-0.6,0.2-1.1,0.6-1.6,1c-0.5,0.5-0.8,1-1.1,1.7
		c-0.3,0.7-0.4,1.4-0.4,2.2c0,0.9,0.2,1.6,0.6,2.2c0.4,0.5,0.9,0.8,1.6,0.8c0.4,0,0.9-0.1,1.4-0.4c0.5-0.3,1-0.7,1.4-1.1
		L158.3,112.8z"/>
	<path class="st0" d="M170.6,113.9c-0.2-0.2-0.4-0.4-0.6-0.5c-0.2-0.1-0.4-0.2-0.7-0.2c-0.9,0-1.8,0.9-2.7,2.6l-1,7.2h-3l1.7-12.5h3
		l-0.4,2.2c0.6-0.9,1.2-1.5,1.7-1.9c0.5-0.4,1-0.6,1.6-0.6c0.3,0,0.6,0.1,0.9,0.2c0.3,0.1,0.6,0.3,0.8,0.5L170.6,113.9z"/>
	<path class="st0" d="M181.8,110.5l-0.4,2.2h-2.6l-0.9,5.4c-0.1,0.6-0.2,1.1-0.2,1.5c0,0.3,0.1,0.5,0.3,0.7c0.2,0.2,0.5,0.3,0.9,0.3
		c0.4,0,0.8-0.1,1.1-0.2c0.4-0.1,0.7-0.3,1.2-0.6l-0.1,2.8c-0.4,0.2-0.8,0.4-1.4,0.5c-0.5,0.1-1.1,0.2-1.7,0.2
		c-0.7,0-1.3-0.1-1.8-0.4c-0.5-0.2-0.9-0.6-1.2-1c-0.3-0.4-0.4-0.9-0.4-1.5c0-0.5,0.1-1.5,0.4-2.8l0.9-4.9h-2.4l0.4-2.2h2.4l0.4-2.6
		h3l-0.5,2.6H181.8z"/>
	<path class="st0" d="M188.9,110.2c0.9,0,1.8,0.2,2.5,0.7c0.7,0.4,1.3,1.1,1.7,1.9c0.4,0.8,0.6,1.7,0.6,2.7c0,0.5,0,0.9-0.1,1.4h-8
		c-0.1,0.3-0.1,0.6-0.1,0.9c0,0.7,0.1,1.3,0.4,1.8c0.3,0.5,0.6,0.9,1.1,1.2c0.5,0.3,1,0.4,1.6,0.4c0.6,0,1.2-0.1,1.9-0.4
		c0.7-0.2,1.5-0.6,2.4-1.1l-0.5,2.6c-1.4,0.8-2.9,1.2-4.3,1.2c-1.1,0-2.1-0.2-3-0.7c-0.9-0.5-1.5-1.2-2-2.1c-0.5-0.9-0.7-2-0.7-3.2
		c0-1.3,0.3-2.5,0.8-3.6c0.6-1.1,1.3-2,2.3-2.6C186.7,110.5,187.8,110.2,188.9,110.2 M190.8,115v-0.2c0-0.7-0.2-1.3-0.5-1.7
		c-0.4-0.4-0.9-0.6-1.5-0.6c-1.3,0-2.2,0.9-2.8,2.6H190.8z"/>
	<path class="st0" d="M203.7,113.9c-0.2-0.2-0.4-0.4-0.6-0.5c-0.2-0.1-0.4-0.2-0.7-0.2c-0.9,0-1.8,0.9-2.7,2.6l-1,7.2h-3l1.7-12.5h3
		l-0.4,2.2c0.6-0.9,1.2-1.5,1.7-1.9c0.5-0.4,1-0.6,1.6-0.6c0.3,0,0.6,0.1,0.9,0.2c0.3,0.1,0.6,0.3,0.8,0.5L203.7,113.9z"/>
	<polygon class="st0" points="236.7,104.1 227.4,123.3 226.2,123.3 222.7,110.2 216.4,123.3 215.1,123.3 210.9,104.1 214,104.1 
		216.7,116.7 216.7,116.7 222.8,104.1 224.1,104.1 227.5,116.8 227.6,116.8 233.4,104.1 	"/>
	<path class="st0" d="M244.9,123.1h-3l0.2-1.3l0,0l0,0c-1.1,1-2.3,1.6-3.4,1.6c-0.8,0-1.5-0.2-2.2-0.7c-0.7-0.5-1.2-1.1-1.5-1.9
		c-0.4-0.8-0.6-1.7-0.6-2.6c0-1.6,0.4-3,1.1-4.2c0.7-1.2,1.8-2.2,3.1-2.8c1.3-0.6,2.8-0.9,4.6-0.9c1.2,0,2.4,0.1,3.5,0.4
		L244.9,123.1z M243.3,112.8c-0.3,0-0.5,0-0.8,0c-0.8,0-1.4,0.1-2,0.3c-0.6,0.2-1.1,0.6-1.6,1c-0.5,0.5-0.8,1-1.1,1.7
		c-0.3,0.7-0.4,1.4-0.4,2.2c0,0.9,0.2,1.6,0.6,2.2c0.4,0.5,0.9,0.8,1.6,0.8c0.4,0,0.9-0.1,1.4-0.4c0.5-0.3,1-0.7,1.4-1.1
		L243.3,112.8z"/>
	<polygon class="st0" points="256.9,110.5 253.3,118.6 253.3,118.6 251.2,110.5 248.3,110.5 251.4,122.1 247.9,129.4 251,129.4 
		260.1,110.5 	"/>
	<path class="st0" d="M289,115.9c0,1.4-0.3,2.6-0.8,3.8c-0.6,1.1-1.3,2.1-2.3,2.7c-1,0.7-2.1,1-3.3,1c-1.1,0-2-0.2-2.8-0.7
		c-0.8-0.5-1.5-1.2-1.9-2.1c-0.5-0.9-0.7-1.9-0.7-3c0-1.3,0.3-2.6,0.9-3.7c0.6-1.1,1.4-2,2.4-2.7c1-0.6,2.1-1,3.3-1
		c1,0,2,0.2,2.8,0.7c0.8,0.5,1.4,1.1,1.9,2C288.7,113.8,289,114.8,289,115.9 M285.9,115.8c0-0.9-0.2-1.7-0.6-2.3
		c-0.4-0.6-1-0.9-1.7-0.9c-0.7,0-1.2,0.2-1.7,0.7c-0.5,0.5-0.9,1.1-1.2,2c-0.3,0.8-0.4,1.7-0.4,2.5c0,0.6,0.1,1.1,0.3,1.6
		c0.2,0.5,0.5,0.8,0.8,1.1c0.4,0.3,0.7,0.4,1.2,0.4c0.6,0,1.2-0.2,1.8-0.7c0.5-0.5,0.9-1.1,1.2-1.9
		C285.7,117.6,285.9,116.7,285.9,115.8"/>
	<polygon class="st0" points="321.9,104.1 312.7,123.3 311.4,123.3 308,110.2 301.6,123.3 300.3,123.3 296.2,104.1 299.3,104.1 
		302,116.7 302,116.7 308,104.1 309.4,104.1 312.8,116.8 312.9,116.8 318.7,104.1 	"/>
	<path class="st0" d="M331.5,115.9c0,1.4-0.3,2.6-0.8,3.8c-0.6,1.1-1.3,2.1-2.3,2.7c-1,0.7-2.1,1-3.3,1c-1.1,0-2-0.2-2.8-0.7
		c-0.8-0.5-1.5-1.2-1.9-2.1c-0.5-0.9-0.7-1.9-0.7-3c0-1.3,0.3-2.6,0.9-3.7c0.6-1.1,1.4-2,2.4-2.7c1-0.6,2.1-1,3.3-1
		c1,0,2,0.2,2.8,0.7c0.8,0.5,1.4,1.1,1.9,2C331.3,113.8,331.5,114.8,331.5,115.9 M328.4,115.8c0-0.9-0.2-1.7-0.6-2.3
		c-0.4-0.6-1-0.9-1.7-0.9c-0.7,0-1.2,0.2-1.7,0.7c-0.5,0.5-0.9,1.1-1.2,2c-0.3,0.8-0.4,1.7-0.4,2.5c0,0.6,0.1,1.1,0.3,1.6
		c0.2,0.5,0.5,0.8,0.8,1.1c0.4,0.3,0.7,0.4,1.2,0.4c0.6,0,1.2-0.2,1.8-0.7c0.5-0.5,0.9-1.1,1.2-1.9
		C328.3,117.6,328.4,116.7,328.4,115.8"/>
	<path class="st0" d="M341.4,113.9c-0.2-0.2-0.4-0.4-0.6-0.5c-0.2-0.1-0.4-0.2-0.7-0.2c-0.9,0-1.8,0.9-2.7,2.6l-1,7.2h-3l1.7-12.5h3
		l-0.4,2.2c0.6-0.9,1.2-1.5,1.7-1.9c0.5-0.4,1-0.6,1.6-0.6c0.3,0,0.6,0.1,0.9,0.2c0.3,0.1,0.6,0.3,0.8,0.5L341.4,113.9z"/>
	<polygon class="st0" points="348.8,104.1 347.1,116.1 347.2,116.2 352,110.5 355.8,110.5 350.2,116.5 355.4,123.1 351.7,123.1 
		347,116.8 346.1,123.1 343.2,123.1 345.8,104.1 	"/>
	<path class="st0" d="M360,121.5c0,0.5-0.2,1-0.6,1.4c-0.4,0.4-0.8,0.6-1.4,0.6c-0.3,0-0.6-0.1-0.9-0.3c-0.3-0.2-0.5-0.4-0.7-0.7
		c-0.2-0.3-0.3-0.6-0.3-1c0-0.4,0.1-0.7,0.3-1c0.2-0.3,0.4-0.5,0.7-0.7c0.3-0.2,0.6-0.3,0.9-0.3c0.5,0,1,0.2,1.4,0.6
		C359.8,120.5,360,120.9,360,121.5"/>
	<path class="st0" d="M276.4,110.5l-0.4,2.2h-2.6l-0.9,5.4c-0.1,0.6-0.2,1.1-0.2,1.5c0,0.3,0.1,0.5,0.3,0.7c0.2,0.2,0.5,0.3,0.9,0.3
		c0.4,0,0.8-0.1,1.1-0.2c0.4-0.1,0.7-0.3,1.2-0.6l-0.1,2.8c-0.4,0.2-0.8,0.4-1.4,0.5c-0.5,0.1-1.1,0.2-1.7,0.2
		c-0.7,0-1.3-0.1-1.8-0.4c-0.5-0.2-0.9-0.6-1.2-1c-0.3-0.4-0.4-0.9-0.4-1.5c0-0.5,0.1-1.5,0.4-2.8l0.9-4.9h-2.4l0.4-2.2h2.4l0.4-2.6
		h3l-0.5,2.6H276.4z"/>
	<path class="st2" d="M208.2,8.7c0,4.6-3.7,8.2-8.2,8.2c-4.6,0-8.2-3.7-8.2-8.2c0-4.6,3.7-8.2,8.2-8.2
		C204.5,0.4,208.2,4.1,208.2,8.7"/>
	<path class="st0" d="M118.9,51.6c0.7,0,1.3-0.5,1.5-1.2l2.1-12.4c0-0.1,0-0.2,0-0.3c0-0.8-0.7-1.5-1.5-1.5H98.2
		c-0.7,0-1.3,0.6-1.4,1.3h0l-2.1,12.3h0c0,0.1,0,0.2,0,0.3c0,0.8,0.7,1.5,1.5,1.5H118.9z"/>
	<path class="st0" d="M219.5,83.3C219.5,83.3,219.5,83.3,219.5,83.3c0.7,0,1.4-0.5,1.5-1.2l13.8-79.9h0c0-0.1,0-0.2,0-0.3
		c0-0.8-0.7-1.5-1.5-1.5h-12.5v0c0,0,0,0,0,0h0c-0.7,0-1.3,0.5-1.5,1.2l-13.8,79.8h0c0,0.1,0,0.2,0,0.3c0,0.8,0.7,1.5,1.5,1.5
		L219.5,83.3L219.5,83.3z"/>
	<path class="st0" d="M334.3,49.7c-2.1-0.7-4.4-1.2-6.6-1.6c-1.1-0.2-2.2-0.4-3.3-0.7c-3.2-0.7-5.6-1.8-7.6-3.5
		c-1.9-1.5-2.4-3.5-1.6-5.9c0.7-2,2-3.3,4.3-4c3.1-1.1,6-1,8.7,0.3c1.6,0.7,2.7,2.2,3.2,4.2h0c0.2,0.7,0.7,1.3,1.5,1.3l11.6,0
		c0.8,0,1.5-0.6,1.5-1.5c0-0.7-0.1-1.5-0.2-2.2c-1-4.8-3.4-8.5-7.4-10.9c-5.7-3.5-12.9-4.3-20.2-2.8c-9.4,1.9-14.5,6.4-17.1,14.3
		c-0.7,2-0.9,4.3-0.6,6.4c0.5,3.4,2.5,6.3,6.3,8.9c3.8,2.7,8.4,4.4,14.5,5.3c2.2,0.3,5,1,7.1,3.2c0.7,0.8,2.7,2.8,1.6,5.5
		c-0.9,2.1-2.4,3.7-4.5,4.6c-2.5,1.1-5.2,1.3-8.1,0.6c-3.5-0.9-4.6-4-5-6.2c-0.1-0.7-0.7-1.2-1.5-1.2h-11.7c-0.8,0-1.5,0.7-1.5,1.5
		c0,1.9,0.3,4.8,1.2,6.7c2.9,6.4,8.4,10,17.1,11c3.6,0.4,7.2,0.2,10.7-0.6c6.3-1.5,11-4.5,14.4-9c3-4,4.1-8.6,3.4-13.5
		C343.4,55,340.1,51.6,334.3,49.7"/>
	<path class="st0" d="M173.4,50.8l2.2-12.1c0-0.1,0-0.2,0-0.3c0-0.8-0.7-1.5-1.5-1.5l-24.6,0v0c-0.8,0-1.5-0.7-1.5-1.5
		c0-0.1,0-0.1,0-0.2l3.2-18.6h0c0.1-0.7,0.7-1.2,1.5-1.2h27.4c0,0,0,0,0,0c0.7,0,1.3-0.5,1.5-1.2l2.1-12c0-0.1,0-0.2,0-0.3
		c0-0.8-0.7-1.5-1.5-1.5v0l-42.5,0c-0.7,0-1.3,0.6-1.5,1.3l-13.8,79.8c0,0.1,0,0.1,0,0.2c0,0.8,0.7,1.5,1.5,1.5h12.4v0c0,0,0,0,0,0
		c0.7,0,1.3-0.5,1.5-1.2l5-28.8c0.1-0.7,0.7-1.2,1.4-1.2l25.6,0C172.6,52,173.2,51.5,173.4,50.8"/>
	<path class="st2" d="M32.2,63.3c1.3,5.3,4,9.9,9.6,9.4c3.8-0.4,6.9-3.5,8.8-6.6l2.4-3.7L70,34.1c0.2-0.3,0.4-0.4,0.8-0.4
		c0.5,0,1,0.4,1,0.9l-7.8,46.9c0,0.1,0,0.2,0,0.3c0,0.8,0.7,1.5,1.5,1.5h12.4v0c0,0,0,0,0,0c0.7,0,1.3-0.5,1.5-1.2L93.1,2.2
		c0-0.1,0-0.2,0-0.3c0-0.8-0.7-1.5-1.5-1.5H75c-0.6,0-1,0.3-1.3,0.8L46.2,48.3l0,0c-0.3,0.4-0.7,0.7-1.3,0.7c-0.7,0-1.3-0.5-1.5-1.2
		h0L33.4,1.6c-0.1-0.7-0.7-1.2-1.4-1.2v0H15.3c-0.7,0-1.3,0.5-1.5,1.2h0L0,81.5c0,0.1,0,0.2,0,0.2c0,0.8,0.7,1.5,1.5,1.5h12.4v0
		c0,0,0,0,0,0c0.7,0,1.3-0.5,1.5-1.2l7.9-45.7c0.1-0.2,0.2-0.4,0.4-0.5c0.5-0.3,1.1-0.1,1.3,0.4c0,0,0,0.1,0.1,0.1l5.6,21.4
		L32.2,63.3z"/>
	<path class="st0" d="M280.1,45.4c-0.6,0.9-1.7,1-2.9,1c0,0-23,0-24.7,0c-0.9,0-2.1,0-2.6-0.9c-0.5-0.9,0.1-2,0.6-2.9
		c3.6-6.2,8.9-9.5,15.3-9.6c6.3-0.1,11.1,3.2,14,9.3C280.3,43.4,280.7,44.5,280.1,45.4 M293.3,50.2c0-5.6-1.1-10.6-3.4-15
		s-5.5-7.8-9.6-10.2c-4.1-2.4-8.8-3.6-14-3.6c-5.9,0-11.5,1.6-16.6,4.9c-5.1,3.2-9.1,7.8-12.1,13.6c-1.8,3.6-2.9,6.6-3.4,10.1h0
		c0,0,0,0,0,0c0,0.2,0,0.4-0.1,0.5c0,0.1,0,0.2,0,0.2c-0.2,1.6-0.3,3.3-0.3,5.2c0,0.3,0,0.6,0,0.9c0,0,0,0,0,0c0,0,0,0,0,0.1h0
		c0,5.1,1.2,9.7,3.4,13.7c2.3,4,5.5,7.1,9.6,9.3c4.1,2.2,8.8,3.3,14,3.3c5.9,0,11.5-1.5,16.6-4.4c5.1-3,9.2-7.1,12.1-12.4
		c0.1-0.1,0.1-0.2,0.1-0.3c0.1-0.2,0.2-0.4,0.2-0.7c0-0.8-0.7-1.5-1.5-1.5h-13.7c-0.5,0-0.9,0.2-1.1,0.5h0c-0.9,1-1.9,1.9-3,2.9
		c-2.6,2.2-5.6,3.3-8.8,3.3c-3.7,0-7.5-1.4-9.8-4c-2.1-2.4-3.3-5.1-3.5-8.2c0-0.8,0.7-1.4,1.5-1.4h41.9c0.8,0,1.4-0.6,1.4-1.3
		c0.2-1.5,0.2-3.1,0.2-4.9h0C293.3,50.6,293.3,50.4,293.3,50.2"/>
	<path class="st0" d="M205,23.6c0.1-0.8-0.9-1.2-1.5-0.7c0,0,0,0-0.1,0c-7.1,4.1-12-0.7-12-0.7c-0.1-0.1-0.3-0.2-0.4-0.3
		c-0.5-0.4-1.3-0.1-1.4,0.6l-10.3,58.8l0,0.1c0,0,0,0,0,0l0,0.1h0c0,0,0,0.1,0,0.1c0,0.8,0.7,1.5,1.5,1.5h12.4v0c0,0,0,0,0,0
		c1.4,0,1.5-1.2,1.5-1.2L205,23.6z"/>
</g>
</svg>
