<svg viewBox="0 0 747 155" fill="none" xmlns="http://www.w3.org/2000/svg" alt="Reaktor home" class="header__LogoInner-sc-26ddfd36-2 foTxRi h-5 text-#fff"><path d="M125.841 152.823H89.7621L51.2793 95.1986H32.5521V152.823H0V0H56.6624C93.6492 0 113.204 15.9355 113.204 46.0699C113.204 66.2129 102.345 82.1083 84.0986 88.7603L125.841 152.823ZM32.5521 68.5371H52.5082C71.222 68.5371 79.5571 62.0855 79.5571 47.5926C79.5571 33.0998 71.2086 26.6481 52.5082 26.6481H32.5521V68.5238V68.5371Z" fill="currentColor"></path><path d="M178.776 155C144.287 155 122.875 133.16 122.875 98.017C122.875 62.8735 144.381 41.0341 179.003 41.0341C213.626 41.0341 234.036 61.5645 234.036 97.3625V107.421H154.158C155.027 119.322 163.001 131.838 178.79 131.838C190.117 131.838 198.078 126.455 200.642 117.051L200.776 116.557H232.66L232.5 117.359C227.785 140.935 207.708 155 178.79 155H178.776ZM154.439 85.9953H202.753C201.818 72.6111 192.414 63.3143 179.658 63.3143C164.684 63.3143 156.282 74.5746 154.439 85.9953Z" fill="currentColor"></path><path d="M283.753 155C261.031 155 245.764 141.923 245.764 122.461C245.764 104.308 258.6 92.0596 281.896 87.9722L318.041 81.3068V79.2498C318.041 68.3901 311.576 62.8869 298.833 62.8869C287.266 62.8869 281.428 67.4818 280.493 77.3396L280.44 77.9407H249.664L249.704 77.2461C250.8 53.8973 268.258 41.0341 298.846 41.0341C332.521 41.0341 348.202 54.7655 348.202 84.2588V152.809H320.018V137.381C312.057 149.069 299.875 154.987 283.766 154.987L283.753 155ZM318.041 102.973L291.954 108.062C279.772 110.092 275.257 113.645 275.257 121.152C275.257 128.111 281.455 132.266 291.834 132.266C304.457 132.266 318.041 124.411 318.041 107.18V102.973Z" fill="currentColor"></path><path d="M478.09 152.823H441.331L441.13 152.529L410.168 107.154L396.303 121.433V152.823H365.5V0H396.303V86.5697L439.233 43.2114H476.02L433.383 86.9571L478.09 152.809V152.823Z" fill="currentColor"></path><path d="M520.046 154.132C496.951 154.132 486.185 142.618 486.185 117.88V68.1098L486.399 43.8794V15.9355H516.987V43.2248H544.29V68.791H516.987V111.121C516.987 123.209 520.968 127.911 531.159 127.911C535.554 127.911 539.348 127.23 543.488 126.402L544.29 126.241V151.821L543.755 151.928C537.264 153.304 528.408 154.118 520.046 154.118V154.132Z" fill="currentColor"></path><path d="M609.541 155C574.518 155 552.759 133.16 552.759 98.017C552.759 62.8735 574.518 41.0341 609.541 41.0341C644.564 41.0341 666.537 62.8735 666.537 98.017C666.537 133.16 644.698 155 609.541 155ZM609.541 64.8504C591.348 64.8504 584.87 81.988 584.87 98.017C584.87 114.046 591.348 131.184 609.541 131.184C627.734 131.184 634.426 114.046 634.426 98.017C634.426 81.988 627.894 64.8504 609.541 64.8504Z" fill="currentColor"></path><path d="M707.838 152.823H677.036V43.2248H706.529V63.3278C713.128 48.1003 724.241 41.2612 742.114 41.2612H746.709V70.7946L746.001 70.7545C742.367 70.5408 738.614 70.3137 734.687 70.3137C717.63 70.3137 707.838 81.0531 707.838 99.7669V152.823Z" fill="currentColor"></path></svg>
