<svg width="152" height="50" viewBox="0 0 152 50" fill="none" xmlns="http://www.w3.org/2000/svg">
  <path d="M147.34 49.8616C146.534 49.8621 145.75 49.6061 145.1 49.1308L117.491 29.0227C117.018 28.6778 116.63 28.2283 116.358 27.7092C116.087 27.19 115.939 26.6152 115.926 26.0294C115.913 25.4437 116.035 24.8629 116.283 24.3321C116.531 23.8013 116.898 23.3349 117.356 22.9692L144.965 0.898139C145.755 0.267407 146.763 -0.0237977 147.767 0.0885893C148.771 0.200976 149.69 0.707749 150.321 1.49742C150.952 2.28709 151.243 3.29498 151.13 4.29935C151.018 5.30373 150.511 6.22233 149.721 6.85306L126.01 25.8081L149.589 42.9778C150.24 43.4512 150.723 44.1182 150.971 44.8833C151.219 45.6484 151.218 46.4724 150.969 47.2371C150.72 48.0017 150.235 48.6679 149.584 49.1402C148.933 49.6124 148.149 49.8665 147.345 49.866" fill="currentColor"></path>
  <path d="M87.5619 7.68085H3.74477C2.74582 7.664 1.7935 7.25535 1.09302 6.54296C0.39254 5.83057 0 4.87149 0 3.87241C0 2.87333 0.39254 1.91424 1.09302 1.20185C1.7935 0.489462 2.74582 0.0808086 3.74477 0.0639648H87.5619C88.5608 0.0808086 89.5132 0.489462 90.2136 1.20185C90.9141 1.91424 91.3066 2.87333 91.3066 3.87241C91.3066 4.87149 90.9141 5.83057 90.2136 6.54296C89.5132 7.25535 88.5608 7.664 87.5619 7.68085Z" fill="currentColor"></path>
  <path d="M34.1841 50.0002C32.0804 50.0002 30.3762 48.3664 30.3762 46.3525V24.655C30.3762 22.6401 32.0804 21.0073 34.1841 21.0073C36.2878 21.0073 37.9931 22.6401 37.9931 24.655V46.3525C37.9931 48.3664 36.2878 50.0002 34.1841 50.0002Z" fill="currentColor"></path>
  <path d="M106.636 49.8603C106.136 49.8605 105.641 49.7621 105.179 49.5708C104.717 49.3795 104.297 49.099 103.943 48.7453C103.59 48.3917 103.309 47.9719 103.118 47.5098C102.926 47.0478 102.828 46.5525 102.828 46.0524V3.8732C102.82 3.36766 102.912 2.86549 103.099 2.39596C103.287 1.92644 103.566 1.49895 103.921 1.13843C104.275 0.777909 104.698 0.491572 105.164 0.296117C105.63 0.100662 106.131 0 106.637 0C107.142 0 107.643 0.100662 108.109 0.296117C108.575 0.491572 108.998 0.777909 109.353 1.13843C109.707 1.49895 109.986 1.92644 110.174 2.39596C110.361 2.86549 110.454 3.36766 110.445 3.8732V46.0524C110.445 46.5526 110.347 47.0478 110.155 47.5099C109.964 47.972 109.683 48.3918 109.329 48.7454C108.976 49.099 108.556 49.3795 108.094 49.5708C107.632 49.7621 107.136 49.8605 106.636 49.8603Z" fill="currentColor"></path>
  <path d="M87.562 29.1262H55.6447C55.1392 29.1347 54.637 29.0425 54.1674 28.855C53.6979 28.6674 53.2704 28.3882 52.9099 28.0337C52.5494 27.6792 52.2631 27.2565 52.0676 26.7902C51.8722 26.3239 51.7715 25.8234 51.7715 25.3178C51.7715 24.8122 51.8722 24.3116 52.0676 23.8453C52.2631 23.379 52.5494 22.9563 52.9099 22.6018C53.2704 22.2473 53.6979 21.9681 54.1674 21.7806C54.637 21.593 55.1392 21.5008 55.6447 21.5093H87.562C88.5609 21.5262 89.5132 21.9348 90.2137 22.6472C90.9142 23.3596 91.3067 24.3187 91.3067 25.3178C91.3067 26.3169 90.9142 27.2759 90.2137 27.9883C89.5132 28.7007 88.5609 29.1094 87.562 29.1262Z" fill="currentColor"></path>
  <path d="M87.562 49.8601H55.6447C55.1392 49.8686 54.637 49.7764 54.1674 49.5889C53.6979 49.4013 53.2704 49.1221 52.9099 48.7676C52.5494 48.4131 52.2631 47.9904 52.0676 47.5241C51.8722 47.0578 51.7715 46.5573 51.7715 46.0517C51.7715 45.5461 51.8722 45.0455 52.0676 44.5792C52.2631 44.1129 52.5494 43.6902 52.9099 43.3357C53.2704 42.9812 53.6979 42.702 54.1674 42.5145C54.637 42.3269 55.1392 42.2347 55.6447 42.2432H87.562C88.5609 42.2601 89.5132 42.6687 90.2137 43.3811C90.9142 44.0935 91.3067 45.0526 91.3067 46.0517C91.3067 47.0507 90.9142 48.0098 90.2137 48.7222C89.5132 49.4346 88.5609 49.8433 87.562 49.8601Z" fill="currentColor"></path>
</svg>
