<?xml version="1.0" encoding="UTF-8"?><svg xmlns="http://www.w3.org/2000/svg" width="706.547" height="692.458" viewBox="0 0 706.547 692.458"><defs><style>.c{fill:#050505;}.d{fill:#d40029;}</style></defs><g id="a"><path class="c" d="M617.977,362.083c.974-9.585,1.473-19.31,1.473-29.152s-.499-19.566-1.473-29.151l-37.387-9.357c-2.786-17.749-7.441-34.875-13.755-51.178l27.763-26.859c-8.019-17.874-17.835-34.764-29.203-50.458l-37.17,10.622c-11.108-13.755-23.642-26.307-37.381-37.434l10.61-37.128c-15.694-11.369-32.584-21.184-50.459-29.204l-26.746,27.647c-16.351-6.362-33.535-11.051-51.346-13.862l-9.302-37.163c-9.585-.974-19.311-1.473-29.152-1.473s-19.567.499-29.152,1.473l-9.234,36.896c-17.986,2.711-35.337,7.349-51.852,13.677l-26.308-27.193c-17.874,8.02-34.764,17.835-50.458,29.204l10.305,36.062c-14.133,11.287-27.012,24.074-38.401,38.122l-35.845-10.243c-11.368,15.693-21.184,32.583-29.204,50.458l26.572,25.707c-6.592,16.776-11.42,34.438-14.263,52.756l-35.688,8.933c-.974,9.584-1.473,19.31-1.473,29.151s.499,19.567,1.473,29.153l35.51,8.888c2.772,18.438,7.562,36.213,14.129,53.1l-26.261,25.406c8.02,17.874,17.835,34.764,29.204,50.457l35.114-10.034c11.499,14.318,24.538,27.342,38.873,38.82l-10.046,35.155c15.693,11.368,32.583,21.184,50.458,29.203l25.519-26.377c16.839,6.518,34.556,11.27,52.931,14.018l8.945,35.738c9.585.974,19.311,1.473,29.152,1.473s19.567-.499,29.152-1.473l9.01-35.999c18.201-2.85,35.753-7.656,52.428-14.21l25.956,26.83c17.875-8.021,34.765-17.835,50.458-29.204l-10.351-36.221c13.939-11.319,26.635-24.107,37.852-38.132l36.439,10.413c11.368-15.694,21.184-32.584,29.204-50.458l-27.452-26.559c6.29-16.416,10.914-33.656,13.632-51.526l37.199-9.31ZM334.45,532.931c-110.458,0-200-89.543-200-200s89.543-199.999,200-199.999,200,89.543,200,199.999-89.543,200-200,200Z"/><path class="d" d="M526.583,320.801h-.01l-48.03,3.02c-.77-12.34-3.08-24.25-6.75-35.56-3.77-11.63-8.99-22.61-15.43-32.74l40.62-25.78.02-.01c8.59,13.5,15.54,28.15,20.58,43.66,4.89,15.07,7.98,30.96,9,47.41Z"/><path class="d" d="M508.673,414.871c-6.93,14.69-15.65,28.35-25.89,40.72l-37.08-30.68c7.68-9.27,14.22-19.53,19.41-30.54l43.52,20.48.04.02Z"/><path class="d" d="M478.823,332.891c0,9.25-.87,18.3-2.53,27.06l-7.08-1.35v-.01c1.57-8.32,2.4-16.92,2.4-25.7,0-2.89-.09-5.76-.27-8.61l7.2-.46c.19,3,.28,6.02.28,9.07Z"/><path class="d" d="M471.343,324.281l-47.91,3.01c-.46-7.62-1.89-14.98-4.16-21.96l45.66-14.84c3.49,10.74,5.69,22.07,6.41,33.79Z"/><path class="d" d="M456.363,255.521l-6.09,3.86c-6.19-9.73-13.57-18.62-21.93-26.48l4.94-5.26c8.81,8.27,16.57,17.64,23.08,27.88Z"/><path class="d" d="M440.143,420.311c-7.33,8.86-15.76,16.78-25.07,23.54-9.23,6.73-19.34,12.33-30.12,16.6-10.53,4.17-21.69,7.07-33.31,8.52-5.63.71-11.37,1.07-17.19,1.07s-11.56-.36-17.19-1.07c-11.62-1.45-22.79-4.36-33.32-8.53-10.78-4.27-20.88-9.86-30.11-16.59-9.31-6.76-17.74-14.68-25.07-23.54-7.3-8.81-13.52-18.55-18.45-29.01-4.84-10.27-8.44-21.23-10.62-32.7v-.01c-1.57-8.32-2.4-16.92-2.4-25.7,0-2.89.09-5.76.27-8.61.72-11.72,2.92-23.05,6.41-33.79l45.66,14.84c-2.27,6.98-3.7,14.34-4.16,21.96-.12,1.85-.18,3.71-.18,5.59,0,5.72.54,11.31,1.57,16.72,1.41,7.46,3.75,14.59,6.91,21.26,3.2,6.8,7.24,13.13,11.99,18.85,4.76,5.76,10.24,10.91,16.29,15.3,6,4.38,12.57,8.01,19.57,10.78,6.84,2.72,14.1,4.61,21.65,5.55h.01c3.66.46,7.39.7,11.17.7s7.51-.24,11.17-.7c7.55-.94,14.81-2.82,21.65-5.54,7.01-2.77,13.58-6.41,19.58-10.79,6.05-4.39,11.53-9.54,16.29-15.3l37,30.6Z"/><path class="d" d="M427.203,164.181l-.01.02-23.17,42.15c-10.49-5.78-21.78-10.3-33.66-13.33l11.96-46.59.01-.04c15.83,4.06,30.88,10.07,44.87,17.79Z"/><path class="d" d="M405.333,511.921c-14.77,5.85-30.45,9.93-46.76,11.97-7.9.99-15.95,1.5-24.12,1.5s-16.22-.51-24.13-1.5c-16.31-2.04-31.98-6.12-46.76-11.97l.02-.05,17.7-44.71h.01c11.08,4.39,22.83,7.45,35.06,8.98,5.93.74,11.97,1.12,18.1,1.12s12.16-.38,18.09-1.12c12.23-1.53,23.99-4.59,35.07-8.98l17.7,44.71.02.05Z"/><path class="d" d="M428.343,232.901l-32.86,34.99c-5.43-5.1-11.49-9.53-18.07-13.14-6.48-3.57-13.44-6.36-20.78-8.23v-.01c-7.09-1.81-14.52-2.78-22.18-2.78s-15.09.97-22.18,2.79c-7.34,1.87-14.3,4.66-20.78,8.23-6.58,3.61-12.64,8.04-18.07,13.15-5.44,5.1-10.24,10.88-14.26,17.21l-40.53-25.72c6.18-9.73,13.56-18.62,21.92-26.49,8.35-7.84,17.69-14.66,27.81-20.23,9.97-5.49,20.69-9.78,31.97-12.66,10.91-2.8,22.34-4.28,34.12-4.28s23.2,1.48,34.11,4.28h.01c11.28,2.88,22,7.17,31.97,12.66,10.11,5.57,19.45,12.38,27.8,20.23Z"/><path class="d" d="M298.533,193.021c-11.88,3.03-23.16,7.55-33.65,13.33-10.65,5.86-20.47,13.03-29.26,21.3-8.81,8.26-16.58,17.63-23.09,27.87-6.44,10.13-11.65,21.11-15.43,32.74l-45.73-14.86-.05-.01c5.04-15.51,11.99-30.16,20.58-43.66,8.68-13.65,19.03-26.14,30.77-37.17,11.72-11.01,24.82-20.57,39.02-28.39,13.98-7.7,29.03-13.72,44.87-17.78l.01.04,11.96,46.59Z"/><path class="d" d="M203.793,394.371l-43.52,20.48-.04.02c-6.79-14.41-11.85-29.81-14.91-45.91h.03l47.25-9.01c2.29,12.07,6.08,23.61,11.19,34.42Z"/><path d="M526.583,320.801h-.01l-48.03,3.02c-.77-12.34-3.08-24.25-6.75-35.56-3.77-11.63-8.99-22.61-15.43-32.74l40.62-25.78.02-.01c8.59,13.5,15.54,28.15,20.58,43.66,4.89,15.07,7.98,30.96,9,47.41Z"/><path d="M508.673,414.871c-6.93,14.69-15.65,28.35-25.89,40.72l-37.08-30.68c7.68-9.27,14.22-19.53,19.41-30.54l43.52,20.48.04.02Z"/><path d="M478.823,332.891c0,9.25-.87,18.3-2.53,27.06l-7.08-1.35v-.01c1.57-8.32,2.4-16.92,2.4-25.7,0-2.89-.09-5.76-.27-8.61l7.2-.46c.19,3,.28,6.02.28,9.07Z"/><path d="M471.343,324.281l-47.91,3.01c-.46-7.62-1.89-14.98-4.16-21.96l45.66-14.84c3.49,10.74,5.69,22.07,6.41,33.79Z"/><path d="M456.363,255.521l-6.09,3.86c-6.19-9.73-13.57-18.62-21.93-26.48l4.94-5.26c8.81,8.27,16.57,17.64,23.08,27.88Z"/><path d="M440.143,420.311c-7.33,8.86-15.76,16.78-25.07,23.54-9.23,6.73-19.34,12.33-30.12,16.6-10.53,4.17-21.69,7.07-33.31,8.52-5.63.71-11.37,1.07-17.19,1.07s-11.56-.36-17.19-1.07c-11.62-1.45-22.79-4.36-33.32-8.53-10.78-4.27-20.88-9.86-30.11-16.59-9.31-6.76-17.74-14.68-25.07-23.54-7.3-8.81-13.52-18.55-18.45-29.01-4.84-10.27-8.44-21.23-10.62-32.7v-.01c-1.57-8.32-2.4-16.92-2.4-25.7,0-2.89.09-5.76.27-8.61.72-11.72,2.92-23.05,6.41-33.79l45.66,14.84c-2.27,6.98-3.7,14.34-4.16,21.96-.12,1.85-.18,3.71-.18,5.59,0,5.72.54,11.31,1.57,16.72,1.41,7.46,3.75,14.59,6.91,21.26,3.2,6.8,7.24,13.13,11.99,18.85,4.76,5.76,10.24,10.91,16.29,15.3,6,4.38,12.57,8.01,19.57,10.78,6.84,2.72,14.1,4.61,21.65,5.55h.01c3.66.46,7.39.7,11.17.7s7.51-.24,11.17-.7c7.55-.94,14.81-2.82,21.65-5.54,7.01-2.77,13.58-6.41,19.58-10.79,6.05-4.39,11.53-9.54,16.29-15.3l37,30.6Z"/><path d="M427.203,164.181l-.01.02-23.17,42.15c-10.49-5.78-21.78-10.3-33.66-13.33l11.96-46.59.01-.04c15.83,4.06,30.88,10.07,44.87,17.79Z"/><path d="M405.333,511.921c-14.77,5.85-30.45,9.93-46.76,11.97-7.9.99-15.95,1.5-24.12,1.5s-16.22-.51-24.13-1.5c-16.31-2.04-31.98-6.12-46.76-11.97l.02-.05,17.7-44.71h.01c11.08,4.39,22.83,7.45,35.06,8.98,5.93.74,11.97,1.12,18.1,1.12s12.16-.38,18.09-1.12c12.23-1.53,23.99-4.59,35.07-8.98l17.7,44.71.02.05Z"/><path d="M428.343,232.901l-32.86,34.99c-5.43-5.1-11.49-9.53-18.07-13.14-6.48-3.57-13.44-6.36-20.78-8.23v-.01c-7.09-1.81-14.52-2.78-22.18-2.78s-15.09.97-22.18,2.79c-7.34,1.87-14.3,4.66-20.78,8.23-6.58,3.61-12.64,8.04-18.07,13.15-5.44,5.1-10.24,10.88-14.26,17.21l-40.53-25.72c6.18-9.73,13.56-18.62,21.92-26.49,8.35-7.84,17.69-14.66,27.81-20.23,9.97-5.49,20.69-9.78,31.97-12.66,10.91-2.8,22.34-4.28,34.12-4.28s23.2,1.48,34.11,4.28h.01c11.28,2.88,22,7.17,31.97,12.66,10.11,5.57,19.45,12.38,27.8,20.23Z"/><path d="M298.533,193.021c-11.88,3.03-23.16,7.55-33.65,13.33-10.65,5.86-20.47,13.03-29.26,21.3-8.81,8.26-16.58,17.63-23.09,27.87-6.44,10.13-11.65,21.11-15.43,32.74l-45.73-14.86-.05-.01c5.04-15.51,11.99-30.16,20.58-43.66,8.68-13.65,19.03-26.14,30.77-37.17,11.72-11.01,24.82-20.57,39.02-28.39,13.98-7.7,29.03-13.72,44.87-17.78l.01.04,11.96,46.59Z"/><path d="M203.793,394.371l-43.52,20.48-.04.02c-6.79-14.41-11.85-29.81-14.91-45.91h.03l47.25-9.01c2.29,12.07,6.08,23.61,11.19,34.42Z"/></g><g id="b"><path d="M268.388,326.964v-6.5c.266.134.683.185,1.25.15.565-.033,1.166-.1,1.8-.2.633-.1,1.233-.233,1.8-.4.565-.166.95-.35,1.15-.55s.383-.583.55-1.15c.166-.566.3-1.166.4-1.8.1-.633.166-1.232.2-1.8.033-.565-.017-.983-.15-1.25h6v34h-6.5v-20.5h-6.5Z"/><path d="M310.387,340.964v-7h-27v-20.5h34v34h-34v-6.5h27ZM290.387,326.464h20v-6h-20v6Z"/><path d="M325.386,341.464v6h-6v-6h6Z"/><path d="M361.385,313.464v34h-34v-34h34ZM334.385,326.464h20v-6h-20v6ZM334.385,340.464h20v-6h-20v6Z"/><path d="M390.383,340.964v-7h-27v-20.5h34v6.5h-27v7h27v20.5h-34v-6.5h27Z"/></g></svg>

