<?xml version="1.0" encoding="UTF-8"?>
<svg xmlns="http://www.w3.org/2000/svg" version="1.1" viewBox="0 0 574 574">
  <defs>
    <style>
      .cls-1 {
        fill: #050505;
      }

      .cls-2 {
        fill: #d40029;
      }

      .cls-3 {
        fill: none;
        stroke: #000;
        stroke-width: 4px;
      }
    </style>
  </defs>
  <!-- Generator: Adobe Illustrator 28.6.0, SVG Export Plug-In . SVG Version: 1.2.0 Build 709)  -->
  <g>
    <g id="Layer_1">
      <g>
        <path class="cls-1" d="M570.5,316.2c1-9.6,1.5-19.3,1.5-29.2s-.5-19.6-1.5-29.2l-37.4-9.4c-2.8-17.7-7.4-34.9-13.8-51.2l27.8-26.9c-8-17.9-17.8-34.8-29.2-50.5l-37.2,10.6c-11.1-13.8-23.6-26.3-37.4-37.4l10.6-37.1c-15.7-11.4-32.6-21.2-50.5-29.2l-26.7,27.6c-16.4-6.4-33.5-11.1-51.3-13.9l-9.3-37.2c-9.6-1-19.3-1.5-29.2-1.5s-19.6.5-29.2,1.5l-9.2,36.9c-18,2.7-35.3,7.3-51.9,13.7l-26.3-27.2c-17.9,8-34.8,17.8-50.5,29.2l10.3,36.1c-14.1,11.3-27,24.1-38.4,38.1l-35.8-10.2c-11.4,15.7-21.2,32.6-29.2,50.5l26.6,25.7c-6.6,16.8-11.4,34.4-14.3,52.8l-35.7,8.9c-1,9.6-1.5,19.3-1.5,29.2s.5,19.6,1.5,29.2l35.5,8.9c2.8,18.4,7.6,36.2,14.1,53.1l-26.3,25.4c8,17.9,17.8,34.8,29.2,50.5l35.1-10c11.5,14.3,24.5,27.3,38.9,38.8l-10,35.2c15.7,11.4,32.6,21.2,50.5,29.2l25.5-26.4c16.8,6.5,34.6,11.3,52.9,14l8.9,35.7c9.6,1,19.3,1.5,29.2,1.5s19.6-.5,29.2-1.5l9-36c18.2-2.8,35.8-7.7,52.4-14.2l26,26.8c17.9-8,34.8-17.8,50.5-29.2l-10.4-36.2c13.9-11.3,26.6-24.1,37.9-38.1l36.4,10.4c11.4-15.7,21.2-32.6,29.2-50.5l-27.5-26.6c6.3-16.4,10.9-33.7,13.6-51.5l37.2-9.3h0ZM287,487c-110.5,0-200-89.5-200-200s89.5-200,200-200,200,89.5,200,200-89.5,200-200,200Z"/>
        <path class="cls-3" d="M570.5,316.2c1-9.6,1.5-19.3,1.5-29.2s-.5-19.6-1.5-29.2l-37.4-9.4c-2.8-17.7-7.4-34.9-13.8-51.2l27.8-26.9c-8-17.9-17.8-34.8-29.2-50.5l-37.2,10.6c-11.1-13.8-23.6-26.3-37.4-37.4l10.6-37.1c-15.7-11.4-32.6-21.2-50.5-29.2l-26.7,27.6c-16.4-6.4-33.5-11.1-51.3-13.9l-9.3-37.2c-9.6-1-19.3-1.5-29.2-1.5s-19.6.5-29.2,1.5l-9.2,36.9c-18,2.7-35.3,7.3-51.9,13.7l-26.3-27.2c-17.9,8-34.8,17.8-50.5,29.2l10.3,36.1c-14.1,11.3-27,24.1-38.4,38.1l-35.8-10.2c-11.4,15.7-21.2,32.6-29.2,50.5l26.6,25.7c-6.6,16.8-11.4,34.4-14.3,52.8l-35.7,8.9c-1,9.6-1.5,19.3-1.5,29.2s.5,19.6,1.5,29.2l35.5,8.9c2.8,18.4,7.6,36.2,14.1,53.1l-26.3,25.4c8,17.9,17.8,34.8,29.2,50.5l35.1-10c11.5,14.3,24.5,27.3,38.9,38.8l-10,35.2c15.7,11.4,32.6,21.2,50.5,29.2l25.5-26.4c16.8,6.5,34.6,11.3,52.9,14l8.9,35.7c9.6,1,19.3,1.5,29.2,1.5s19.6-.5,29.2-1.5l9-36c18.2-2.8,35.8-7.7,52.4-14.2l26,26.8c17.9-8,34.8-17.8,50.5-29.2l-10.4-36.2c13.9-11.3,26.6-24.1,37.9-38.1l36.4,10.4c11.4-15.7,21.2-32.6,29.2-50.5l-27.5-26.6c6.3-16.4,10.9-33.7,13.6-51.5l37.2-9.3h0ZM287,487c-110.5,0-200-89.5-200-200s89.5-200,200-200,200,89.5,200,200-89.5,200-200,200Z"/>
      </g>
      <g id="Layer_6">
        <path class="cls-2" d="M479.1,274.9h0l-48,3c-.8-12.3-3.1-24.2-6.8-35.6-3.8-11.6-9-22.6-15.4-32.7l40.6-25.8h0c8.6,13.5,15.5,28.1,20.6,43.6,4.9,15.1,8,31,9,47.4Z"/>
        <path class="cls-2" d="M461.2,368.9c-6.9,14.7-15.7,28.4-25.9,40.7l-37.1-30.7c7.7-9.3,14.2-19.5,19.4-30.5l43.5,20.5h0s0,0,0,0Z"/>
        <path class="cls-2" d="M431.4,287c0,9.2-.9,18.3-2.5,27.1l-7.1-1.4h0c1.6-8.3,2.4-16.9,2.4-25.7s0-5.8-.3-8.6l7.2-.5c.2,3,.3,6,.3,9.1Z"/>
        <path class="cls-2" d="M423.9,278.4l-47.9,3c-.5-7.6-1.9-15-4.2-22l45.7-14.8c3.5,10.7,5.7,22.1,6.4,33.8h0Z"/>
        <path class="cls-2" d="M408.9,209.6l-6.1,3.9c-6.2-9.7-13.6-18.6-21.9-26.5l4.9-5.3c8.8,8.3,16.6,17.6,23.1,27.9h0Z"/>
        <path class="cls-2" d="M392.7,374.4c-7.3,8.9-15.8,16.8-25.1,23.5-9.2,6.7-19.3,12.3-30.1,16.6-10.5,4.2-21.7,7.1-33.3,8.5-5.6.7-11.4,1.1-17.2,1.1s-11.6-.4-17.2-1.1c-11.6-1.5-22.8-4.4-33.3-8.5-10.8-4.3-20.9-9.9-30.1-16.6-9.3-6.8-17.7-14.7-25.1-23.5-7.3-8.8-13.5-18.5-18.5-29-4.8-10.3-8.4-21.2-10.6-32.7h0c-1.6-8.3-2.4-16.9-2.4-25.7s0-5.8.3-8.6c.7-11.7,2.9-23,6.4-33.8l45.7,14.8c-2.3,7-3.7,14.3-4.2,22-.1,1.9-.2,3.7-.2,5.6,0,5.7.5,11.3,1.6,16.7,1.4,7.5,3.8,14.6,6.9,21.3,3.2,6.8,7.2,13.1,12,18.9,4.8,5.8,10.2,10.9,16.3,15.3,6,4.4,12.6,8,19.6,10.8,6.8,2.7,14.1,4.6,21.6,5.5h0c3.7.5,7.4.7,11.2.7s7.5-.2,11.2-.7c7.5-.9,14.8-2.8,21.6-5.5,7-2.8,13.6-6.4,19.6-10.8,6-4.4,11.5-9.5,16.3-15.3l37,30.6h0Z"/>
        <path class="cls-2" d="M379.8,118.3h0s-23.2,42.2-23.2,42.2c-10.5-5.8-21.8-10.3-33.7-13.3l12-46.6h0c15.8,4,30.9,10,44.9,17.8h0Z"/>
        <path class="cls-2" d="M357.9,466c-14.8,5.8-30.5,9.9-46.8,12-7.9,1-16,1.5-24.1,1.5s-16.2-.5-24.1-1.5c-16.3-2-32-6.1-46.8-12h0s17.7-44.8,17.7-44.8h0c11.1,4.4,22.8,7.5,35.1,9,5.9.7,12,1.1,18.1,1.1s12.2-.4,18.1-1.1c12.2-1.5,24-4.6,35.1-9l17.7,44.7h0Z"/>
        <path class="cls-2" d="M380.9,187l-32.9,35c-5.4-5.1-11.5-9.5-18.1-13.1-6.5-3.6-13.4-6.4-20.8-8.2h0c-7.1-1.8-14.5-2.8-22.2-2.8s-15.1,1-22.2,2.8c-7.3,1.9-14.3,4.7-20.8,8.2-6.6,3.6-12.6,8-18.1,13.1-5.4,5.1-10.2,10.9-14.3,17.2l-40.5-25.7c6.2-9.7,13.6-18.6,21.9-26.5,8.4-7.8,17.7-14.7,27.8-20.2,10-5.5,20.7-9.8,32-12.7,10.9-2.8,22.3-4.3,34.1-4.3s23.2,1.5,34.1,4.3h0c11.3,2.9,22,7.2,32,12.7,10.1,5.6,19.5,12.4,27.8,20.2h0Z"/>
        <path class="cls-2" d="M251.1,147.1c-11.9,3-23.2,7.5-33.6,13.3-10.6,5.9-20.5,13-29.3,21.3-8.8,8.3-16.6,17.6-23.1,27.9-6.4,10.1-11.6,21.1-15.4,32.7l-45.7-14.9h0c5-15.5,12-30.2,20.6-43.7,8.7-13.6,19-26.1,30.8-37.2,11.7-11,24.8-20.6,39-28.4,14-7.7,29-13.7,44.9-17.8h0s12,46.6,12,46.6h0Z"/>
        <path class="cls-2" d="M156.3,348.4l-43.5,20.5h0c-6.8-14.4-11.9-29.8-14.9-45.9h0l47.2-9c2.3,12.1,6.1,23.6,11.2,34.4h0Z"/>
        <g id="Layer_5">
          <g>
            <path class="cls-2" d="M220.9,281v-6.5c.3.1.7.2,1.2.1.6,0,1.2-.1,1.8-.2.6-.1,1.2-.2,1.8-.4.6-.2,1-.4,1.1-.5s.4-.6.5-1.1c.2-.6.3-1.2.4-1.8.1-.6.2-1.2.2-1.8,0-.6,0-1-.1-1.2h6v34h-6.5v-20.5h-6.5,0Z"/>
            <path class="cls-2" d="M262.9,295v-7h-27v-20.5h34v34h-34v-6.5h27ZM242.9,280.5h20v-6h-20v6Z"/>
            <path class="cls-2" d="M277.9,295.5v6h-6v-6h6Z"/>
            <path class="cls-2" d="M313.9,267.5v34h-34v-34h34ZM286.9,280.5h20v-6h-20v6ZM286.9,294.5h20v-6h-20v6Z"/>
            <path class="cls-2" d="M342.9,295v-7h-27v-20.5h34v6.5h-27v7h27v20.5h-34v-6.5h27Z"/>
          </g>
        </g>
      </g>
    </g>
  </g>
</svg>