<?xml version="1.0" encoding="utf-8"?>
<!-- Generator: Adobe Illustrator 29.7.1, SVG Export Plug-In . SVG Version: 9.03 Build 0)  -->
<svg version="1.1" id="Layer_1" xmlns="http://www.w3.org/2000/svg" xmlns:xlink="http://www.w3.org/1999/xlink" x="0px" y="0px"
	 width="570.00214px" height="570.00311px" viewBox="0 0 570.00214 570.00311" enable-background="new 0 0 570.00214 570.00311"
	 xml:space="preserve">
<g id="a">
	<path fill="#050505" d="M568.52911,314.14999c0.974-9.58499,1.47302-19.31,1.47302-29.15201s-0.49902-19.56601-1.47302-29.15099
		l-37.38702-9.35699c-2.78601-17.74899-7.44098-34.875-13.755-51.17801l27.763-26.85899
		c-8.01898-17.87401-17.83502-34.76399-29.203-50.45799L478.7771,128.617c-11.10797-13.755-23.642-26.30699-37.38101-37.43401
		l10.60999-37.128c-15.694-11.369-32.58401-21.184-50.45901-29.204l-26.746,27.647c-16.35101-6.362-33.535-11.051-51.34601-13.862
		l-9.302-37.163C304.56805,0.499,294.84204,0,285.00104,0s-19.56699,0.499-29.15201,1.473l-9.23401,36.896
		c-17.98599,2.711-35.33701,7.349-51.85201,13.677l-26.308-27.193c-17.87399,8.02-34.76401,17.835-50.45801,29.204L128.302,90.119
		c-14.133,11.287-27.01199,24.07401-38.401,38.12201l-35.845-10.243c-11.368,15.69299-21.184,32.58299-29.204,50.45799
		l26.572,25.707c-6.592,16.776-11.42,34.43799-14.263,52.75601l-35.688,8.93301C0.499,265.436,0,275.16202,0,285.00302
		s0.499,19.56699,1.473,29.15302l35.51,8.888c2.772,18.43799,7.562,36.21301,14.129,53.10001l-26.261,25.40601
		c8.02,17.87399,17.835,34.76401,29.204,50.457l35.11399-10.034c11.49899,14.31799,24.53799,27.34198,38.873,38.82001
		l-10.04601,35.15506c15.69299,11.36798,32.58299,21.18402,50.45799,29.203l25.519-26.37701
		c16.839,6.51801,34.55602,11.27002,52.93102,14.01801l8.94501,35.73798c9.58499,0.974,19.311,1.47302,29.15201,1.47302
		s19.56699-0.49902,29.15201-1.47302l9.01001-35.99902c18.20099-2.84998,35.75299-7.65601,52.42801-14.21002l25.95599,26.83002
		c17.875-8.021,34.76498-17.83502,50.45801-29.20398l-10.35101-36.22104c13.939-11.31897,26.63498-24.10699,37.85202-38.13199
		l36.43903,10.41299c11.36798-15.694,21.18402-32.58398,29.20398-50.45801l-27.45203-26.55899
		c6.28998-16.41599,10.914-33.65601,13.63202-51.526l37.19897-9.31L568.52911,314.14999z M285.00214,484.99802
		c-110.45801,0-200-89.543-200-200s89.543-199.99898,200-199.99898s200,89.543,200,199.99898
		S395.45914,484.99802,285.00214,484.99802z"/>
	<path fill="#D40029" d="M477.13513,272.86798h-0.01001l-48.03,3.01999c-0.76999-12.34-3.07999-24.24998-6.75-35.55998
		c-3.76999-11.63-8.98999-22.60999-15.42999-32.74001l40.62-25.78l0.01999-0.00999c8.59,13.5,15.53998,28.14999,20.58002,43.66
		C473.02515,240.528,476.11511,256.41797,477.13513,272.86798z"/>
	<path fill="#D40029" d="M459.22513,366.93799c-6.92999,14.69-15.64999,28.35001-25.88998,40.72L396.25513,376.978
		c7.67999-9.26999,14.22-19.53,19.41-30.54001l43.51999,20.48001L459.22513,366.93799z"/>
	<path fill="#D40029" d="M429.37512,284.95798c0,9.25-0.87,18.29999-2.53,27.06l-7.07999-1.35001v-0.01001
		c1.57001-8.32001,2.39999-16.92001,2.39999-25.70001c0-2.89001-0.09-5.76001-0.26999-8.60999l7.20001-0.45999
		c0.19,3,0.28,6.01999,0.28,9.07001H429.37512z"/>
	<path fill="#D40029" d="M421.89511,276.34799l-47.91,3.01001c-0.45999-7.62-1.89001-14.98001-4.16-21.95999l45.66-14.83998
		c3.48999,10.73999,5.69,22.06999,6.41,33.78999V276.34799z"/>
	<path fill="#D40029" d="M406.91513,207.588l-6.09,3.85999c-6.19-9.73-13.57001-18.62-21.92999-26.48l4.94-5.25999
		C392.64514,187.978,400.40515,197.34799,406.91513,207.588z"/>
	<path fill="#D40029" d="M390.69513,372.37799c-7.32999,8.85999-15.76001,16.78-25.07001,23.54001
		c-9.23001,6.73001-19.34,12.32999-30.12,16.60001c-10.53,4.17001-21.69,7.07001-33.31,8.51999
		c-5.63,0.70999-11.37,1.07001-17.19,1.07001s-11.56-0.35999-17.19-1.07001c-11.62-1.45001-22.79001-4.35999-33.32001-8.53
		c-10.78-4.26999-20.88-9.85999-30.11-16.59c-9.31-6.76001-17.74001-14.67999-25.06999-23.54001
		c-7.3-8.81-13.52-18.54999-18.45-29.01001c-4.84-10.26999-8.44-21.23001-10.62-32.70001v-0.01001
		c-1.57001-8.32001-2.39999-16.92001-2.39999-25.70001c0-2.89001,0.09-5.76001,0.27-8.60999c0.72-11.72,2.92-23.04997,6.41-33.78999
		l45.66,14.83998c-2.27,6.98001-3.7,14.34-4.16,21.95999c-0.12,1.85001-0.17999,3.70999-0.17999,5.59
		c0,5.72,0.53999,11.31,1.57001,16.72c1.41,7.45999,3.75,14.59,6.91,21.26001c3.20001,6.79999,7.23999,13.13,11.98999,18.85001
		c4.76001,5.76001,10.23999,10.91,16.29001,15.29999c6,4.38,12.57001,8.01001,19.57001,10.78
		c6.84,2.72,14.10001,4.60999,21.64999,5.54999h0.01001c3.66,0.45999,7.39001,0.70001,11.17001,0.70001
		s7.51001-0.23999,11.17001-0.70001c7.54999-0.94,14.81-2.82001,21.64999-5.54001c7.01001-2.76999,13.57999-6.41,19.57999-10.79001
		c6.04999-4.39001,11.53-9.54001,16.29001-15.29999l37,30.60001L390.69513,372.37799z"/>
	<path fill="#D40029" d="M377.75513,116.248l-0.01001,0.02l-23.17001,42.15001c-10.48999-5.78-21.78-10.3-33.66-13.33
		l11.95999-46.59l0.01001-0.03999c15.82999,4.06,30.88,10.07001,44.87,17.79001L377.75513,116.248z"/>
	<path fill="#D40029" d="M355.88513,463.98798c-14.76999,5.85001-30.45001,9.93002-46.76001,11.97
		c-7.89999,0.98999-15.95001,1.5-24.12,1.5s-16.22-0.51001-24.13-1.5c-16.31-2.03998-31.98001-6.12-46.76001-11.97l0.01999-0.04999
		l17.70001-44.70999h0.01001c11.07999,4.39001,22.82999,7.45001,35.06,8.98001c5.92999,0.73999,11.97,1.12,18.10001,1.12
		s12.16-0.38,18.09-1.12c12.23001-1.53,23.98999-4.59,35.07001-8.98001l17.70001,44.70999L355.88513,463.98798z"/>
	<path fill="#D40029" d="M378.89511,184.968l-32.86002,34.98999c-5.42999-5.10001-11.48999-9.53-18.07001-13.14
		c-6.48001-3.57001-13.44-6.36-20.78-8.23V198.578c-7.09-1.81-14.51999-2.78-22.17999-2.78s-15.09,0.97-22.17999,2.78999
		c-7.34,1.87-14.29999,4.66-20.78,8.23c-6.57999,3.61-12.64001,8.03999-18.07001,13.15001
		c-5.44,5.10001-10.23999,10.88-14.26001,17.20999l-40.53-25.72c6.17999-9.73,13.56-18.62,21.92-26.49001
		c8.35001-7.84,17.68999-14.66,27.81001-20.23c9.97-5.49001,20.69-9.78,31.97-12.66c10.91-2.8,22.34-4.28,34.12-4.28
		s23.20001,1.48,34.11002,4.28h0.01001c11.28,2.88,22,7.17,31.97,12.66c10.10999,5.57001,19.45001,12.38,27.79999,20.23V184.968z"/>
	<path fill="#D40029" d="M249.08511,145.088c-11.88,3.03-23.16,7.55-33.64999,13.33c-10.64999,5.86-20.47,13.03-29.25999,21.3
		c-8.81,8.25999-16.58,17.63-23.09,27.87c-6.44,10.13-11.64999,21.10999-15.43001,32.73999l-45.73-14.85999l-0.05-0.01001
		c5.03999-15.51001,11.99001-30.16,20.58-43.66c8.68001-13.64999,19.03-26.14,30.77-37.17
		c11.72-11.00999,24.82001-20.56999,39.02-28.39c13.98-7.7,29.03001-13.72,44.87001-17.78l0.01001,0.03999l11.95999,46.59
		L249.08511,145.088z"/>
	<path fill="#D40029" d="M154.34512,346.43799l-43.52,20.48001l-0.03999,0.01999c-6.78999-14.41-11.85001-29.81-14.91-45.91h0.03
		l47.25-9.01001c2.28999,12.07001,6.08,23.60999,11.19,34.41998V346.43799z"/>
	<path d="M477.13513,272.86798h-0.01001l-48.03,3.01999c-0.76999-12.34-3.07999-24.24998-6.75-35.55998
		c-3.76999-11.63-8.98999-22.60999-15.42999-32.74001l40.62-25.78l0.01999-0.00999c8.59,13.5,15.53998,28.14999,20.58002,43.66
		C473.02515,240.528,476.11511,256.41797,477.13513,272.86798z"/>
	<path d="M459.22513,366.93799c-6.92999,14.69-15.64999,28.35001-25.88998,40.72L396.25513,376.978
		c7.67999-9.26999,14.22-19.53,19.41-30.54001l43.51999,20.48001L459.22513,366.93799z"/>
	<path d="M429.37512,284.95798c0,9.25-0.87,18.29999-2.53,27.06l-7.07999-1.35001v-0.01001
		c1.57001-8.32001,2.39999-16.92001,2.39999-25.70001c0-2.89001-0.09-5.76001-0.26999-8.60999l7.20001-0.45999
		c0.19,3,0.28,6.01999,0.28,9.07001H429.37512z"/>
	<path d="M421.89511,276.34799l-47.91,3.01001c-0.45999-7.62-1.89001-14.98001-4.16-21.95999l45.66-14.83998
		c3.48999,10.73999,5.69,22.06999,6.41,33.78999V276.34799z"/>
	<path d="M406.91513,207.588l-6.09,3.85999c-6.19-9.73-13.57001-18.62-21.92999-26.48l4.94-5.25999
		C392.64514,187.978,400.40515,197.34799,406.91513,207.588z"/>
	<path d="M390.69513,372.37799c-7.32999,8.85999-15.76001,16.78-25.07001,23.54001c-9.23001,6.73001-19.34,12.32999-30.12,16.60001
		c-10.53,4.17001-21.69,7.07001-33.31,8.51999c-5.63,0.70999-11.37,1.07001-17.19,1.07001s-11.56-0.35999-17.19-1.07001
		c-11.62-1.45001-22.79001-4.35999-33.32001-8.53c-10.78-4.26999-20.88-9.85999-30.11-16.59
		c-9.31-6.76001-17.74001-14.67999-25.06999-23.54001c-7.3-8.81-13.52-18.54999-18.45-29.01001
		c-4.84-10.26999-8.44-21.23001-10.62-32.70001v-0.01001c-1.57001-8.32001-2.39999-16.92001-2.39999-25.70001
		c0-2.89001,0.09-5.76001,0.27-8.60999c0.72-11.72,2.92-23.04997,6.41-33.78999l45.66,14.83998
		c-2.27,6.98001-3.7,14.34-4.16,21.95999c-0.12,1.85001-0.17999,3.70999-0.17999,5.59c0,5.72,0.53999,11.31,1.57001,16.72
		c1.41,7.45999,3.75,14.59,6.91,21.26001c3.20001,6.79999,7.23999,13.13,11.98999,18.85001
		c4.76001,5.76001,10.23999,10.91,16.29001,15.29999c6,4.38,12.57001,8.01001,19.57001,10.78
		c6.84,2.72,14.10001,4.60999,21.64999,5.54999h0.01001c3.66,0.45999,7.39001,0.70001,11.17001,0.70001
		s7.51001-0.23999,11.17001-0.70001c7.54999-0.94,14.81-2.82001,21.64999-5.54001c7.01001-2.76999,13.57999-6.41,19.57999-10.79001
		c6.04999-4.39001,11.53-9.54001,16.29001-15.29999l37,30.60001L390.69513,372.37799z"/>
	<path d="M377.75513,116.248l-0.01001,0.02l-23.17001,42.15001c-10.48999-5.78-21.78-10.3-33.66-13.33l11.95999-46.59
		l0.01001-0.03999c15.82999,4.06,30.88,10.07001,44.87,17.79001L377.75513,116.248z"/>
	<path d="M355.88513,463.98798c-14.76999,5.85001-30.45001,9.93002-46.76001,11.97c-7.89999,0.98999-15.95001,1.5-24.12,1.5
		s-16.22-0.51001-24.13-1.5c-16.31-2.03998-31.98001-6.12-46.76001-11.97l0.01999-0.04999l17.70001-44.70999h0.01001
		c11.07999,4.39001,22.82999,7.45001,35.06,8.98001c5.92999,0.73999,11.97,1.12,18.10001,1.12s12.16-0.38,18.09-1.12
		c12.23001-1.53,23.98999-4.59,35.07001-8.98001l17.70001,44.70999L355.88513,463.98798z"/>
	<path d="M378.89511,184.968l-32.86002,34.98999c-5.42999-5.10001-11.48999-9.53-18.07001-13.14
		c-6.48001-3.57001-13.44-6.36-20.78-8.23V198.578c-7.09-1.81-14.51999-2.78-22.17999-2.78s-15.09,0.97-22.17999,2.78999
		c-7.34,1.87-14.29999,4.66-20.78,8.23c-6.57999,3.61-12.64001,8.03999-18.07001,13.15001
		c-5.44,5.10001-10.23999,10.88-14.26001,17.20999l-40.53-25.72c6.17999-9.73,13.56-18.62,21.92-26.49001
		c8.35001-7.84,17.68999-14.66,27.81001-20.23c9.97-5.49001,20.69-9.78,31.97-12.66c10.91-2.8,22.34-4.28,34.12-4.28
		s23.20001,1.48,34.11002,4.28h0.01001c11.28,2.88,22,7.17,31.97,12.66c10.10999,5.57001,19.45001,12.38,27.79999,20.23V184.968z"/>
	<path d="M249.08511,145.088c-11.88,3.03-23.16,7.55-33.64999,13.33c-10.64999,5.86-20.47,13.03-29.25999,21.3
		c-8.81,8.25999-16.58,17.63-23.09,27.87c-6.44,10.13-11.64999,21.10999-15.43001,32.73999l-45.73-14.85999l-0.05-0.01001
		c5.03999-15.51001,11.99001-30.16,20.58-43.66c8.68001-13.64999,19.03-26.14,30.77-37.17
		c11.72-11.00999,24.82001-20.56999,39.02-28.39c13.98-7.7,29.03001-13.72,44.87001-17.78l0.01001,0.03999l11.95999,46.59
		L249.08511,145.088z"/>
	<path d="M154.34512,346.43799l-43.52,20.48001l-0.03999,0.01999c-6.78999-14.41-11.85001-29.81-14.91-45.91h0.03l47.25-9.01001
		c2.28999,12.07001,6.08,23.60999,11.19,34.41998V346.43799z"/>
</g>
<g id="b">
	<path d="M218.94012,279.03098v-6.5c0.26599,0.134,0.68301,0.185,1.25,0.14999c0.565-0.03299,1.16599-0.10001,1.79999-0.20001
		c0.633-0.10001,1.233-0.233,1.79999-0.39999c0.565-0.16599,0.95001-0.35001,1.14999-0.54999s0.383-0.58301,0.54999-1.14999
		c0.16599-0.56601,0.29999-1.16599,0.39999-1.79999c0.10001-0.633,0.16599-1.23199,0.20001-1.79999
		c0.03299-0.565-0.017-0.983-0.14999-1.25h6v34h-6.5v-20.5h-6.5L218.94012,279.03098z"/>
	<path d="M260.93912,293.03098v-7h-27v-20.5h34v34h-34v-6.5H260.93912z M240.93912,278.53098h20v-6h-20V278.53098z"/>
	<path d="M275.93811,293.53098v6h-6v-6H275.93811z"/>
	<path d="M311.93713,265.53098v34h-34v-34H311.93713z M284.93713,278.53098h20v-6h-20V278.53098z M284.93713,292.53098h20v-6h-20
		V292.53098z"/>
	<path d="M340.93512,293.03098v-7h-27v-20.5h34v6.5h-27v7h27v20.5h-34v-6.5H340.93512z"/>
</g>
</svg>
