<?xml version="1.0" encoding="UTF-8"?><svg xmlns="http://www.w3.org/2000/svg" width="970.219" height="1374.306" viewBox="0 0 970.219 1374.306"><defs><style>.s{stroke:#fff;stroke-miterlimit:10;}.s,.t,.u,.v,.w,.x{fill:none;stroke-width:5px;}.y{fill:#231f20;}.t,.u{stroke-linecap:round;stroke-linejoin:round;}.t,.w{stroke:#231f20;}.u,.x{stroke:#9babd7;}.z{fill:#fff;}.v{stroke:#9aaad7;}</style></defs><g id="a"><g id="b"><rect class="v" x="735.419" y="56.169" width="42.901" height="286.005" rx="4" ry="4"/><line class="v" x1="778.32" y1="91.919" x2="735.419" y2="91.919"/><line class="v" x1="778.32" y1="306.423" x2="735.419" y2="306.423"/><line class="v" x1="778.32" y1="127.67" x2="735.419" y2="127.67"/><line class="v" x1="778.32" y1="163.42" x2="735.419" y2="163.42"/><line class="v" x1="778.32" y1="199.171" x2="735.419" y2="199.171"/><line class="v" x1="778.32" y1="234.922" x2="735.419" y2="234.922"/><line class="v" x1="778.32" y1="270.672" x2="735.419" y2="270.672"/><line class="v" x1="756.87" y1="56.169" x2="756.87" y2="342.173"/><rect class="v" x="735.419" y="56.169" width="42.901" height="286.005" rx="4" ry="4"/><line class="v" x1="778.32" y1="91.919" x2="735.419" y2="91.919"/><line class="v" x1="778.32" y1="306.423" x2="735.419" y2="306.423"/><line class="v" x1="778.32" y1="127.67" x2="735.419" y2="127.67"/><line class="v" x1="778.32" y1="163.42" x2="735.419" y2="163.42"/><line class="v" x1="778.32" y1="199.171" x2="735.419" y2="199.171"/><line class="v" x1="778.32" y1="234.922" x2="735.419" y2="234.922"/><line class="v" x1="778.32" y1="270.672" x2="735.419" y2="270.672"/><line class="v" x1="756.87" y1="56.169" x2="756.87" y2="342.173"/><rect class="v" x="735.419" y="56.169" width="42.901" height="286.005" rx="4" ry="4"/><line class="v" x1="778.32" y1="91.919" x2="735.419" y2="91.919"/><line class="v" x1="778.32" y1="306.423" x2="735.419" y2="306.423"/><line class="v" x1="778.32" y1="127.67" x2="735.419" y2="127.67"/><line class="v" x1="778.32" y1="163.42" x2="735.419" y2="163.42"/><line class="v" x1="778.32" y1="199.171" x2="735.419" y2="199.171"/><line class="v" x1="778.32" y1="234.922" x2="735.419" y2="234.922"/><line class="v" x1="778.32" y1="270.672" x2="735.419" y2="270.672"/><line class="v" x1="756.87" y1="56.169" x2="756.87" y2="342.173"/><rect class="v" x="628.169" y="56.169" width="42.901" height="286.005" rx="4" ry="4"/><line class="v" x1="671.07" y1="91.919" x2="628.169" y2="91.919"/><line class="v" x1="671.07" y1="306.423" x2="628.169" y2="306.423"/><line class="v" x1="671.07" y1="127.67" x2="628.169" y2="127.67"/><line class="v" x1="671.07" y1="163.42" x2="628.169" y2="163.42"/><line class="v" x1="671.07" y1="199.171" x2="628.169" y2="199.171"/><line class="v" x1="671.07" y1="234.922" x2="628.169" y2="234.922"/><line class="v" x1="671.07" y1="270.672" x2="628.169" y2="270.672"/><line class="v" x1="649.62" y1="56.169" x2="649.62" y2="342.173"/><rect class="v" x="628.169" y="56.169" width="42.901" height="286.005" rx="4" ry="4"/><line class="v" x1="671.07" y1="91.919" x2="628.169" y2="91.919"/><line class="v" x1="671.07" y1="306.423" x2="628.169" y2="306.423"/><line class="v" x1="671.07" y1="127.67" x2="628.169" y2="127.67"/><line class="v" x1="671.07" y1="163.42" x2="628.169" y2="163.42"/><line class="v" x1="671.07" y1="199.171" x2="628.169" y2="199.171"/><line class="v" x1="671.07" y1="234.922" x2="628.169" y2="234.922"/><line class="v" x1="671.07" y1="270.672" x2="628.169" y2="270.672"/><line class="v" x1="649.62" y1="56.169" x2="649.62" y2="342.173"/><rect class="v" x="628.169" y="56.169" width="42.901" height="286.005" rx="4" ry="4"/><line class="v" x1="671.07" y1="91.919" x2="628.169" y2="91.919"/><line class="v" x1="671.07" y1="306.423" x2="628.169" y2="306.423"/><line class="v" x1="671.07" y1="127.67" x2="628.169" y2="127.67"/><line class="v" x1="671.07" y1="163.42" x2="628.169" y2="163.42"/><line class="v" x1="671.07" y1="199.171" x2="628.169" y2="199.171"/><line class="v" x1="671.07" y1="234.922" x2="628.169" y2="234.922"/><line class="v" x1="671.07" y1="270.672" x2="628.169" y2="270.672"/><line class="v" x1="649.62" y1="56.169" x2="649.62" y2="342.173"/><rect class="v" x="520.919" y="56.169" width="42.901" height="286.005" rx="4" ry="4"/><line class="v" x1="563.82" y1="91.919" x2="520.919" y2="91.919"/><line class="v" x1="563.82" y1="306.423" x2="520.919" y2="306.423"/><line class="v" x1="563.82" y1="127.67" x2="520.919" y2="127.67"/><line class="v" x1="563.82" y1="163.42" x2="520.919" y2="163.42"/><line class="v" x1="563.82" y1="199.171" x2="520.919" y2="199.171"/><line class="v" x1="563.82" y1="234.922" x2="520.919" y2="234.922"/><line class="v" x1="563.82" y1="270.672" x2="520.919" y2="270.672"/><line class="v" x1="542.37" y1="56.169" x2="542.37" y2="342.173"/><rect class="v" x="520.919" y="56.169" width="42.901" height="286.005" rx="4" ry="4"/><line class="v" x1="563.82" y1="91.919" x2="520.919" y2="91.919"/><line class="v" x1="563.82" y1="306.423" x2="520.919" y2="306.423"/><line class="v" x1="563.82" y1="127.67" x2="520.919" y2="127.67"/><line class="v" x1="563.82" y1="163.42" x2="520.919" y2="163.42"/><line class="v" x1="563.82" y1="199.171" x2="520.919" y2="199.171"/><line class="v" x1="563.82" y1="234.922" x2="520.919" y2="234.922"/><line class="v" x1="563.82" y1="270.672" x2="520.919" y2="270.672"/><line class="v" x1="542.37" y1="56.169" x2="542.37" y2="342.173"/><rect class="v" x="520.919" y="56.169" width="42.901" height="286.005" rx="4" ry="4"/><line class="v" x1="563.82" y1="91.919" x2="520.919" y2="91.919"/><line class="v" x1="563.82" y1="306.423" x2="520.919" y2="306.423"/><line class="v" x1="563.82" y1="127.67" x2="520.919" y2="127.67"/><line class="v" x1="563.82" y1="163.42" x2="520.919" y2="163.42"/><line class="v" x1="563.82" y1="199.171" x2="520.919" y2="199.171"/><line class="v" x1="563.82" y1="234.922" x2="520.919" y2="234.922"/><line class="v" x1="563.82" y1="270.672" x2="520.919" y2="270.672"/><line class="v" x1="542.37" y1="56.169" x2="542.37" y2="342.173"/><rect class="v" x="413.669" y="56.169" width="42.901" height="286.005" rx="4" ry="4"/><line class="v" x1="456.57" y1="91.919" x2="413.669" y2="91.919"/><line class="v" x1="456.57" y1="306.423" x2="413.669" y2="306.423"/><line class="v" x1="456.57" y1="127.67" x2="413.669" y2="127.67"/><line class="v" x1="456.57" y1="163.42" x2="413.669" y2="163.42"/><line class="v" x1="456.57" y1="199.171" x2="413.669" y2="199.171"/><line class="v" x1="456.57" y1="234.922" x2="413.669" y2="234.922"/><line class="v" x1="456.57" y1="270.672" x2="413.669" y2="270.672"/><line class="v" x1="435.12" y1="56.169" x2="435.12" y2="342.173"/><rect class="v" x="413.669" y="56.169" width="42.901" height="286.005" rx="4" ry="4"/><line class="v" x1="456.57" y1="91.919" x2="413.669" y2="91.919"/><line class="v" x1="456.57" y1="306.423" x2="413.669" y2="306.423"/><line class="v" x1="456.57" y1="127.67" x2="413.669" y2="127.67"/><line class="v" x1="456.57" y1="163.42" x2="413.669" y2="163.42"/><line class="v" x1="456.57" y1="199.171" x2="413.669" y2="199.171"/><line class="v" x1="456.57" y1="234.922" x2="413.669" y2="234.922"/><line class="v" x1="456.57" y1="270.672" x2="413.669" y2="270.672"/><line class="v" x1="435.12" y1="56.169" x2="435.12" y2="342.173"/><rect class="v" x="413.669" y="56.169" width="42.901" height="286.005" rx="4" ry="4"/><line class="v" x1="456.57" y1="91.919" x2="413.669" y2="91.919"/><line class="v" x1="456.57" y1="306.423" x2="413.669" y2="306.423"/><line class="v" x1="456.57" y1="127.67" x2="413.669" y2="127.67"/><line class="v" x1="456.57" y1="163.42" x2="413.669" y2="163.42"/><line class="v" x1="456.57" y1="199.171" x2="413.669" y2="199.171"/><line class="v" x1="456.57" y1="234.922" x2="413.669" y2="234.922"/><line class="v" x1="456.57" y1="270.672" x2="413.669" y2="270.672"/><line class="v" x1="435.12" y1="56.169" x2="435.12" y2="342.173"/><rect class="v" x="306.419" y="56.169" width="42.901" height="286.005" rx="4" ry="4"/><line class="v" x1="349.32" y1="91.919" x2="306.419" y2="91.919"/><line class="v" x1="349.32" y1="306.423" x2="306.419" y2="306.423"/><line class="v" x1="349.32" y1="127.67" x2="306.419" y2="127.67"/><line class="v" x1="349.32" y1="163.42" x2="306.419" y2="163.42"/><line class="v" x1="349.32" y1="199.171" x2="306.419" y2="199.171"/><line class="v" x1="349.32" y1="234.922" x2="306.419" y2="234.922"/><line class="v" x1="349.32" y1="270.672" x2="306.419" y2="270.672"/><line class="v" x1="327.87" y1="56.169" x2="327.87" y2="342.173"/><rect class="v" x="306.419" y="56.169" width="42.901" height="286.005" rx="4" ry="4"/><line class="v" x1="349.32" y1="91.919" x2="306.419" y2="91.919"/><line class="v" x1="349.32" y1="306.423" x2="306.419" y2="306.423"/><line class="v" x1="349.32" y1="127.67" x2="306.419" y2="127.67"/><line class="v" x1="349.32" y1="163.42" x2="306.419" y2="163.42"/><line class="v" x1="349.32" y1="199.171" x2="306.419" y2="199.171"/><line class="v" x1="349.32" y1="234.922" x2="306.419" y2="234.922"/><line class="v" x1="349.32" y1="270.672" x2="306.419" y2="270.672"/><line class="v" x1="327.87" y1="56.169" x2="327.87" y2="342.173"/><rect class="v" x="306.419" y="56.169" width="42.901" height="286.005" rx="4" ry="4"/><line class="v" x1="349.32" y1="91.919" x2="306.419" y2="91.919"/><line class="v" x1="349.32" y1="306.423" x2="306.419" y2="306.423"/><line class="v" x1="349.32" y1="127.67" x2="306.419" y2="127.67"/><line class="v" x1="349.32" y1="163.42" x2="306.419" y2="163.42"/><line class="v" x1="349.32" y1="199.171" x2="306.419" y2="199.171"/><line class="v" x1="349.32" y1="234.922" x2="306.419" y2="234.922"/><line class="v" x1="349.32" y1="270.672" x2="306.419" y2="270.672"/><line class="v" x1="327.87" y1="56.169" x2="327.87" y2="342.173"/><rect class="v" x="199.169" y="56.169" width="42.901" height="286.005" rx="4" ry="4"/><line class="v" x1="242.07" y1="91.919" x2="199.169" y2="91.919"/><line class="v" x1="242.07" y1="306.423" x2="199.169" y2="306.423"/><line class="v" x1="242.07" y1="127.67" x2="199.169" y2="127.67"/><line class="v" x1="242.07" y1="163.42" x2="199.169" y2="163.42"/><line class="v" x1="242.07" y1="199.171" x2="199.169" y2="199.171"/><line class="v" x1="242.07" y1="234.922" x2="199.169" y2="234.922"/><line class="v" x1="242.07" y1="270.672" x2="199.169" y2="270.672"/><line class="v" x1="220.62" y1="56.169" x2="220.62" y2="342.173"/><rect class="v" x="199.169" y="56.169" width="42.901" height="286.005" rx="4" ry="4"/><line class="v" x1="242.07" y1="91.919" x2="199.169" y2="91.919"/><line class="v" x1="242.07" y1="306.423" x2="199.169" y2="306.423"/><line class="v" x1="242.07" y1="127.67" x2="199.169" y2="127.67"/><line class="v" x1="242.07" y1="163.42" x2="199.169" y2="163.42"/><line class="v" x1="242.07" y1="199.171" x2="199.169" y2="199.171"/><line class="v" x1="242.07" y1="234.922" x2="199.169" y2="234.922"/><line class="v" x1="242.07" y1="270.672" x2="199.169" y2="270.672"/><line class="v" x1="220.62" y1="56.169" x2="220.62" y2="342.173"/><rect class="v" x="199.169" y="56.169" width="42.901" height="286.005" rx="4" ry="4"/><line class="v" x1="242.07" y1="91.919" x2="199.169" y2="91.919"/><line class="v" x1="242.07" y1="306.423" x2="199.169" y2="306.423"/><line class="v" x1="242.07" y1="127.67" x2="199.169" y2="127.67"/><line class="v" x1="242.07" y1="163.42" x2="199.169" y2="163.42"/><line class="v" x1="242.07" y1="199.171" x2="199.169" y2="199.171"/><line class="v" x1="242.07" y1="234.922" x2="199.169" y2="234.922"/><line class="v" x1="242.07" y1="270.672" x2="199.169" y2="270.672"/><line class="v" x1="220.62" y1="56.169" x2="220.62" y2="342.173"/></g><g id="c"><rect class="v" x="735.426" y="821.231" width="42.901" height="286.005" rx="4" ry="4"/><line class="v" x1="778.327" y1="856.982" x2="735.426" y2="856.982"/><line class="v" x1="778.327" y1="1071.486" x2="735.426" y2="1071.486"/><line class="v" x1="778.327" y1="892.733" x2="735.426" y2="892.733"/><line class="v" x1="778.327" y1="928.483" x2="735.426" y2="928.483"/><line class="v" x1="778.327" y1="964.234" x2="735.426" y2="964.234"/><line class="v" x1="778.327" y1="999.984" x2="735.426" y2="999.984"/><line class="v" x1="778.327" y1="1035.735" x2="735.426" y2="1035.735"/><line class="v" x1="756.877" y1="821.231" x2="756.877" y2="1107.236"/><rect class="v" x="735.426" y="821.231" width="42.901" height="286.005" rx="4" ry="4"/><line class="v" x1="778.327" y1="856.982" x2="735.426" y2="856.982"/><line class="v" x1="778.327" y1="1071.486" x2="735.426" y2="1071.486"/><line class="v" x1="778.327" y1="892.733" x2="735.426" y2="892.733"/><line class="v" x1="778.327" y1="928.483" x2="735.426" y2="928.483"/><line class="v" x1="778.327" y1="964.234" x2="735.426" y2="964.234"/><line class="v" x1="778.327" y1="999.984" x2="735.426" y2="999.984"/><line class="v" x1="778.327" y1="1035.735" x2="735.426" y2="1035.735"/><line class="v" x1="756.877" y1="821.231" x2="756.877" y2="1107.236"/><rect class="v" x="735.426" y="821.231" width="42.901" height="286.005" rx="4" ry="4"/><line class="v" x1="778.327" y1="856.982" x2="735.426" y2="856.982"/><line class="v" x1="778.327" y1="1071.486" x2="735.426" y2="1071.486"/><line class="v" x1="778.327" y1="892.733" x2="735.426" y2="892.733"/><line class="v" x1="778.327" y1="928.483" x2="735.426" y2="928.483"/><line class="v" x1="778.327" y1="964.234" x2="735.426" y2="964.234"/><line class="v" x1="778.327" y1="999.984" x2="735.426" y2="999.984"/><line class="v" x1="778.327" y1="1035.735" x2="735.426" y2="1035.735"/><line class="v" x1="756.877" y1="821.231" x2="756.877" y2="1107.236"/><rect class="v" x="628.176" y="821.231" width="42.901" height="286.005" rx="4" ry="4"/><line class="v" x1="671.077" y1="856.982" x2="628.176" y2="856.982"/><line class="v" x1="671.077" y1="1071.486" x2="628.176" y2="1071.486"/><line class="v" x1="671.077" y1="892.733" x2="628.176" y2="892.733"/><line class="v" x1="671.077" y1="928.483" x2="628.176" y2="928.483"/><line class="v" x1="671.077" y1="964.234" x2="628.176" y2="964.234"/><line class="v" x1="671.077" y1="999.984" x2="628.176" y2="999.984"/><line class="v" x1="671.077" y1="1035.735" x2="628.176" y2="1035.735"/><line class="v" x1="649.627" y1="821.231" x2="649.627" y2="1107.236"/><rect class="v" x="628.176" y="821.231" width="42.901" height="286.005" rx="4" ry="4"/><line class="v" x1="671.077" y1="856.982" x2="628.176" y2="856.982"/><line class="v" x1="671.077" y1="1071.486" x2="628.176" y2="1071.486"/><line class="v" x1="671.077" y1="892.733" x2="628.176" y2="892.733"/><line class="v" x1="671.077" y1="928.483" x2="628.176" y2="928.483"/><line class="v" x1="671.077" y1="964.234" x2="628.176" y2="964.234"/><line class="v" x1="671.077" y1="999.984" x2="628.176" y2="999.984"/><line class="v" x1="671.077" y1="1035.735" x2="628.176" y2="1035.735"/><line class="v" x1="649.627" y1="821.231" x2="649.627" y2="1107.236"/><rect class="v" x="628.176" y="821.231" width="42.901" height="286.005" rx="4" ry="4"/><line class="v" x1="671.077" y1="856.982" x2="628.176" y2="856.982"/><line class="v" x1="671.077" y1="1071.486" x2="628.176" y2="1071.486"/><line class="v" x1="671.077" y1="892.733" x2="628.176" y2="892.733"/><line class="v" x1="671.077" y1="928.483" x2="628.176" y2="928.483"/><line class="v" x1="671.077" y1="964.234" x2="628.176" y2="964.234"/><line class="v" x1="671.077" y1="999.984" x2="628.176" y2="999.984"/><line class="v" x1="671.077" y1="1035.735" x2="628.176" y2="1035.735"/><line class="v" x1="649.627" y1="821.231" x2="649.627" y2="1107.236"/></g><g id="d"><rect class="v" x="735.419" y="367.199" width="42.901" height="143.002" rx="4" ry="4"/><line class="v" x1="778.32" y1="402.949" x2="735.419" y2="402.949"/><line class="v" x1="778.32" y1="438.7" x2="735.419" y2="438.7"/><line class="v" x1="778.32" y1="474.451" x2="735.419" y2="474.451"/><line class="v" x1="756.87" y1="367.199" x2="756.87" y2="510.201"/><rect class="v" x="735.419" y="367.199" width="42.901" height="143.002" rx="4" ry="4"/><line class="v" x1="778.32" y1="402.949" x2="735.419" y2="402.949"/><line class="v" x1="778.32" y1="438.7" x2="735.419" y2="438.7"/><line class="v" x1="778.32" y1="474.451" x2="735.419" y2="474.451"/><line class="v" x1="756.87" y1="367.199" x2="756.87" y2="510.201"/><rect class="v" x="735.419" y="367.199" width="42.901" height="143.002" rx="4" ry="4"/><line class="v" x1="778.32" y1="402.949" x2="735.419" y2="402.949"/><line class="v" x1="778.32" y1="438.7" x2="735.419" y2="438.7"/><line class="v" x1="778.32" y1="474.451" x2="735.419" y2="474.451"/><line class="v" x1="756.87" y1="367.199" x2="756.87" y2="510.201"/><rect class="v" x="628.169" y="367.199" width="42.901" height="143.002" rx="4" ry="4"/><line class="v" x1="671.07" y1="402.949" x2="628.169" y2="402.949"/><line class="v" x1="671.07" y1="438.7" x2="628.169" y2="438.7"/><line class="v" x1="671.07" y1="474.451" x2="628.169" y2="474.451"/><line class="v" x1="649.62" y1="367.199" x2="649.62" y2="510.201"/><rect class="v" x="628.169" y="367.199" width="42.901" height="143.002" rx="4" ry="4"/><line class="v" x1="671.07" y1="402.949" x2="628.169" y2="402.949"/><line class="v" x1="671.07" y1="438.7" x2="628.169" y2="438.7"/><line class="v" x1="671.07" y1="474.451" x2="628.169" y2="474.451"/><line class="v" x1="649.62" y1="367.199" x2="649.62" y2="510.201"/><rect class="v" x="628.169" y="367.199" width="42.901" height="143.002" rx="4" ry="4"/><line class="v" x1="671.07" y1="402.949" x2="628.169" y2="402.949"/><line class="v" x1="671.07" y1="438.7" x2="628.169" y2="438.7"/><line class="v" x1="671.07" y1="474.451" x2="628.169" y2="474.451"/><line class="v" x1="649.62" y1="367.199" x2="649.62" y2="510.201"/><rect class="v" x="520.919" y="367.199" width="42.901" height="143.002" rx="4" ry="4"/><line class="v" x1="563.82" y1="402.949" x2="520.919" y2="402.949"/><line class="v" x1="563.82" y1="438.7" x2="520.919" y2="438.7"/><line class="v" x1="563.82" y1="474.451" x2="520.919" y2="474.451"/><line class="v" x1="542.37" y1="367.199" x2="542.37" y2="510.201"/><rect class="v" x="520.919" y="367.199" width="42.901" height="143.002" rx="4" ry="4"/><line class="v" x1="563.82" y1="402.949" x2="520.919" y2="402.949"/><line class="v" x1="563.82" y1="438.7" x2="520.919" y2="438.7"/><line class="v" x1="563.82" y1="474.451" x2="520.919" y2="474.451"/><line class="v" x1="542.37" y1="367.199" x2="542.37" y2="510.201"/><rect class="v" x="520.919" y="367.199" width="42.901" height="143.002" rx="4" ry="4"/><line class="v" x1="563.82" y1="402.949" x2="520.919" y2="402.949"/><line class="v" x1="563.82" y1="438.7" x2="520.919" y2="438.7"/><line class="v" x1="563.82" y1="474.451" x2="520.919" y2="474.451"/><line class="v" x1="542.37" y1="367.199" x2="542.37" y2="510.201"/><rect class="v" x="413.669" y="367.199" width="42.901" height="143.002" rx="4" ry="4"/><line class="v" x1="456.57" y1="402.949" x2="413.669" y2="402.949"/><line class="v" x1="456.57" y1="438.7" x2="413.669" y2="438.7"/><line class="v" x1="456.57" y1="474.451" x2="413.669" y2="474.451"/><line class="v" x1="435.12" y1="367.199" x2="435.12" y2="510.201"/><rect class="v" x="413.669" y="367.199" width="42.901" height="143.002" rx="4" ry="4"/><line class="v" x1="456.57" y1="402.949" x2="413.669" y2="402.949"/><line class="v" x1="456.57" y1="438.7" x2="413.669" y2="438.7"/><line class="v" x1="456.57" y1="474.451" x2="413.669" y2="474.451"/><line class="v" x1="435.12" y1="367.199" x2="435.12" y2="510.201"/><rect class="v" x="413.669" y="367.199" width="42.901" height="143.002" rx="4" ry="4"/><line class="v" x1="456.57" y1="402.949" x2="413.669" y2="402.949"/><line class="v" x1="456.57" y1="438.7" x2="413.669" y2="438.7"/><line class="v" x1="456.57" y1="474.451" x2="413.669" y2="474.451"/><line class="v" x1="435.12" y1="367.199" x2="435.12" y2="510.201"/><rect class="v" x="306.419" y="367.199" width="42.901" height="143.002" rx="4" ry="4"/><line class="v" x1="349.32" y1="402.949" x2="306.419" y2="402.949"/><line class="v" x1="349.32" y1="438.7" x2="306.419" y2="438.7"/><line class="v" x1="349.32" y1="474.451" x2="306.419" y2="474.451"/><line class="v" x1="327.87" y1="367.199" x2="327.87" y2="510.201"/><rect class="v" x="306.419" y="367.199" width="42.901" height="143.002" rx="4" ry="4"/><line class="v" x1="349.32" y1="402.949" x2="306.419" y2="402.949"/><line class="v" x1="349.32" y1="438.7" x2="306.419" y2="438.7"/><line class="v" x1="349.32" y1="474.451" x2="306.419" y2="474.451"/><line class="v" x1="327.87" y1="367.199" x2="327.87" y2="510.201"/><rect class="v" x="306.419" y="367.199" width="42.901" height="143.002" rx="4" ry="4"/><line class="v" x1="349.32" y1="402.949" x2="306.419" y2="402.949"/><line class="v" x1="349.32" y1="438.7" x2="306.419" y2="438.7"/><line class="v" x1="349.32" y1="474.451" x2="306.419" y2="474.451"/><line class="v" x1="327.87" y1="367.199" x2="327.87" y2="510.201"/><rect class="v" x="199.169" y="367.199" width="42.901" height="143.002" rx="4" ry="4"/><line class="v" x1="242.07" y1="402.949" x2="199.169" y2="402.949"/><line class="v" x1="242.07" y1="438.7" x2="199.169" y2="438.7"/><line class="v" x1="242.07" y1="474.451" x2="199.169" y2="474.451"/><line class="v" x1="220.62" y1="367.199" x2="220.62" y2="510.201"/><rect class="v" x="199.169" y="367.199" width="42.901" height="143.002" rx="4" ry="4"/><line class="v" x1="242.07" y1="402.949" x2="199.169" y2="402.949"/><line class="v" x1="242.07" y1="438.7" x2="199.169" y2="438.7"/><line class="v" x1="242.07" y1="474.451" x2="199.169" y2="474.451"/><line class="v" x1="220.62" y1="367.199" x2="220.62" y2="510.201"/><rect class="v" x="199.169" y="367.199" width="42.901" height="143.002" rx="4" ry="4"/><line class="v" x1="242.07" y1="402.949" x2="199.169" y2="402.949"/><line class="v" x1="242.07" y1="438.7" x2="199.169" y2="438.7"/><line class="v" x1="242.07" y1="474.451" x2="199.169" y2="474.451"/><line class="v" x1="220.62" y1="367.199" x2="220.62" y2="510.201"/></g><g id="e"><rect class="v" x="735.426" y="653.204" width="42.901" height="143.002" rx="4" ry="4"/><line class="v" x1="778.327" y1="688.954" x2="735.426" y2="688.954"/><line class="v" x1="778.327" y1="724.705" x2="735.426" y2="724.705"/><line class="v" x1="778.327" y1="760.455" x2="735.426" y2="760.455"/><line class="v" x1="756.877" y1="653.204" x2="756.877" y2="796.206"/><rect class="v" x="735.426" y="653.204" width="42.901" height="143.002" rx="4" ry="4"/><line class="v" x1="778.327" y1="688.954" x2="735.426" y2="688.954"/><line class="v" x1="778.327" y1="724.705" x2="735.426" y2="724.705"/><line class="v" x1="778.327" y1="760.455" x2="735.426" y2="760.455"/><line class="v" x1="756.877" y1="653.204" x2="756.877" y2="796.206"/><rect class="v" x="735.426" y="653.204" width="42.901" height="143.002" rx="4" ry="4"/><line class="v" x1="778.327" y1="688.954" x2="735.426" y2="688.954"/><line class="v" x1="778.327" y1="724.705" x2="735.426" y2="724.705"/><line class="v" x1="778.327" y1="760.455" x2="735.426" y2="760.455"/><line class="v" x1="756.877" y1="653.204" x2="756.877" y2="796.206"/><rect class="v" x="628.176" y="653.204" width="42.901" height="143.002" rx="4" ry="4"/><line class="v" x1="671.077" y1="688.954" x2="628.176" y2="688.954"/><line class="v" x1="671.077" y1="724.705" x2="628.176" y2="724.705"/><line class="v" x1="671.077" y1="760.455" x2="628.176" y2="760.455"/><line class="v" x1="649.627" y1="653.204" x2="649.627" y2="796.206"/><rect class="v" x="628.176" y="653.204" width="42.901" height="143.002" rx="4" ry="4"/><line class="v" x1="671.077" y1="688.954" x2="628.176" y2="688.954"/><line class="v" x1="671.077" y1="724.705" x2="628.176" y2="724.705"/><line class="v" x1="671.077" y1="760.455" x2="628.176" y2="760.455"/><line class="v" x1="649.627" y1="653.204" x2="649.627" y2="796.206"/><rect class="v" x="628.176" y="653.204" width="42.901" height="143.002" rx="4" ry="4"/><line class="v" x1="671.077" y1="688.954" x2="628.176" y2="688.954"/><line class="v" x1="671.077" y1="724.705" x2="628.176" y2="724.705"/><line class="v" x1="671.077" y1="760.455" x2="628.176" y2="760.455"/><line class="v" x1="649.627" y1="653.204" x2="649.627" y2="796.206"/></g></g><g id="g"><path class="x" d="M781.885,1263.413c22.155,0,40.379,16.83,42.585,38.402.241,2.357-1.619,4.407-3.988,4.407h-38.597"/><path class="x" d="M781.885,1220.604c22.155,0,40.379-16.83,42.585-38.402.241-2.357-1.619-4.407-3.988-4.407h-38.597"/><path class="x" d="M781.885,1220.604c22.155,0,40.379-16.83,42.585-38.402.241-2.357-1.619-4.407-3.988-4.407h-38.597"/><path class="x" d="M781.885,1220.604c22.155,0,40.379,16.83,42.585,38.402.241,2.357-1.619,4.407-3.988,4.407h-38.597"/><path class="x" d="M781.885,1220.604c22.155,0,40.379,16.83,42.585,38.402.241,2.357-1.619,4.407-3.988,4.407h-38.597"/><path class="x" d="M781.885,1263.413c22.155,0,40.379,16.83,42.585,38.402.241,2.357-1.619,4.407-3.988,4.407h-38.597"/><path class="x" d="M781.885,1263.413c22.155,0,40.379,16.83,42.585,38.402.241,2.357-1.619,4.407-3.988,4.407h-38.597"/></g><g id="i"><path class="u" d="M781.885,1159.711v154.883c0,2.209-1.791,4-4,4H238.691c-2.498,0-4.385,2.264-3.935,4.721l6.317,34.48"/><path class="u" d="M159.691,150.871h-76.983c-2.209,0-4,1.791-4,4v876.864c0,2.209,1.791,4,4,4h76.983"/><line class="u" x1="14.832" y1="1035.735" x2="107.003" y2="1035.735"/><line class="u" x1="14.832" y1="1159.711" x2="188.163" y2="1159.711"/></g><g id="j"><path class="t" d="M159.691,1024.284V20.004c0-2.209,1.791-4,4-4h663.732c2.209,0,4,1.791,4,4v1135.707c0,2.209-1.791,4-4,4H302.291"/><path id="k" class="w" d="M159.691,782.257h71.229c2.209,0,4-1.791,4-4v-150.569c0-2.209-1.791-4-4-4h-71.229"/><rect id="l" class="w" x="159.691" y="1020.284" width="65.709" height="139.427" rx="4" ry="4"/><path id="m" class="w" d="M324.296,1159.711v-80.65c0-2.209,1.791-4,4-4h238.679c2.209,0,4,1.791,4,4v80.65"/><path class="v" d="M159.691,1024.284V20.004c0-2.209,1.791-4,4-4h663.732c2.209,0,4,1.791,4,4v1135.707c0,2.209-1.791,4-4,4H302.291"/><path id="n" class="v" d="M159.691,782.257h71.229c2.209,0,4-1.791,4-4v-150.569c0-2.209-1.791-4-4-4h-71.229"/><rect id="o" class="v" x="159.691" y="1020.284" width="65.709" height="139.427" rx="4" ry="4"/><path id="p" class="v" d="M324.296,1159.711v-80.65c0-2.209,1.791-4,4-4h238.679c2.209,0,4,1.791,4,4v80.65"/></g><g id="r"><path class="y" d="M177.95,813.714v9.492h-4.447v-25.594h9.791c2.859,0,5.13.745,6.812,2.235,1.682,1.489,2.522,3.461,2.522,5.912,0,2.511-.823,4.464-2.47,5.86-1.646,1.396-3.952,2.094-6.917,2.094h-5.291ZM177.95,810.128h5.344c1.582,0,2.789-.372,3.621-1.116s1.248-1.819,1.248-3.226c0-1.383-.422-2.487-1.266-3.313s-2.004-1.251-3.48-1.274h-5.467v8.93Z"/><path class="y" d="M204.247,823.558c-2.707,0-4.901-.853-6.583-2.558s-2.522-3.976-2.522-6.812v-.527c0-1.898.366-3.595,1.099-5.089s1.761-2.657,3.085-3.489,2.801-1.248,4.43-1.248c2.59,0,4.591.826,6.003,2.479s2.118,3.99,2.118,7.014v1.723h-12.428c.129,1.57.653,2.812,1.573,3.727s2.077,1.371,3.472,1.371c1.957,0,3.551-.791,4.781-2.373l2.303,2.197c-.762,1.137-1.778,2.019-3.05,2.646s-2.698.94-4.28.94ZM203.737,807.263c-1.172,0-2.118.41-2.839,1.23s-1.181,1.963-1.38,3.428h8.139v-.316c-.094-1.43-.475-2.511-1.143-3.243s-1.594-1.099-2.777-1.099Z"/><path class="y" d="M219.734,823.206h-4.271v-27h4.271v27Z"/><path class="y" d="M224.392,799.247c0-.656.208-1.201.624-1.635s1.011-.65,1.784-.65,1.371.217,1.793.65.633.979.633,1.635c0,.645-.211,1.181-.633,1.608s-1.02.642-1.793.642-1.368-.214-1.784-.642-.624-.964-.624-1.608ZM228.927,823.206h-4.271v-19.02h4.271v19.02Z"/><path class="y" d="M244.941,823.206c-.188-.363-.352-.955-.492-1.775-1.359,1.418-3.023,2.127-4.992,2.127-1.91,0-3.469-.545-4.676-1.635s-1.811-2.438-1.811-4.043c0-2.027.753-3.583,2.259-4.667s3.659-1.626,6.46-1.626h2.619v-1.248c0-.984-.275-1.772-.826-2.364s-1.389-.888-2.514-.888c-.973,0-1.77.243-2.391.729s-.932,1.104-.932,1.854h-4.271c0-1.043.346-2.019,1.037-2.927s1.632-1.62,2.821-2.136,2.517-.773,3.981-.773c2.227,0,4.002.56,5.326,1.679s2.004,2.692,2.039,4.72v8.578c0,1.711.24,3.076.721,4.096v.299h-4.359ZM240.247,820.13c.844,0,1.638-.205,2.382-.615s1.304-.961,1.679-1.652v-3.586h-2.303c-1.582,0-2.771.275-3.568.826s-1.195,1.33-1.195,2.338c0,.82.272,1.474.817,1.96s1.274.729,2.188.729Z"/><path class="y" d="M257.597,823.206h-4.271v-27h4.271v27Z"/><path class="y" d="M273.769,821.343c-1.254,1.477-3.035,2.215-5.344,2.215-2.062,0-3.624-.604-4.685-1.811s-1.591-2.953-1.591-5.238v-12.322h4.271v12.27c0,2.414,1.002,3.621,3.006,3.621,2.074,0,3.475-.744,4.201-2.232v-13.658h4.271v19.02h-4.025l-.105-1.863Z"/><path class="y" d="M290.626,823.558c-2.707,0-4.901-.853-6.583-2.558s-2.522-3.976-2.522-6.812v-.527c0-1.898.366-3.595,1.099-5.089s1.761-2.657,3.085-3.489,2.801-1.248,4.43-1.248c2.59,0,4.591.826,6.003,2.479s2.118,3.99,2.118,7.014v1.723h-12.428c.129,1.57.653,2.812,1.573,3.727s2.077,1.371,3.472,1.371c1.957,0,3.551-.791,4.781-2.373l2.303,2.197c-.762,1.137-1.778,2.019-3.05,2.646s-2.698.94-4.28.94ZM290.116,807.263c-1.172,0-2.118.41-2.839,1.23s-1.181,1.963-1.38,3.428h8.139v-.316c-.094-1.43-.475-2.511-1.143-3.243s-1.594-1.099-2.777-1.099Z"/><path class="z" d="M177.95,813.714v9.492h-4.447v-25.594h9.791c2.859,0,5.13.745,6.812,2.235,1.682,1.489,2.522,3.461,2.522,5.912,0,2.511-.823,4.464-2.47,5.86-1.646,1.396-3.952,2.094-6.917,2.094h-5.291ZM177.95,810.128h5.344c1.582,0,2.789-.372,3.621-1.116s1.248-1.819,1.248-3.226c0-1.383-.422-2.487-1.266-3.313s-2.004-1.251-3.48-1.274h-5.467v8.93Z"/><path class="z" d="M204.247,823.558c-2.707,0-4.901-.853-6.583-2.558s-2.522-3.976-2.522-6.812v-.527c0-1.898.366-3.595,1.099-5.089s1.761-2.657,3.085-3.489,2.801-1.248,4.43-1.248c2.59,0,4.591.826,6.003,2.479s2.118,3.99,2.118,7.014v1.723h-12.428c.129,1.57.653,2.812,1.573,3.727s2.077,1.371,3.472,1.371c1.957,0,3.551-.791,4.781-2.373l2.303,2.197c-.762,1.137-1.778,2.019-3.05,2.646s-2.698.94-4.28.94ZM203.737,807.263c-1.172,0-2.118.41-2.839,1.23s-1.181,1.963-1.38,3.428h8.139v-.316c-.094-1.43-.475-2.511-1.143-3.243s-1.594-1.099-2.777-1.099Z"/><path class="z" d="M219.734,823.206h-4.271v-27h4.271v27Z"/><path class="z" d="M224.392,799.247c0-.656.208-1.201.624-1.635s1.011-.65,1.784-.65,1.371.217,1.793.65.633.979.633,1.635c0,.645-.211,1.181-.633,1.608s-1.02.642-1.793.642-1.368-.214-1.784-.642-.624-.964-.624-1.608ZM228.927,823.206h-4.271v-19.02h4.271v19.02Z"/><path class="z" d="M244.941,823.206c-.188-.363-.352-.955-.492-1.775-1.359,1.418-3.023,2.127-4.992,2.127-1.91,0-3.469-.545-4.676-1.635s-1.811-2.438-1.811-4.043c0-2.027.753-3.583,2.259-4.667s3.659-1.626,6.46-1.626h2.619v-1.248c0-.984-.275-1.772-.826-2.364s-1.389-.888-2.514-.888c-.973,0-1.77.243-2.391.729s-.932,1.104-.932,1.854h-4.271c0-1.043.346-2.019,1.037-2.927s1.632-1.62,2.821-2.136,2.517-.773,3.981-.773c2.227,0,4.002.56,5.326,1.679s2.004,2.692,2.039,4.72v8.578c0,1.711.24,3.076.721,4.096v.299h-4.359ZM240.247,820.13c.844,0,1.638-.205,2.382-.615s1.304-.961,1.679-1.652v-3.586h-2.303c-1.582,0-2.771.275-3.568.826s-1.195,1.33-1.195,2.338c0,.82.272,1.474.817,1.96s1.274.729,2.188.729Z"/><path class="z" d="M257.597,823.206h-4.271v-27h4.271v27Z"/><path class="z" d="M273.769,821.343c-1.254,1.477-3.035,2.215-5.344,2.215-2.062,0-3.624-.604-4.685-1.811s-1.591-2.953-1.591-5.238v-12.322h4.271v12.27c0,2.414,1.002,3.621,3.006,3.621,2.074,0,3.475-.744,4.201-2.232v-13.658h4.271v19.02h-4.025l-.105-1.863Z"/><path class="z" d="M290.626,823.558c-2.707,0-4.901-.853-6.583-2.558s-2.522-3.976-2.522-6.812v-.527c0-1.898.366-3.595,1.099-5.089s1.761-2.657,3.085-3.489,2.801-1.248,4.43-1.248c2.59,0,4.591.826,6.003,2.479s2.118,3.99,2.118,7.014v1.723h-12.428c.129,1.57.653,2.812,1.573,3.727s2.077,1.371,3.472,1.371c1.957,0,3.551-.791,4.781-2.373l2.303,2.197c-.762,1.137-1.778,2.019-3.05,2.646s-2.698.94-4.28.94ZM290.116,807.263c-1.172,0-2.118.41-2.839,1.23s-1.181,1.963-1.38,3.428h8.139v-.316c-.094-1.43-.475-2.511-1.143-3.243s-1.594-1.099-2.777-1.099Z"/><path class="y" d="M177.862,998.16l-2.9,3.076v7.98h-4.447v-25.594h4.447v12.006l2.461-3.041,7.488-8.965h5.379l-9.51,11.338,10.055,14.256h-5.273l-7.699-11.057Z"/><path class="y" d="M192.804,985.257c0-.656.208-1.201.624-1.635s1.011-.65,1.784-.65,1.371.217,1.793.65.633.979.633,1.635c0,.645-.211,1.181-.633,1.608s-1.02.642-1.793.642-1.368-.214-1.784-.642-.624-.964-.624-1.608ZM197.339,1009.216h-4.271v-19.02h4.271v19.02Z"/><path class="y" d="M201.189,999.531c0-1.863.369-3.542,1.107-5.036s1.775-2.643,3.111-3.445c1.336-.803,2.871-1.204,4.605-1.204,2.566,0,4.649.826,6.249,2.479s2.464,3.844,2.593,6.574l.018,1.002c0,1.875-.36,3.551-1.081,5.027s-1.752,2.619-3.094,3.428-2.892,1.213-4.649,1.213c-2.684,0-4.831-.894-6.442-2.681s-2.417-4.169-2.417-7.146v-.211ZM205.46,999.9c0,1.957.404,3.489,1.213,4.597s1.934,1.661,3.375,1.661,2.563-.562,3.366-1.688,1.204-2.771,1.204-4.939c0-1.922-.413-3.445-1.239-4.57s-1.948-1.688-3.366-1.688c-1.395,0-2.502.554-3.322,1.661s-1.23,2.763-1.23,4.966Z"/><path class="y" d="M233.146,1004.048c0-.762-.313-1.342-.94-1.74s-1.667-.75-3.12-1.055-2.666-.691-3.639-1.16c-2.133-1.031-3.199-2.525-3.199-4.482,0-1.641.691-3.012,2.074-4.113s3.141-1.652,5.273-1.652c2.273,0,4.11.562,5.511,1.688s2.101,2.584,2.101,4.377h-4.271c0-.82-.305-1.503-.914-2.048-.609-.545-1.418-.817-2.426-.817-.938,0-1.702.217-2.294.65s-.888,1.014-.888,1.74c0,.656.275,1.166.826,1.529s1.664.729,3.34,1.099,2.991.809,3.946,1.318,1.664,1.122,2.127,1.837.694,1.582.694,2.602c0,1.711-.709,3.097-2.127,4.157s-3.275,1.591-5.572,1.591c-1.559,0-2.947-.281-4.166-.844s-2.168-1.336-2.848-2.32-1.02-2.045-1.02-3.182h4.148c.059,1.008.439,1.784,1.143,2.329s1.635.817,2.795.817c1.125,0,1.98-.214,2.566-.642s.879-.987.879-1.679Z"/><path class="y" d="M247.243,1001.06l-1.898,1.951v6.205h-4.271v-27h4.271v15.574l1.336-1.67,5.256-5.924h5.133l-7.066,7.928,7.822,11.092h-4.939l-5.643-8.156Z"/><path class="y" d="M259.864,985.257c0-.656.208-1.201.624-1.635s1.011-.65,1.784-.65,1.371.217,1.793.65.633.979.633,1.635c0,.645-.211,1.181-.633,1.608s-1.02.642-1.793.642-1.368-.214-1.784-.642-.624-.964-.624-1.608ZM264.4,1009.216h-4.271v-19.02h4.271v19.02Z"/><path class="z" d="M177.862,998.16l-2.9,3.076v7.98h-4.447v-25.594h4.447v12.006l2.461-3.041,7.488-8.965h5.379l-9.51,11.338,10.055,14.256h-5.273l-7.699-11.057Z"/><path class="z" d="M192.804,985.257c0-.656.208-1.201.624-1.635s1.011-.65,1.784-.65,1.371.217,1.793.65.633.979.633,1.635c0,.645-.211,1.181-.633,1.608s-1.02.642-1.793.642-1.368-.214-1.784-.642-.624-.964-.624-1.608ZM197.339,1009.216h-4.271v-19.02h4.271v19.02Z"/><path class="z" d="M201.189,999.531c0-1.863.369-3.542,1.107-5.036s1.775-2.643,3.111-3.445c1.336-.803,2.871-1.204,4.605-1.204,2.566,0,4.649.826,6.249,2.479s2.464,3.844,2.593,6.574l.018,1.002c0,1.875-.36,3.551-1.081,5.027s-1.752,2.619-3.094,3.428-2.892,1.213-4.649,1.213c-2.684,0-4.831-.894-6.442-2.681s-2.417-4.169-2.417-7.146v-.211ZM205.46,999.9c0,1.957.404,3.489,1.213,4.597s1.934,1.661,3.375,1.661,2.563-.562,3.366-1.688,1.204-2.771,1.204-4.939c0-1.922-.413-3.445-1.239-4.57s-1.948-1.688-3.366-1.688c-1.395,0-2.502.554-3.322,1.661s-1.23,2.763-1.23,4.966Z"/><path class="z" d="M233.146,1004.048c0-.762-.313-1.342-.94-1.74s-1.667-.75-3.12-1.055-2.666-.691-3.639-1.16c-2.133-1.031-3.199-2.525-3.199-4.482,0-1.641.691-3.012,2.074-4.113s3.141-1.652,5.273-1.652c2.273,0,4.11.562,5.511,1.688s2.101,2.584,2.101,4.377h-4.271c0-.82-.305-1.503-.914-2.048-.609-.545-1.418-.817-2.426-.817-.938,0-1.702.217-2.294.65s-.888,1.014-.888,1.74c0,.656.275,1.166.826,1.529s1.664.729,3.34,1.099,2.991.809,3.946,1.318,1.664,1.122,2.127,1.837.694,1.582.694,2.602c0,1.711-.709,3.097-2.127,4.157s-3.275,1.591-5.572,1.591c-1.559,0-2.947-.281-4.166-.844s-2.168-1.336-2.848-2.32-1.02-2.045-1.02-3.182h4.148c.059,1.008.439,1.784,1.143,2.329s1.635.817,2.795.817c1.125,0,1.98-.214,2.566-.642s.879-.987.879-1.679Z"/><path class="z" d="M247.243,1001.06l-1.898,1.951v6.205h-4.271v-27h4.271v15.574l1.336-1.67,5.256-5.924h5.133l-7.066,7.928,7.822,11.092h-4.939l-5.643-8.156Z"/><path class="z" d="M259.864,985.257c0-.656.208-1.201.624-1.635s1.011-.65,1.784-.65,1.371.217,1.793.65.633.979.633,1.635c0,.645-.211,1.181-.633,1.608s-1.02.642-1.793.642-1.368-.214-1.784-.642-.624-.964-.624-1.608ZM264.4,1009.216h-4.271v-19.02h4.271v19.02Z"/><path class="y" d="M417.164,1121.84c0-1.125-.396-1.992-1.187-2.602s-2.218-1.225-4.28-1.846-3.703-1.312-4.922-2.074c-2.332-1.465-3.498-3.375-3.498-5.73,0-2.062.841-3.762,2.522-5.098s3.864-2.004,6.548-2.004c1.781,0,3.369.328,4.764.984s2.49,1.591,3.287,2.804,1.195,2.558,1.195,4.034h-4.43c0-1.336-.419-2.382-1.257-3.138s-2.036-1.134-3.595-1.134c-1.453,0-2.581.311-3.384.932s-1.204,1.488-1.204,2.602c0,.938.434,1.72,1.301,2.347s2.297,1.236,4.289,1.828,3.592,1.266,4.799,2.021,2.092,1.623,2.654,2.602.844,2.124.844,3.437c0,2.133-.817,3.829-2.452,5.089s-3.853,1.89-6.653,1.89c-1.852,0-3.554-.343-5.106-1.028s-2.76-1.632-3.621-2.839-1.292-2.613-1.292-4.219h4.447c0,1.453.48,2.578,1.441,3.375s2.338,1.195,4.131,1.195c1.547,0,2.71-.313,3.489-.94s1.169-1.456,1.169-2.487Z"/><path class="y" d="M430.453,1104.789v4.623h3.357v3.164h-3.357v10.617c0,.727.144,1.251.431,1.573s.8.483,1.538.483c.492,0,.99-.059,1.494-.176v3.305c-.973.27-1.91.404-2.812.404-3.281,0-4.922-1.811-4.922-5.432v-10.775h-3.129v-3.164h3.129v-4.623h4.271Z"/><path class="y" d="M448.436,1128.431c-.188-.363-.352-.955-.492-1.775-1.359,1.418-3.023,2.127-4.992,2.127-1.91,0-3.469-.545-4.676-1.635s-1.811-2.438-1.811-4.043c0-2.027.753-3.583,2.259-4.667s3.659-1.626,6.46-1.626h2.619v-1.248c0-.984-.275-1.772-.826-2.364s-1.389-.888-2.514-.888c-.973,0-1.77.243-2.391.729s-.932,1.104-.932,1.854h-4.271c0-1.043.346-2.019,1.037-2.927s1.632-1.62,2.821-2.136,2.517-.773,3.981-.773c2.227,0,4.002.56,5.326,1.679s2.004,2.692,2.039,4.72v8.578c0,1.711.24,3.076.721,4.096v.299h-4.359ZM443.742,1125.355c.844,0,1.638-.205,2.382-.615s1.304-.961,1.679-1.652v-3.586h-2.303c-1.582,0-2.771.275-3.568.826s-1.195,1.33-1.195,2.338c0,.82.272,1.474.817,1.96s1.274.729,2.188.729Z"/><path class="y" d="M455.801,1118.781c0-2.953.694-5.312,2.083-7.075s3.231-2.646,5.528-2.646c2.168,0,3.873.756,5.115,2.268l.193-1.916h3.85v18.439c0,2.496-.776,4.465-2.329,5.906s-3.647,2.162-6.284,2.162c-1.395,0-2.757-.29-4.087-.87s-2.341-1.339-3.032-2.276l2.021-2.566c1.312,1.559,2.93,2.338,4.852,2.338,1.418,0,2.537-.384,3.357-1.151s1.23-1.896,1.23-3.384v-1.283c-1.23,1.371-2.871,2.057-4.922,2.057-2.227,0-4.046-.885-5.458-2.654s-2.118-4.219-2.118-7.348ZM460.055,1119.15c0,1.91.39,3.413,1.169,4.509s1.86,1.644,3.243,1.644c1.723,0,3-.738,3.832-2.215v-8.367c-.809-1.441-2.074-2.162-3.797-2.162-1.406,0-2.499.557-3.278,1.67s-1.169,2.754-1.169,4.922Z"/><path class="y" d="M485.332,1128.783c-2.707,0-4.901-.853-6.583-2.558s-2.522-3.976-2.522-6.812v-.527c0-1.898.366-3.595,1.099-5.089s1.761-2.657,3.085-3.489,2.801-1.248,4.43-1.248c2.59,0,4.591.826,6.003,2.479s2.118,3.99,2.118,7.014v1.723h-12.428c.129,1.57.653,2.812,1.573,3.727s2.077,1.371,3.472,1.371c1.957,0,3.551-.791,4.781-2.373l2.303,2.197c-.762,1.137-1.778,2.019-3.05,2.646s-2.698.94-4.28.94ZM484.822,1112.488c-1.172,0-2.118.41-2.839,1.23s-1.181,1.963-1.38,3.428h8.139v-.316c-.094-1.43-.475-2.511-1.143-3.243s-1.594-1.099-2.777-1.099Z"/><path class="z" d="M417.164,1121.84c0-1.125-.396-1.992-1.187-2.602s-2.218-1.225-4.28-1.846-3.703-1.312-4.922-2.074c-2.332-1.465-3.498-3.375-3.498-5.73,0-2.062.841-3.762,2.522-5.098s3.864-2.004,6.548-2.004c1.781,0,3.369.328,4.764.984s2.49,1.591,3.287,2.804,1.195,2.558,1.195,4.034h-4.43c0-1.336-.419-2.382-1.257-3.138s-2.036-1.134-3.595-1.134c-1.453,0-2.581.311-3.384.932s-1.204,1.488-1.204,2.602c0,.938.434,1.72,1.301,2.347s2.297,1.236,4.289,1.828,3.592,1.266,4.799,2.021,2.092,1.623,2.654,2.602.844,2.124.844,3.437c0,2.133-.817,3.829-2.452,5.089s-3.853,1.89-6.653,1.89c-1.852,0-3.554-.343-5.106-1.028s-2.76-1.632-3.621-2.839-1.292-2.613-1.292-4.219h4.447c0,1.453.48,2.578,1.441,3.375s2.338,1.195,4.131,1.195c1.547,0,2.71-.313,3.489-.94s1.169-1.456,1.169-2.487Z"/><path class="z" d="M430.453,1104.789v4.623h3.357v3.164h-3.357v10.617c0,.727.144,1.251.431,1.573s.8.483,1.538.483c.492,0,.99-.059,1.494-.176v3.305c-.973.27-1.91.404-2.812.404-3.281,0-4.922-1.811-4.922-5.432v-10.775h-3.129v-3.164h3.129v-4.623h4.271Z"/><path class="z" d="M448.436,1128.431c-.188-.363-.352-.955-.492-1.775-1.359,1.418-3.023,2.127-4.992,2.127-1.91,0-3.469-.545-4.676-1.635s-1.811-2.438-1.811-4.043c0-2.027.753-3.583,2.259-4.667s3.659-1.626,6.46-1.626h2.619v-1.248c0-.984-.275-1.772-.826-2.364s-1.389-.888-2.514-.888c-.973,0-1.77.243-2.391.729s-.932,1.104-.932,1.854h-4.271c0-1.043.346-2.019,1.037-2.927s1.632-1.62,2.821-2.136,2.517-.773,3.981-.773c2.227,0,4.002.56,5.326,1.679s2.004,2.692,2.039,4.72v8.578c0,1.711.24,3.076.721,4.096v.299h-4.359ZM443.742,1125.355c.844,0,1.638-.205,2.382-.615s1.304-.961,1.679-1.652v-3.586h-2.303c-1.582,0-2.771.275-3.568.826s-1.195,1.33-1.195,2.338c0,.82.272,1.474.817,1.96s1.274.729,2.188.729Z"/><path class="z" d="M455.801,1118.781c0-2.953.694-5.312,2.083-7.075s3.231-2.646,5.528-2.646c2.168,0,3.873.756,5.115,2.268l.193-1.916h3.85v18.439c0,2.496-.776,4.465-2.329,5.906s-3.647,2.162-6.284,2.162c-1.395,0-2.757-.29-4.087-.87s-2.341-1.339-3.032-2.276l2.021-2.566c1.312,1.559,2.93,2.338,4.852,2.338,1.418,0,2.537-.384,3.357-1.151s1.23-1.896,1.23-3.384v-1.283c-1.23,1.371-2.871,2.057-4.922,2.057-2.227,0-4.046-.885-5.458-2.654s-2.118-4.219-2.118-7.348ZM460.055,1119.15c0,1.91.39,3.413,1.169,4.509s1.86,1.644,3.243,1.644c1.723,0,3-.738,3.832-2.215v-8.367c-.809-1.441-2.074-2.162-3.797-2.162-1.406,0-2.499.557-3.278,1.67s-1.169,2.754-1.169,4.922Z"/><path class="z" d="M485.332,1128.783c-2.707,0-4.901-.853-6.583-2.558s-2.522-3.976-2.522-6.812v-.527c0-1.898.366-3.595,1.099-5.089s1.761-2.657,3.085-3.489,2.801-1.248,4.43-1.248c2.59,0,4.591.826,6.003,2.479s2.118,3.99,2.118,7.014v1.723h-12.428c.129,1.57.653,2.812,1.573,3.727s2.077,1.371,3.472,1.371c1.957,0,3.551-.791,4.781-2.373l2.303,2.197c-.762,1.137-1.778,2.019-3.05,2.646s-2.698.94-4.28.94ZM484.822,1112.488c-1.172,0-2.118.41-2.839,1.23s-1.181,1.963-1.38,3.428h8.139v-.316c-.094-1.43-.475-2.511-1.143-3.243s-1.594-1.099-2.777-1.099Z"/><path class="y" d="M228.871,539.239h-10.301v10.846h-4.447v-25.594h16.26v3.586h-11.812v7.611h10.301v3.551Z"/><path class="y" d="M334.934,538.659h-10.512v7.875h12.287v3.551h-16.734v-25.594h16.611v3.586h-12.164v7.066h10.512v3.516Z"/><path class="y" d="M426.624,550.085v-25.594h7.559c2.262,0,4.269.504,6.021,1.512s3.108,2.438,4.069,4.289,1.441,3.973,1.441,6.363v1.283c0,2.426-.483,4.559-1.45,6.398s-2.344,3.258-4.131,4.254-3.835,1.494-6.144,1.494h-7.365ZM431.071,528.077v18.457h2.9c2.332,0,4.122-.729,5.37-2.188s1.884-3.554,1.907-6.284v-1.424c0-2.777-.604-4.898-1.811-6.363s-2.959-2.197-5.256-2.197h-3.111Z"/><path class="y" d="M553.661,541.753c-.258,2.73-1.266,4.86-3.023,6.39-1.758,1.529-4.096,2.294-7.014,2.294-2.039,0-3.835-.483-5.388-1.45s-2.751-2.341-3.595-4.122-1.283-3.85-1.318-6.205v-2.391c0-2.414.428-4.541,1.283-6.381s2.083-3.258,3.683-4.254,3.448-1.494,5.546-1.494c2.824,0,5.098.765,6.82,2.294s2.725,3.694,3.006,6.495h-4.43c-.211-1.84-.747-3.167-1.608-3.981s-2.124-1.222-3.788-1.222c-1.934,0-3.419.707-4.456,2.12s-1.567,3.487-1.591,6.22v2.27c0,2.768.495,4.879,1.485,6.334s2.44,2.182,4.351,2.182c1.746,0,3.059-.393,3.938-1.178s1.436-2.092,1.67-3.92h4.43Z"/><path class="y" d="M641.623,550.085v-25.594h8.771c2.895,0,5.098.58,6.609,1.74s2.268,2.889,2.268,5.186c0,1.172-.316,2.227-.949,3.164s-1.559,1.664-2.777,2.18c1.383.375,2.452,1.081,3.208,2.118s1.134,2.282,1.134,3.735c0,2.402-.771,4.248-2.312,5.537s-3.747,1.934-6.618,1.934h-9.334ZM646.07,535.266h4.359c1.383,0,2.464-.313,3.243-.94s1.169-1.515,1.169-2.663c0-1.266-.36-2.18-1.081-2.742s-1.843-.844-3.366-.844h-4.324v7.189ZM646.07,538.536v7.998h4.939c1.395,0,2.484-.346,3.27-1.037s1.178-1.652,1.178-2.883c0-2.66-1.359-4.02-4.078-4.078h-5.309Z"/><path class="y" d="M762.649,544.126h-9.914l-2.074,5.959h-4.623l9.668-25.594h3.99l9.686,25.594h-4.641l-2.092-5.959ZM753.983,540.54h7.418l-3.709-10.617-3.709,10.617Z"/><path class="y" d="M658.642,636.485h-4.43v-11.355h-11.443v11.355h-4.447v-25.594h4.447v10.652h11.443v-10.652h4.43v25.594Z"/><path class="y" d="M767.395,633.162c-.926,1.207-2.209,2.121-3.85,2.742s-3.504.932-5.59.932c-2.145,0-4.043-.486-5.695-1.459s-2.927-2.364-3.823-4.175-1.362-3.923-1.397-6.337v-2.004c0-3.867.926-6.888,2.777-9.062s4.436-3.261,7.752-3.261c2.848,0,5.109.706,6.785,2.118s2.684,3.442,3.023,6.091h-4.359c-.492-3.082-2.279-4.623-5.361-4.623-1.992,0-3.507.717-4.544,2.151s-1.573,3.539-1.608,6.313v1.967c0,2.764.583,4.909,1.749,6.437,1.166,1.528,2.786,2.292,4.86,2.292,2.273,0,3.891-.516,4.852-1.547v-5.01h-5.273v-3.375h9.703v9.809Z"/><path class="z" d="M228.871,539.239h-10.301v10.846h-4.447v-25.594h16.26v3.586h-11.812v7.611h10.301v3.551Z"/><path class="z" d="M334.934,538.659h-10.512v7.875h12.287v3.551h-16.734v-25.594h16.611v3.586h-12.164v7.066h10.512v3.516Z"/><path class="z" d="M426.624,550.085v-25.594h7.559c2.262,0,4.269.504,6.021,1.512s3.108,2.438,4.069,4.289,1.441,3.973,1.441,6.363v1.283c0,2.426-.483,4.559-1.45,6.398s-2.344,3.258-4.131,4.254-3.835,1.494-6.144,1.494h-7.365ZM431.071,528.077v18.457h2.9c2.332,0,4.122-.729,5.37-2.188s1.884-3.554,1.907-6.284v-1.424c0-2.777-.604-4.898-1.811-6.363s-2.959-2.197-5.256-2.197h-3.111Z"/><path class="z" d="M553.661,541.753c-.258,2.73-1.266,4.86-3.023,6.39-1.758,1.529-4.096,2.294-7.014,2.294-2.039,0-3.835-.483-5.388-1.45s-2.751-2.341-3.595-4.122-1.283-3.85-1.318-6.205v-2.391c0-2.414.428-4.541,1.283-6.381s2.083-3.258,3.683-4.254,3.448-1.494,5.546-1.494c2.824,0,5.098.765,6.82,2.294s2.725,3.694,3.006,6.495h-4.43c-.211-1.84-.747-3.167-1.608-3.981s-2.124-1.222-3.788-1.222c-1.934,0-3.419.707-4.456,2.12s-1.567,3.487-1.591,6.22v2.27c0,2.768.495,4.879,1.485,6.334s2.44,2.182,4.351,2.182c1.746,0,3.059-.393,3.938-1.178s1.436-2.092,1.67-3.92h4.43Z"/><path class="z" d="M641.623,550.085v-25.594h8.771c2.895,0,5.098.58,6.609,1.74s2.268,2.889,2.268,5.186c0,1.172-.316,2.227-.949,3.164s-1.559,1.664-2.777,2.18c1.383.375,2.452,1.081,3.208,2.118s1.134,2.282,1.134,3.735c0,2.402-.771,4.248-2.312,5.537s-3.747,1.934-6.618,1.934h-9.334ZM646.07,535.266h4.359c1.383,0,2.464-.313,3.243-.94s1.169-1.515,1.169-2.663c0-1.266-.36-2.18-1.081-2.742s-1.843-.844-3.366-.844h-4.324v7.189ZM646.07,538.536v7.998h4.939c1.395,0,2.484-.346,3.27-1.037s1.178-1.652,1.178-2.883c0-2.66-1.359-4.02-4.078-4.078h-5.309Z"/><path class="z" d="M762.649,544.126h-9.914l-2.074,5.959h-4.623l9.668-25.594h3.99l9.686,25.594h-4.641l-2.092-5.959ZM753.983,540.54h7.418l-3.709-10.617-3.709,10.617Z"/><path class="z" d="M658.642,636.485h-4.43v-11.355h-11.443v11.355h-4.447v-25.594h4.447v10.652h11.443v-10.652h4.43v25.594Z"/><path class="z" d="M767.395,633.162c-.926,1.207-2.209,2.121-3.85,2.742s-3.504.932-5.59.932c-2.145,0-4.043-.486-5.695-1.459s-2.927-2.364-3.823-4.175-1.362-3.923-1.397-6.337v-2.004c0-3.867.926-6.888,2.777-9.062s4.436-3.261,7.752-3.261c2.848,0,5.109.706,6.785,2.118s2.684,3.442,3.023,6.091h-4.359c-.492-3.082-2.279-4.623-5.361-4.623-1.992,0-3.507.717-4.544,2.151s-1.573,3.539-1.608,6.313v1.967c0,2.764.583,4.909,1.749,6.437,1.166,1.528,2.786,2.292,4.86,2.292,2.273,0,3.891-.516,4.852-1.547v-5.01h-5.273v-3.375h9.703v9.809Z"/><path class="s" d="M262.01,1101.323l-23.908,33.084c-1.912,2.645-.021,6.343,3.242,6.343h5.215c2.209,0,4,1.791,4,4v77.843c0,2.209,1.791,4,4,4h10.693s10.693,0,10.693,0c2.209,0,4-1.791,4-4v-77.843c0-2.209,1.791-4,4-4h5.215c3.264,0,5.154-3.698,3.242-6.343l-23.908-33.084c-1.597-2.21-4.887-2.21-6.484,0Z"/></g></svg>