<?xml version="1.0" encoding="UTF-8"?><svg xmlns="http://www.w3.org/2000/svg" width="899.266" height="1365.383" viewBox="0 0 899.266 1365.383"><defs><style>.t,.u,.v,.w,.x,.y,.z,.aa,.ab,.ac,.ad{fill:none;}.u{stroke:#fff;}.u,.v,.w,.x,.y,.z,.aa,.ab,.ac,.ad{stroke-width:5px;}.u,.v,.w,.z,.ab{stroke-linecap:round;}.v,.x,.aa,.ab,.ac,.ad{stroke-miterlimit:10;}.v,.ac{stroke:#50769a;}.w{stroke-linejoin:round;}.w,.x,.y,.z{stroke:#9aaad7;}.ae{fill:#fff;}.af{fill:#9aaad7;}.aa{stroke:#c7c8ca;}.ab,.ad{stroke:#231f20;}.ag{fill:#50769a;}</style></defs><g id="a"><path class="ac" d="M712.704,1217.523c22.155,0,40.379-16.83,42.585-38.402.241-2.357-1.619-4.407-3.988-4.407h-38.597"/><path class="ac" d="M712.704,1217.523c22.155,0,40.379,16.83,42.585,38.402.241,2.357-1.619,4.407-3.988,4.407h-38.597"/><path class="ac" d="M712.704,1260.332c22.155,0,40.379,16.83,42.585,38.402.241,2.357-1.619,4.407-3.988,4.407h-38.597"/><path class="ac" d="M773.047,1217.523c22.155,0,40.379-16.83,42.585-38.402.241-2.357-1.619-4.407-3.988-4.407h-38.597"/><path class="ac" d="M773.047,1217.523c22.155,0,40.379,16.83,42.585,38.402.241,2.357-1.619,4.407-3.988,4.407h-38.597"/><path class="ac" d="M773.047,1260.332c22.155,0,40.379,16.83,42.585,38.402.241,2.357-1.619,4.407-3.988,4.407h-38.597"/></g><g id="b"><path class="aa" d="M150.853,417.917c-22.155,0-40.379,16.83-42.585,38.402-.241,2.357,1.619,4.407,3.988,4.407h38.597"/><path class="aa" d="M150.853,296.284c-22.155,0-40.379,16.83-42.585,38.402-.241,2.357,1.619,4.407,3.988,4.407h38.597"/><path class="aa" d="M150.853,820.477c-22.155,0-40.379,16.83-42.585,38.402-.241,2.357,1.619,4.407,3.988,4.407h38.597"/><path class="aa" d="M152.925,944.049c22.155,0,40.379-16.83,42.585-38.402.241-2.357-1.619-4.407-3.988-4.407h-38.597"/><path class="y" d="M150.853,417.917c-22.155,0-40.379,16.83-42.585,38.402-.241,2.357,1.619,4.407,3.988,4.407h38.597"/><path class="y" d="M150.853,296.284c-22.155,0-40.379,16.83-42.585,38.402-.241,2.357,1.619,4.407,3.988,4.407h38.597"/><path class="y" d="M150.853,820.477c-22.155,0-40.379,16.83-42.585,38.402-.241,2.357,1.619,4.407,3.988,4.407h38.597"/><path class="y" d="M152.925,944.049c22.155,0,40.379-16.83,42.585-38.402.241-2.357-1.619-4.407-3.988-4.407h-38.597"/></g><g id="c"><g id="d"><rect class="y" x="726.509" y="53.088" width="42.901" height="286.005" rx="4" ry="4"/><line class="y" x1="769.41" y1="88.839" x2="726.509" y2="88.839"/><line class="y" x1="769.41" y1="303.342" x2="726.509" y2="303.342"/><line class="y" x1="769.41" y1="124.589" x2="726.509" y2="124.589"/><line class="y" x1="769.41" y1="160.34" x2="726.509" y2="160.34"/><line class="y" x1="769.41" y1="196.09" x2="726.509" y2="196.09"/><line class="y" x1="769.41" y1="231.841" x2="726.509" y2="231.841"/><line class="y" x1="769.41" y1="267.592" x2="726.509" y2="267.592"/><line class="y" x1="747.96" y1="53.088" x2="747.96" y2="339.093"/><rect class="y" x="726.509" y="53.088" width="42.901" height="286.005" rx="4" ry="4"/><line class="y" x1="769.41" y1="88.839" x2="726.509" y2="88.839"/><line class="y" x1="769.41" y1="303.342" x2="726.509" y2="303.342"/><line class="y" x1="769.41" y1="124.589" x2="726.509" y2="124.589"/><line class="y" x1="769.41" y1="160.34" x2="726.509" y2="160.34"/><line class="y" x1="769.41" y1="196.09" x2="726.509" y2="196.09"/><line class="y" x1="769.41" y1="231.841" x2="726.509" y2="231.841"/><line class="y" x1="769.41" y1="267.592" x2="726.509" y2="267.592"/><line class="y" x1="747.96" y1="53.088" x2="747.96" y2="339.093"/><rect class="y" x="726.509" y="53.088" width="42.901" height="286.005" rx="4" ry="4"/><line class="y" x1="769.41" y1="88.839" x2="726.509" y2="88.839"/><line class="y" x1="769.41" y1="303.342" x2="726.509" y2="303.342"/><line class="y" x1="769.41" y1="124.589" x2="726.509" y2="124.589"/><line class="y" x1="769.41" y1="160.34" x2="726.509" y2="160.34"/><line class="y" x1="769.41" y1="196.09" x2="726.509" y2="196.09"/><line class="y" x1="769.41" y1="231.841" x2="726.509" y2="231.841"/><line class="y" x1="769.41" y1="267.592" x2="726.509" y2="267.592"/><line class="y" x1="747.96" y1="53.088" x2="747.96" y2="339.093"/><rect class="y" x="619.259" y="53.088" width="42.901" height="286.005" rx="4" ry="4"/><line class="y" x1="662.16" y1="88.839" x2="619.259" y2="88.839"/><line class="y" x1="662.16" y1="303.342" x2="619.259" y2="303.342"/><line class="y" x1="662.16" y1="124.589" x2="619.259" y2="124.589"/><line class="y" x1="662.16" y1="160.34" x2="619.259" y2="160.34"/><line class="y" x1="662.16" y1="196.09" x2="619.259" y2="196.09"/><line class="y" x1="662.16" y1="231.841" x2="619.259" y2="231.841"/><line class="y" x1="662.16" y1="267.592" x2="619.259" y2="267.592"/><line class="y" x1="640.71" y1="53.088" x2="640.71" y2="339.093"/><rect class="y" x="619.259" y="53.088" width="42.901" height="286.005" rx="4" ry="4"/><line class="y" x1="662.16" y1="88.839" x2="619.259" y2="88.839"/><line class="y" x1="662.16" y1="303.342" x2="619.259" y2="303.342"/><line class="y" x1="662.16" y1="124.589" x2="619.259" y2="124.589"/><line class="y" x1="662.16" y1="160.34" x2="619.259" y2="160.34"/><line class="y" x1="662.16" y1="196.09" x2="619.259" y2="196.09"/><line class="y" x1="662.16" y1="231.841" x2="619.259" y2="231.841"/><line class="y" x1="662.16" y1="267.592" x2="619.259" y2="267.592"/><line class="y" x1="640.71" y1="53.088" x2="640.71" y2="339.093"/><rect class="y" x="619.259" y="53.088" width="42.901" height="286.005" rx="4" ry="4"/><line class="y" x1="662.16" y1="88.839" x2="619.259" y2="88.839"/><line class="y" x1="662.16" y1="303.342" x2="619.259" y2="303.342"/><line class="y" x1="662.16" y1="124.589" x2="619.259" y2="124.589"/><line class="y" x1="662.16" y1="160.34" x2="619.259" y2="160.34"/><line class="y" x1="662.16" y1="196.09" x2="619.259" y2="196.09"/><line class="y" x1="662.16" y1="231.841" x2="619.259" y2="231.841"/><line class="y" x1="662.16" y1="267.592" x2="619.259" y2="267.592"/><line class="y" x1="640.71" y1="53.088" x2="640.71" y2="339.093"/><rect class="y" x="512.009" y="53.088" width="42.901" height="286.005" rx="4" ry="4"/><line class="y" x1="554.91" y1="88.839" x2="512.009" y2="88.839"/><line class="y" x1="554.91" y1="303.342" x2="512.009" y2="303.342"/><line class="y" x1="554.91" y1="124.589" x2="512.009" y2="124.589"/><line class="y" x1="554.91" y1="160.34" x2="512.009" y2="160.34"/><line class="y" x1="554.91" y1="196.09" x2="512.009" y2="196.09"/><line class="y" x1="554.91" y1="231.841" x2="512.009" y2="231.841"/><line class="y" x1="554.91" y1="267.592" x2="512.009" y2="267.592"/><line class="y" x1="533.46" y1="53.088" x2="533.46" y2="339.093"/><rect class="y" x="512.009" y="53.088" width="42.901" height="286.005" rx="4" ry="4"/><line class="y" x1="554.91" y1="88.839" x2="512.009" y2="88.839"/><line class="y" x1="554.91" y1="303.342" x2="512.009" y2="303.342"/><line class="y" x1="554.91" y1="124.589" x2="512.009" y2="124.589"/><line class="y" x1="554.91" y1="160.34" x2="512.009" y2="160.34"/><line class="y" x1="554.91" y1="196.09" x2="512.009" y2="196.09"/><line class="y" x1="554.91" y1="231.841" x2="512.009" y2="231.841"/><line class="y" x1="554.91" y1="267.592" x2="512.009" y2="267.592"/><line class="y" x1="533.46" y1="53.088" x2="533.46" y2="339.093"/><rect class="y" x="512.009" y="53.088" width="42.901" height="286.005" rx="4" ry="4"/><line class="y" x1="554.91" y1="88.839" x2="512.009" y2="88.839"/><line class="y" x1="554.91" y1="303.342" x2="512.009" y2="303.342"/><line class="y" x1="554.91" y1="124.589" x2="512.009" y2="124.589"/><line class="y" x1="554.91" y1="160.34" x2="512.009" y2="160.34"/><line class="y" x1="554.91" y1="196.09" x2="512.009" y2="196.09"/><line class="y" x1="554.91" y1="231.841" x2="512.009" y2="231.841"/><line class="y" x1="554.91" y1="267.592" x2="512.009" y2="267.592"/><line class="y" x1="533.46" y1="53.088" x2="533.46" y2="339.093"/><rect class="y" x="404.759" y="53.088" width="42.901" height="286.005" rx="4" ry="4"/><line class="y" x1="447.66" y1="88.839" x2="404.759" y2="88.839"/><line class="y" x1="447.66" y1="303.342" x2="404.759" y2="303.342"/><line class="y" x1="447.66" y1="124.589" x2="404.759" y2="124.589"/><line class="y" x1="447.66" y1="160.34" x2="404.759" y2="160.34"/><line class="y" x1="447.66" y1="196.09" x2="404.759" y2="196.09"/><line class="y" x1="447.66" y1="231.841" x2="404.759" y2="231.841"/><line class="y" x1="447.66" y1="267.592" x2="404.759" y2="267.592"/><line class="y" x1="426.21" y1="53.088" x2="426.21" y2="339.093"/><rect class="y" x="404.759" y="53.088" width="42.901" height="286.005" rx="4" ry="4"/><line class="y" x1="447.66" y1="88.839" x2="404.759" y2="88.839"/><line class="y" x1="447.66" y1="303.342" x2="404.759" y2="303.342"/><line class="y" x1="447.66" y1="124.589" x2="404.759" y2="124.589"/><line class="y" x1="447.66" y1="160.34" x2="404.759" y2="160.34"/><line class="y" x1="447.66" y1="196.09" x2="404.759" y2="196.09"/><line class="y" x1="447.66" y1="231.841" x2="404.759" y2="231.841"/><line class="y" x1="447.66" y1="267.592" x2="404.759" y2="267.592"/><line class="y" x1="426.21" y1="53.088" x2="426.21" y2="339.093"/><rect class="y" x="404.759" y="53.088" width="42.901" height="286.005" rx="4" ry="4"/><line class="y" x1="447.66" y1="88.839" x2="404.759" y2="88.839"/><line class="y" x1="447.66" y1="303.342" x2="404.759" y2="303.342"/><line class="y" x1="447.66" y1="124.589" x2="404.759" y2="124.589"/><line class="y" x1="447.66" y1="160.34" x2="404.759" y2="160.34"/><line class="y" x1="447.66" y1="196.09" x2="404.759" y2="196.09"/><line class="y" x1="447.66" y1="231.841" x2="404.759" y2="231.841"/><line class="y" x1="447.66" y1="267.592" x2="404.759" y2="267.592"/><line class="y" x1="426.21" y1="53.088" x2="426.21" y2="339.093"/><rect class="y" x="297.509" y="53.088" width="42.901" height="286.005" rx="4" ry="4"/><line class="y" x1="340.41" y1="88.839" x2="297.509" y2="88.839"/><line class="y" x1="340.41" y1="303.342" x2="297.509" y2="303.342"/><line class="y" x1="340.41" y1="124.589" x2="297.509" y2="124.589"/><line class="y" x1="340.41" y1="160.34" x2="297.509" y2="160.34"/><line class="y" x1="340.41" y1="196.09" x2="297.509" y2="196.09"/><line class="y" x1="340.41" y1="231.841" x2="297.509" y2="231.841"/><line class="y" x1="340.41" y1="267.592" x2="297.509" y2="267.592"/><line class="y" x1="318.96" y1="53.088" x2="318.96" y2="339.093"/><rect class="y" x="297.509" y="53.088" width="42.901" height="286.005" rx="4" ry="4"/><line class="y" x1="340.41" y1="88.839" x2="297.509" y2="88.839"/><line class="y" x1="340.41" y1="303.342" x2="297.509" y2="303.342"/><line class="y" x1="340.41" y1="124.589" x2="297.509" y2="124.589"/><line class="y" x1="340.41" y1="160.34" x2="297.509" y2="160.34"/><line class="y" x1="340.41" y1="196.09" x2="297.509" y2="196.09"/><line class="y" x1="340.41" y1="231.841" x2="297.509" y2="231.841"/><line class="y" x1="340.41" y1="267.592" x2="297.509" y2="267.592"/><line class="y" x1="318.96" y1="53.088" x2="318.96" y2="339.093"/><rect class="y" x="297.509" y="53.088" width="42.901" height="286.005" rx="4" ry="4"/><line class="y" x1="340.41" y1="88.839" x2="297.509" y2="88.839"/><line class="y" x1="340.41" y1="303.342" x2="297.509" y2="303.342"/><line class="y" x1="340.41" y1="124.589" x2="297.509" y2="124.589"/><line class="y" x1="340.41" y1="160.34" x2="297.509" y2="160.34"/><line class="y" x1="340.41" y1="196.09" x2="297.509" y2="196.09"/><line class="y" x1="340.41" y1="231.841" x2="297.509" y2="231.841"/><line class="y" x1="340.41" y1="267.592" x2="297.509" y2="267.592"/><line class="y" x1="318.96" y1="53.088" x2="318.96" y2="339.093"/></g><g id="e"><rect class="y" x="726.588" y="818.151" width="42.901" height="286.005" rx="4" ry="4"/><line class="y" x1="769.489" y1="853.901" x2="726.588" y2="853.901"/><line class="y" x1="769.489" y1="1068.405" x2="726.588" y2="1068.405"/><line class="y" x1="769.489" y1="889.652" x2="726.588" y2="889.652"/><line class="y" x1="769.489" y1="925.402" x2="726.588" y2="925.402"/><line class="y" x1="769.489" y1="961.153" x2="726.588" y2="961.153"/><line class="y" x1="769.489" y1="996.904" x2="726.588" y2="996.904"/><line class="y" x1="769.489" y1="1032.654" x2="726.588" y2="1032.654"/><line class="y" x1="748.039" y1="818.151" x2="748.039" y2="1104.155"/><rect class="y" x="726.588" y="818.151" width="42.901" height="286.005" rx="4" ry="4"/><line class="y" x1="769.489" y1="853.901" x2="726.588" y2="853.901"/><line class="y" x1="769.489" y1="1068.405" x2="726.588" y2="1068.405"/><line class="y" x1="769.489" y1="889.652" x2="726.588" y2="889.652"/><line class="y" x1="769.489" y1="925.402" x2="726.588" y2="925.402"/><line class="y" x1="769.489" y1="961.153" x2="726.588" y2="961.153"/><line class="y" x1="769.489" y1="996.904" x2="726.588" y2="996.904"/><line class="y" x1="769.489" y1="1032.654" x2="726.588" y2="1032.654"/><line class="y" x1="748.039" y1="818.151" x2="748.039" y2="1104.155"/><rect class="y" x="726.588" y="818.151" width="42.901" height="286.005" rx="4" ry="4"/><line class="y" x1="769.489" y1="853.901" x2="726.588" y2="853.901"/><line class="y" x1="769.489" y1="1068.405" x2="726.588" y2="1068.405"/><line class="y" x1="769.489" y1="889.652" x2="726.588" y2="889.652"/><line class="y" x1="769.489" y1="925.402" x2="726.588" y2="925.402"/><line class="y" x1="769.489" y1="961.153" x2="726.588" y2="961.153"/><line class="y" x1="769.489" y1="996.904" x2="726.588" y2="996.904"/><line class="y" x1="769.489" y1="1032.654" x2="726.588" y2="1032.654"/><line class="y" x1="748.039" y1="818.151" x2="748.039" y2="1104.155"/><rect class="y" x="619.338" y="818.151" width="42.901" height="286.005" rx="4" ry="4"/><line class="y" x1="662.239" y1="853.901" x2="619.338" y2="853.901"/><line class="y" x1="662.239" y1="1068.405" x2="619.338" y2="1068.405"/><line class="y" x1="662.239" y1="889.652" x2="619.338" y2="889.652"/><line class="y" x1="662.239" y1="925.402" x2="619.338" y2="925.402"/><line class="y" x1="662.239" y1="961.153" x2="619.338" y2="961.153"/><line class="y" x1="662.239" y1="996.904" x2="619.338" y2="996.904"/><line class="y" x1="662.239" y1="1032.654" x2="619.338" y2="1032.654"/><line class="y" x1="640.789" y1="818.151" x2="640.789" y2="1104.155"/><rect class="y" x="619.338" y="818.151" width="42.901" height="286.005" rx="4" ry="4"/><line class="y" x1="662.239" y1="853.901" x2="619.338" y2="853.901"/><line class="y" x1="662.239" y1="1068.405" x2="619.338" y2="1068.405"/><line class="y" x1="662.239" y1="889.652" x2="619.338" y2="889.652"/><line class="y" x1="662.239" y1="925.402" x2="619.338" y2="925.402"/><line class="y" x1="662.239" y1="961.153" x2="619.338" y2="961.153"/><line class="y" x1="662.239" y1="996.904" x2="619.338" y2="996.904"/><line class="y" x1="662.239" y1="1032.654" x2="619.338" y2="1032.654"/><line class="y" x1="640.789" y1="818.151" x2="640.789" y2="1104.155"/><rect class="y" x="619.338" y="818.151" width="42.901" height="286.005" rx="4" ry="4"/><line class="y" x1="662.239" y1="853.901" x2="619.338" y2="853.901"/><line class="y" x1="662.239" y1="1068.405" x2="619.338" y2="1068.405"/><line class="y" x1="662.239" y1="889.652" x2="619.338" y2="889.652"/><line class="y" x1="662.239" y1="925.402" x2="619.338" y2="925.402"/><line class="y" x1="662.239" y1="961.153" x2="619.338" y2="961.153"/><line class="y" x1="662.239" y1="996.904" x2="619.338" y2="996.904"/><line class="y" x1="662.239" y1="1032.654" x2="619.338" y2="1032.654"/><line class="y" x1="640.789" y1="818.151" x2="640.789" y2="1104.155"/></g><g id="f"><rect class="y" x="726.509" y="364.118" width="42.901" height="143.002" rx="4" ry="4"/><line class="y" x1="769.41" y1="399.869" x2="726.509" y2="399.869"/><line class="y" x1="769.41" y1="435.619" x2="726.509" y2="435.619"/><line class="y" x1="769.41" y1="471.37" x2="726.509" y2="471.37"/><line class="y" x1="747.96" y1="364.118" x2="747.96" y2="507.12"/><rect class="y" x="726.509" y="364.118" width="42.901" height="143.002" rx="4" ry="4"/><line class="y" x1="769.41" y1="399.869" x2="726.509" y2="399.869"/><line class="y" x1="769.41" y1="435.619" x2="726.509" y2="435.619"/><line class="y" x1="769.41" y1="471.37" x2="726.509" y2="471.37"/><line class="y" x1="747.96" y1="364.118" x2="747.96" y2="507.12"/><rect class="y" x="726.509" y="364.118" width="42.901" height="143.002" rx="4" ry="4"/><line class="y" x1="769.41" y1="399.869" x2="726.509" y2="399.869"/><line class="y" x1="769.41" y1="435.619" x2="726.509" y2="435.619"/><line class="y" x1="769.41" y1="471.37" x2="726.509" y2="471.37"/><line class="y" x1="747.96" y1="364.118" x2="747.96" y2="507.12"/><rect class="y" x="619.259" y="364.118" width="42.901" height="143.002" rx="4" ry="4"/><line class="y" x1="662.16" y1="399.869" x2="619.259" y2="399.869"/><line class="y" x1="662.16" y1="435.619" x2="619.259" y2="435.619"/><line class="y" x1="662.16" y1="471.37" x2="619.259" y2="471.37"/><line class="y" x1="640.71" y1="364.118" x2="640.71" y2="507.12"/><rect class="y" x="619.259" y="364.118" width="42.901" height="143.002" rx="4" ry="4"/><line class="y" x1="662.16" y1="399.869" x2="619.259" y2="399.869"/><line class="y" x1="662.16" y1="435.619" x2="619.259" y2="435.619"/><line class="y" x1="662.16" y1="471.37" x2="619.259" y2="471.37"/><line class="y" x1="640.71" y1="364.118" x2="640.71" y2="507.12"/><rect class="y" x="619.259" y="364.118" width="42.901" height="143.002" rx="4" ry="4"/><line class="y" x1="662.16" y1="399.869" x2="619.259" y2="399.869"/><line class="y" x1="662.16" y1="435.619" x2="619.259" y2="435.619"/><line class="y" x1="662.16" y1="471.37" x2="619.259" y2="471.37"/><line class="y" x1="640.71" y1="364.118" x2="640.71" y2="507.12"/><rect class="y" x="512.009" y="364.118" width="42.901" height="143.002" rx="4" ry="4"/><line class="y" x1="554.91" y1="399.869" x2="512.009" y2="399.869"/><line class="y" x1="554.91" y1="435.619" x2="512.009" y2="435.619"/><line class="y" x1="554.91" y1="471.37" x2="512.009" y2="471.37"/><line class="y" x1="533.46" y1="364.118" x2="533.46" y2="507.12"/><rect class="y" x="512.009" y="364.118" width="42.901" height="143.002" rx="4" ry="4"/><line class="y" x1="554.91" y1="399.869" x2="512.009" y2="399.869"/><line class="y" x1="554.91" y1="435.619" x2="512.009" y2="435.619"/><line class="y" x1="554.91" y1="471.37" x2="512.009" y2="471.37"/><line class="y" x1="533.46" y1="364.118" x2="533.46" y2="507.12"/><rect class="y" x="512.009" y="364.118" width="42.901" height="143.002" rx="4" ry="4"/><line class="y" x1="554.91" y1="399.869" x2="512.009" y2="399.869"/><line class="y" x1="554.91" y1="435.619" x2="512.009" y2="435.619"/><line class="y" x1="554.91" y1="471.37" x2="512.009" y2="471.37"/><line class="y" x1="533.46" y1="364.118" x2="533.46" y2="507.12"/><rect class="y" x="404.759" y="364.118" width="42.901" height="143.002" rx="4" ry="4"/><line class="y" x1="447.66" y1="399.869" x2="404.759" y2="399.869"/><line class="y" x1="447.66" y1="435.619" x2="404.759" y2="435.619"/><line class="y" x1="447.66" y1="471.37" x2="404.759" y2="471.37"/><line class="y" x1="426.21" y1="364.118" x2="426.21" y2="507.12"/><rect class="y" x="404.759" y="364.118" width="42.901" height="143.002" rx="4" ry="4"/><line class="y" x1="447.66" y1="399.869" x2="404.759" y2="399.869"/><line class="y" x1="447.66" y1="435.619" x2="404.759" y2="435.619"/><line class="y" x1="447.66" y1="471.37" x2="404.759" y2="471.37"/><line class="y" x1="426.21" y1="364.118" x2="426.21" y2="507.12"/><rect class="y" x="404.759" y="364.118" width="42.901" height="143.002" rx="4" ry="4"/><line class="y" x1="447.66" y1="399.869" x2="404.759" y2="399.869"/><line class="y" x1="447.66" y1="435.619" x2="404.759" y2="435.619"/><line class="y" x1="447.66" y1="471.37" x2="404.759" y2="471.37"/><line class="y" x1="426.21" y1="364.118" x2="426.21" y2="507.12"/><rect class="y" x="297.509" y="364.118" width="42.901" height="143.002" rx="4" ry="4"/><line class="y" x1="340.41" y1="399.869" x2="297.509" y2="399.869"/><line class="y" x1="340.41" y1="435.619" x2="297.509" y2="435.619"/><line class="y" x1="340.41" y1="471.37" x2="297.509" y2="471.37"/><line class="y" x1="318.96" y1="364.118" x2="318.96" y2="507.12"/><rect class="y" x="297.509" y="364.118" width="42.901" height="143.002" rx="4" ry="4"/><line class="y" x1="340.41" y1="399.869" x2="297.509" y2="399.869"/><line class="y" x1="340.41" y1="435.619" x2="297.509" y2="435.619"/><line class="y" x1="340.41" y1="471.37" x2="297.509" y2="471.37"/><line class="y" x1="318.96" y1="364.118" x2="318.96" y2="507.12"/><rect class="y" x="297.509" y="364.118" width="42.901" height="143.002" rx="4" ry="4"/><line class="y" x1="340.41" y1="399.869" x2="297.509" y2="399.869"/><line class="y" x1="340.41" y1="435.619" x2="297.509" y2="435.619"/><line class="y" x1="340.41" y1="471.37" x2="297.509" y2="471.37"/><line class="y" x1="318.96" y1="364.118" x2="318.96" y2="507.12"/></g><g id="g"><rect class="y" x="726.588" y="650.123" width="42.901" height="143.002" rx="4" ry="4"/><line class="y" x1="769.489" y1="685.873" x2="726.588" y2="685.873"/><line class="y" x1="769.489" y1="721.624" x2="726.588" y2="721.624"/><line class="y" x1="769.489" y1="757.375" x2="726.588" y2="757.375"/><line class="y" x1="748.039" y1="650.123" x2="748.039" y2="793.125"/><rect class="y" x="726.588" y="650.123" width="42.901" height="143.002" rx="4" ry="4"/><line class="y" x1="769.489" y1="685.873" x2="726.588" y2="685.873"/><line class="y" x1="769.489" y1="721.624" x2="726.588" y2="721.624"/><line class="y" x1="769.489" y1="757.375" x2="726.588" y2="757.375"/><line class="y" x1="748.039" y1="650.123" x2="748.039" y2="793.125"/><rect class="y" x="726.588" y="650.123" width="42.901" height="143.002" rx="4" ry="4"/><line class="y" x1="769.489" y1="685.873" x2="726.588" y2="685.873"/><line class="y" x1="769.489" y1="721.624" x2="726.588" y2="721.624"/><line class="y" x1="769.489" y1="757.375" x2="726.588" y2="757.375"/><line class="y" x1="748.039" y1="650.123" x2="748.039" y2="793.125"/><rect class="y" x="619.338" y="650.123" width="42.901" height="143.002" rx="4" ry="4"/><line class="y" x1="662.239" y1="685.873" x2="619.338" y2="685.873"/><line class="y" x1="662.239" y1="721.624" x2="619.338" y2="721.624"/><line class="y" x1="662.239" y1="757.375" x2="619.338" y2="757.375"/><line class="y" x1="640.789" y1="650.123" x2="640.789" y2="793.125"/><rect class="y" x="619.338" y="650.123" width="42.901" height="143.002" rx="4" ry="4"/><line class="y" x1="662.239" y1="685.873" x2="619.338" y2="685.873"/><line class="y" x1="662.239" y1="721.624" x2="619.338" y2="721.624"/><line class="y" x1="662.239" y1="757.375" x2="619.338" y2="757.375"/><line class="y" x1="640.789" y1="650.123" x2="640.789" y2="793.125"/><rect class="y" x="619.338" y="650.123" width="42.901" height="143.002" rx="4" ry="4"/><line class="y" x1="662.239" y1="685.873" x2="619.338" y2="685.873"/><line class="y" x1="662.239" y1="721.624" x2="619.338" y2="721.624"/><line class="y" x1="662.239" y1="757.375" x2="619.338" y2="757.375"/><line class="y" x1="640.789" y1="650.123" x2="640.789" y2="793.125"/></g></g><g id="h"><rect class="ac" x="190.331" y="364.118" width="42.901" height="143.002" rx="4" ry="4"/><line class="ac" x1="233.232" y1="399.869" x2="190.331" y2="399.869"/><line class="ac" x1="233.232" y1="435.619" x2="190.331" y2="435.619"/><line class="ac" x1="233.232" y1="471.37" x2="190.331" y2="471.37"/><line class="ac" x1="211.782" y1="364.118" x2="211.782" y2="507.12"/><rect class="ac" x="190.331" y="53.088" width="42.901" height="286.005" rx="4" ry="4"/><line class="ac" x1="233.232" y1="88.839" x2="190.331" y2="88.839"/><line class="ac" x1="233.232" y1="303.342" x2="190.331" y2="303.342"/><line class="ac" x1="233.232" y1="124.589" x2="190.331" y2="124.589"/><line class="ac" x1="233.232" y1="160.34" x2="190.331" y2="160.34"/><line class="ac" x1="233.232" y1="196.09" x2="190.331" y2="196.09"/><line class="ac" x1="233.232" y1="231.841" x2="190.331" y2="231.841"/><line class="ac" x1="233.232" y1="267.592" x2="190.331" y2="267.592"/><line class="ac" x1="211.782" y1="53.088" x2="211.782" y2="339.093"/></g><g id="i"><g id="j"><line class="v" x1="5.994" y1="1032.654" x2="98.165" y2="1032.654"/><path class="v" d="M773.047,1156.63v154.883c0,2.209-1.791,4-4,4H229.853c-2.498,0-4.385,2.264-3.935,4.721l6.317,34.48"/><line class="ac" x1="712.704" y1="1156.63" x2="712.704" y2="1315.513"/><path class="x" d="M150.853,147.79h-76.983c-2.209,0-4,1.791-4,4v876.864c0,2.209,1.791,4,4,4h76.983"/><line class="v" x1="5.994" y1="1156.63" x2="179.325" y2="1156.63"/><polyline class="w" points="150.853 1021.203 150.853 12.923 822.585 12.923 822.585 1156.63 293.452 1156.63"/></g><path id="k" class="z" d="M226.082,632.382v-7.775c0-2.209-1.791-4-4-4h-71.229"/><path id="l" class="z" d="M150.853,779.176h71.229c2.209,0,4-1.791,4-4v-100.601"/><path id="m" class="z" d="M216.562,1059.208v93.423c0,2.209-1.791,4-4,4h-57.709c-2.209,0-4-1.791-4-4v-142.654c0-2.209,1.791-4,4-4h57.709c2.209,0,4,1.791,4,4v11.099"/><path id="n" class="y" d="M315.458,1156.63v-80.65c0-2.209,1.791-4,4-4h238.679c2.209,0,4,1.791,4,4v80.65"/></g><g id="p"><g id="q"><rect class="t" x="165.154" y="638.242" width="215.403" height="72.666"/><path class="ae" d="M172.713,656.224v9.018h-5.273v-25.594h9.984c1.922,0,3.612.352,5.071,1.055s2.581,1.702,3.366,2.997,1.178,2.769,1.178,4.421c0,2.508-.858,4.485-2.575,5.933s-4.093,2.171-7.128,2.171h-4.623ZM172.713,651.953h4.711c1.395,0,2.458-.328,3.19-.984s1.099-1.594,1.099-2.812c0-1.254-.369-2.268-1.107-3.041s-1.758-1.172-3.059-1.195h-4.834v8.033Z"/><path class="ae" d="M198.851,665.593c-2.789,0-5.06-.855-6.812-2.566s-2.628-3.99-2.628-6.838v-.492c0-1.91.369-3.618,1.107-5.124s1.784-2.666,3.138-3.48,2.897-1.222,4.632-1.222c2.602,0,4.649.82,6.144,2.461s2.241,3.967,2.241,6.979v2.074h-12.111c.164,1.242.659,2.238,1.485,2.988s1.872,1.125,3.138,1.125c1.957,0,3.486-.709,4.588-2.127l2.496,2.795c-.762,1.078-1.793,1.919-3.094,2.522s-2.742.905-4.324.905ZM198.271,649.966c-1.008,0-1.825.342-2.452,1.024s-1.028,1.659-1.204,2.931h7.066v-.406c-.023-1.13-.328-2.004-.914-2.622s-1.418-.927-2.496-.927Z"/><path class="ae" d="M214.918,665.242h-5.098v-27h5.098v27Z"/><path class="ae" d="M219.066,641.3c0-.762.255-1.389.765-1.881s1.204-.738,2.083-.738c.867,0,1.559.246,2.074.738s.773,1.119.773,1.881c0,.773-.261,1.406-.782,1.898s-1.21.738-2.065.738-1.544-.246-2.065-.738-.782-1.125-.782-1.898ZM224.463,665.242h-5.098v-19.02h5.098v19.02Z"/><path class="ae" d="M239.668,665.242c-.234-.457-.404-1.025-.51-1.705-1.23,1.371-2.83,2.057-4.799,2.057-1.863,0-3.407-.539-4.632-1.617s-1.837-2.438-1.837-4.078c0-2.016.747-3.562,2.241-4.641s3.653-1.623,6.478-1.635h2.338v-1.09c0-.879-.226-1.582-.677-2.109s-1.163-.791-2.136-.791c-.855,0-1.526.205-2.013.615s-.729.973-.729,1.688h-5.08c0-1.102.34-2.121,1.02-3.059s1.641-1.673,2.883-2.206,2.637-.8,4.184-.8c2.344,0,4.204.589,5.581,1.767s2.065,2.833,2.065,4.966v8.244c.012,1.805.264,3.17.756,4.096v.299h-5.133ZM235.467,661.709c.75,0,1.441-.167,2.074-.501s1.102-.782,1.406-1.345v-3.27h-1.898c-2.543,0-3.896.879-4.061,2.637l-.018.299c0,.633.223,1.154.668,1.564s1.055.615,1.828.615Z"/><path class="ae" d="M253.308,665.242h-5.098v-27h5.098v27Z"/><path class="ae" d="M268.883,663.308c-1.254,1.523-2.988,2.285-5.203,2.285-2.039,0-3.595-.586-4.667-1.758s-1.62-2.889-1.644-5.15v-12.463h5.08v12.302c0,1.982.902,2.974,2.707,2.974,1.723,0,2.906-.599,3.551-1.795v-13.48h5.098v19.02h-4.781l-.141-1.934Z"/><path class="ae" d="M286.39,665.593c-2.789,0-5.06-.855-6.812-2.566s-2.628-3.99-2.628-6.838v-.492c0-1.91.369-3.618,1.107-5.124s1.784-2.666,3.138-3.48,2.897-1.222,4.632-1.222c2.602,0,4.649.82,6.144,2.461s2.241,3.967,2.241,6.979v2.074h-12.111c.164,1.242.659,2.238,1.485,2.988s1.872,1.125,3.138,1.125c1.957,0,3.486-.709,4.588-2.127l2.496,2.795c-.762,1.078-1.793,1.919-3.094,2.522s-2.742.905-4.324.905ZM285.81,649.966c-1.008,0-1.825.342-2.452,1.024s-1.028,1.659-1.204,2.931h7.066v-.406c-.023-1.13-.328-2.004-.914-2.622s-1.418-.927-2.496-.927Z"/><rect class="t" x="165.154" y="1023.957" width="215.403" height="72.666"/><path class="ae" d="M175.455,1040.691l-2.742,2.953v7.312h-5.273v-25.594h5.273v11.602l2.32-3.182,6.521-8.42h6.486l-9.088,11.373,9.352,14.221h-6.275l-6.574-10.266Z"/><path class="ae" d="M189.922,1027.015c0-.762.255-1.389.765-1.881s1.204-.738,2.083-.738c.867,0,1.559.246,2.074.738s.773,1.119.773,1.881c0,.773-.261,1.406-.782,1.898s-1.21.738-2.065.738-1.544-.246-2.065-.738-.782-1.125-.782-1.898ZM195.318,1050.957h-5.098v-19.02h5.098v19.02Z"/><path class="ae" d="M198.711,1041.271c0-1.887.363-3.568,1.09-5.045s1.772-2.619,3.138-3.428,2.95-1.213,4.755-1.213c2.566,0,4.661.785,6.284,2.355s2.528,3.703,2.716,6.398l.035,1.301c0,2.918-.814,5.259-2.443,7.022s-3.814,2.646-6.557,2.646-4.931-.879-6.565-2.637-2.452-4.148-2.452-7.172v-.229ZM203.791,1041.631c0,1.808.34,3.189,1.02,4.146.68.956,1.652,1.435,2.918,1.435,1.23,0,2.191-.473,2.883-1.417.691-.945,1.037-2.456,1.037-4.533,0-1.772-.346-3.146-1.037-4.12-.691-.974-1.664-1.461-2.918-1.461-1.242,0-2.203.484-2.883,1.452-.68.969-1.02,2.468-1.02,4.498Z"/><path class="ae" d="M230.158,1045.701c0-.621-.308-1.11-.923-1.468s-1.603-.677-2.962-.958c-4.523-.949-6.785-2.871-6.785-5.766,0-1.688.7-3.097,2.101-4.228s3.231-1.696,5.493-1.696c2.414,0,4.345.568,5.792,1.705s2.171,2.613,2.171,4.43h-5.08c0-.727-.234-1.327-.703-1.802s-1.201-.712-2.197-.712c-.855,0-1.518.193-1.986.58s-.703.879-.703,1.477c0,.562.267,1.017.8,1.362s1.433.645,2.698.896,2.332.536,3.199.853c2.684.984,4.025,2.689,4.025,5.115,0,1.734-.744,3.138-2.232,4.21s-3.41,1.608-5.766,1.608c-1.594,0-3.009-.284-4.245-.853s-2.206-1.348-2.909-2.338-1.055-2.06-1.055-3.208h4.816c.047.902.381,1.594,1.002,2.074s1.453.721,2.496.721c.973,0,1.708-.185,2.206-.554s.747-.853.747-1.45Z"/><path class="ae" d="M245.275,1043.328l-1.828,1.828v5.801h-5.08v-27h5.08v14.959l.984-1.266,4.869-5.713h6.1l-6.873,7.928,7.471,11.092h-5.836l-4.887-7.629Z"/><path class="ae" d="M257.562,1027.015c0-.762.255-1.389.765-1.881s1.204-.738,2.083-.738c.867,0,1.559.246,2.074.738s.773,1.119.773,1.881c0,.773-.261,1.406-.782,1.898s-1.21.738-2.065.738-1.544-.246-2.065-.738-.782-1.125-.782-1.898ZM262.959,1050.957h-5.098v-19.02h5.098v19.02Z"/><rect class="t" x="315.458" y="1100.163" width="246.679" height="72.666"/><path class="ae" d="M407.553,1120.449c0-.996-.352-1.761-1.055-2.294s-1.969-1.096-3.797-1.688-3.275-1.175-4.342-1.749c-2.906-1.57-4.359-3.686-4.359-6.346,0-1.383.39-2.616,1.169-3.7s1.898-1.931,3.357-2.54,3.097-.914,4.913-.914c1.828,0,3.457.331,4.887.993s2.54,1.597,3.331,2.804,1.187,2.578,1.187,4.113h-5.273c0-1.172-.369-2.083-1.107-2.733s-1.775-.976-3.111-.976c-1.289,0-2.291.272-3.006.817s-1.072,1.263-1.072,2.153c0,.832.419,1.529,1.257,2.092s2.071,1.09,3.7,1.582c3,.902,5.186,2.021,6.557,3.357s2.057,3,2.057,4.992c0,2.215-.838,3.952-2.514,5.212s-3.932,1.89-6.768,1.89c-1.969,0-3.762-.36-5.379-1.081s-2.851-1.708-3.7-2.962-1.274-2.707-1.274-4.359h5.291c0,2.824,1.688,4.236,5.062,4.236,1.254,0,2.232-.255,2.936-.765s1.055-1.222,1.055-2.136Z"/><path class="ae" d="M422.16,1103.468v4.676h3.252v3.727h-3.252v9.492c0,.703.135,1.207.404,1.512s.785.457,1.547.457c.562,0,1.061-.041,1.494-.123v3.85c-.996.305-2.021.457-3.076.457-3.562,0-5.379-1.799-5.449-5.396v-10.248h-2.777v-3.727h2.777v-4.676h5.08Z"/><path class="ae" d="M439.264,1127.164c-.234-.457-.404-1.025-.51-1.705-1.23,1.371-2.83,2.057-4.799,2.057-1.863,0-3.407-.539-4.632-1.617s-1.837-2.438-1.837-4.078c0-2.016.747-3.562,2.241-4.641s3.653-1.623,6.478-1.635h2.338v-1.09c0-.879-.226-1.582-.677-2.109s-1.163-.791-2.136-.791c-.855,0-1.526.205-2.013.615s-.729.973-.729,1.688h-5.08c0-1.102.34-2.121,1.02-3.059s1.641-1.673,2.883-2.206,2.637-.8,4.184-.8c2.344,0,4.204.589,5.581,1.767s2.065,2.833,2.065,4.966v8.244c.012,1.805.264,3.17.756,4.096v.299h-5.133ZM435.063,1123.63c.75,0,1.441-.167,2.074-.501s1.102-.782,1.406-1.345v-3.27h-1.898c-2.543,0-3.896.879-4.061,2.637l-.018.299c0,.633.223,1.154.668,1.564s1.055.615,1.828.615Z"/><path class="ae" d="M446.805,1117.513c0-2.918.694-5.268,2.083-7.049s3.261-2.672,5.616-2.672c2.086,0,3.709.715,4.869,2.145l.211-1.793h4.605v18.387c0,1.664-.378,3.111-1.134,4.342s-1.819,2.168-3.19,2.812-2.977.967-4.816.967c-1.395,0-2.754-.278-4.078-.835s-2.326-1.274-3.006-2.153l2.25-3.094c1.266,1.418,2.801,2.127,4.605,2.127,1.348,0,2.396-.36,3.146-1.081s1.125-1.743,1.125-3.067v-1.02c-1.172,1.324-2.713,1.986-4.623,1.986-2.285,0-4.134-.894-5.546-2.681s-2.118-4.157-2.118-7.11v-.211ZM451.885,1117.891c0,1.726.346,3.078,1.037,4.059.691.979,1.641,1.47,2.848,1.47,1.547,0,2.654-.581,3.322-1.743v-8.01c-.68-1.162-1.775-1.743-3.287-1.743-1.219,0-2.177.499-2.874,1.497-.697.997-1.046,2.487-1.046,4.471Z"/><path class="ae" d="M476.846,1127.515c-2.789,0-5.06-.855-6.812-2.566s-2.628-3.99-2.628-6.838v-.492c0-1.91.369-3.618,1.107-5.124s1.784-2.666,3.138-3.48,2.897-1.222,4.632-1.222c2.602,0,4.649.82,6.144,2.461s2.241,3.967,2.241,6.979v2.074h-12.111c.164,1.242.659,2.238,1.485,2.988s1.872,1.125,3.138,1.125c1.957,0,3.486-.709,4.588-2.127l2.496,2.795c-.762,1.078-1.793,1.919-3.094,2.522s-2.742.905-4.324.905ZM476.266,1111.888c-1.008,0-1.825.342-2.452,1.024s-1.028,1.659-1.204,2.931h7.066v-.406c-.023-1.13-.328-2.004-.914-2.622s-1.418-.927-2.496-.927Z"/><rect class="t" x="-25.175" y="1223.999" width="246.679" height="72.666"/><path class="ae" d="M72.211,1246.763h11.197v4.236h-16.471v-25.594h5.273v21.357Z"/><path class="ae" d="M101.215,1245.726h-9.246l-1.758,5.273h-5.607l9.527-25.594h4.887l9.58,25.594h-5.607l-1.775-5.273ZM93.392,1241.455h6.398l-3.217-9.58-3.182,9.58Z"/><path class="ae" d="M110.988,1251v-25.594h8.965c3.105,0,5.461.595,7.066,1.784s2.408,2.933,2.408,5.229c0,1.254-.322,2.358-.967,3.313s-1.541,1.655-2.689,2.101c1.312.328,2.347.99,3.103,1.986s1.134,2.215,1.134,3.656c0,2.461-.785,4.324-2.355,5.59s-3.809,1.91-6.715,1.934h-9.949ZM116.262,1236.128h3.902c2.66-.047,3.99-1.107,3.99-3.182,0-1.16-.337-1.995-1.011-2.505s-1.737-.765-3.19-.765h-3.691v6.451ZM116.262,1239.855v6.908h4.518c1.242,0,2.212-.296,2.909-.888s1.046-1.409,1.046-2.452c0-2.344-1.213-3.533-3.639-3.568h-4.834Z"/><path class="ae" d="M78.389,1288.926h-9.246l-1.758,5.273h-5.607l9.527-25.594h4.887l9.58,25.594h-5.607l-1.775-5.273ZM70.567,1284.655h6.398l-3.217-9.58-3.182,9.58Z"/><path class="ae" d="M99.026,1292.266c-1.254,1.523-2.988,2.285-5.203,2.285-2.039,0-3.595-.586-4.667-1.758s-1.62-2.889-1.644-5.15v-12.463h5.08v12.302c0,1.982.902,2.974,2.707,2.974,1.723,0,2.906-.599,3.551-1.795v-13.48h5.098v19.02h-4.781l-.141-1.934Z"/><path class="ae" d="M113.141,1294.2h-5.098v-27h5.098v27Z"/><path class="ae" d="M128.347,1294.2c-.234-.457-.404-1.025-.51-1.705-1.23,1.371-2.83,2.057-4.799,2.057-1.863,0-3.407-.539-4.632-1.617s-1.837-2.438-1.837-4.078c0-2.016.747-3.562,2.241-4.641s3.653-1.623,6.478-1.635h2.338v-1.09c0-.879-.226-1.582-.677-2.109s-1.163-.791-2.136-.791c-.855,0-1.526.205-2.013.615s-.729.973-.729,1.688h-5.08c0-1.102.34-2.121,1.02-3.059s1.641-1.673,2.883-2.206,2.637-.8,4.184-.8c2.344,0,4.204.589,5.581,1.767s2.065,2.833,2.065,4.966v8.244c.012,1.805.264,3.17.756,4.096v.299h-5.133ZM124.145,1290.667c.75,0,1.441-.167,2.074-.501s1.102-.782,1.406-1.345v-3.27h-1.898c-2.543,0-3.896.879-4.061,2.637l-.018.299c0,.633.223,1.154.668,1.564s1.055.615,1.828.615Z"/><rect class="t" x="815.652" y="1223.512" width="246.679" height="72.666"/><path class="ae" d="M850.97,1286.998c0-.996-.352-1.761-1.055-2.294s-1.969-1.096-3.797-1.688-3.275-1.175-4.342-1.749c-2.906-1.57-4.359-3.686-4.359-6.346,0-1.383.39-2.616,1.169-3.7s1.898-1.931,3.357-2.54,3.097-.914,4.913-.914c1.828,0,3.457.331,4.887.993s2.54,1.597,3.331,2.804,1.187,2.578,1.187,4.113h-5.273c0-1.172-.369-2.083-1.107-2.733s-1.775-.976-3.111-.976c-1.289,0-2.291.272-3.006.817s-1.072,1.263-1.072,2.153c0,.832.419,1.529,1.257,2.092s2.071,1.09,3.7,1.582c3,.902,5.186,2.021,6.557,3.357s2.057,3,2.057,4.992c0,2.215-.838,3.952-2.514,5.212s-3.932,1.89-6.768,1.89c-1.969,0-3.762-.36-5.379-1.081s-2.851-1.708-3.7-2.962-1.274-2.707-1.274-4.359h5.291c0,2.824,1.688,4.236,5.062,4.236,1.254,0,2.232-.255,2.936-.765s1.055-1.222,1.055-2.136Z"/><path class="ae" d="M859.46,1269.771c0-.762.255-1.389.765-1.881s1.204-.738,2.083-.738c.867,0,1.559.246,2.074.738s.773,1.119.773,1.881c0,.773-.261,1.406-.782,1.898s-1.21.738-2.065.738-1.544-.246-2.065-.738-.782-1.125-.782-1.898ZM864.856,1293.712h-5.098v-19.02h5.098v19.02Z"/><path class="ae" d="M879.341,1288.457c0-.621-.308-1.11-.923-1.468s-1.603-.677-2.962-.958c-4.523-.949-6.785-2.871-6.785-5.766,0-1.688.7-3.097,2.101-4.228s3.231-1.696,5.493-1.696c2.414,0,4.345.568,5.792,1.705s2.171,2.613,2.171,4.43h-5.08c0-.727-.234-1.327-.703-1.802s-1.201-.712-2.197-.712c-.855,0-1.518.193-1.986.58s-.703.879-.703,1.477c0,.562.267,1.017.8,1.362s1.433.645,2.698.896,2.332.536,3.199.853c2.684.984,4.025,2.689,4.025,5.115,0,1.734-.744,3.138-2.232,4.21s-3.41,1.608-5.766,1.608c-1.594,0-3.009-.284-4.245-.853s-2.206-1.348-2.909-2.338-1.055-2.06-1.055-3.208h4.816c.047.902.381,1.594,1.002,2.074s1.453.721,2.496.721c.973,0,1.708-.185,2.206-.554s.747-.853.747-1.45Z"/><path class="ae" d="M898.571,1293.712c-.234-.457-.404-1.025-.51-1.705-1.23,1.371-2.83,2.057-4.799,2.057-1.863,0-3.407-.539-4.632-1.617s-1.837-2.438-1.837-4.078c0-2.016.747-3.562,2.241-4.641s3.653-1.623,6.478-1.635h2.338v-1.09c0-.879-.226-1.582-.677-2.109s-1.163-.791-2.136-.791c-.855,0-1.526.205-2.013.615s-.729.973-.729,1.688h-5.08c0-1.102.34-2.121,1.02-3.059s1.641-1.673,2.883-2.206,2.637-.8,4.184-.8c2.344,0,4.204.589,5.581,1.767s2.065,2.833,2.065,4.966v8.244c.012,1.805.264,3.17.756,4.096v.299h-5.133ZM893.438,1269.709c0,.624-.229,1.15-.686,1.579-.457.43-1.043.645-1.758.645-.727,0-1.312-.218-1.758-.653-.445-.435-.668-.958-.668-1.57s.223-1.138.668-1.579,1.031-.662,1.758-.662,1.315.221,1.767.662.677.968.677,1.579ZM894.37,1290.179c.75,0,1.441-.167,2.074-.501s1.102-.782,1.406-1.345v-3.27h-1.898c-2.543,0-3.896.879-4.061,2.637l-.018.299c0,.633.223,1.154.668,1.564s1.055.615,1.828.615ZM897.13,1269.709c0-.636.237-1.168.712-1.597.475-.43,1.052-.645,1.731-.645.691,0,1.269.218,1.731.653s.694.965.694,1.588c0,.612-.223,1.139-.668,1.579-.445.441-1.031.662-1.758.662s-1.315-.221-1.767-.662c-.451-.44-.677-.967-.677-1.579Z"/><rect class="t" x="69.87" y="639.286" width="80.983" height="72.666"/><path class="ae" d="M105.062,658.903l3.445-18.211h5.256l-5.678,25.594h-5.309l-4.166-17.121-4.166,17.121h-5.309l-5.678-25.594h5.256l3.463,18.176,4.219-18.176h4.465l4.201,18.211Z"/><path class="ae" d="M136.702,657.76c-.199,2.754-1.216,4.922-3.05,6.504s-4.251,2.373-7.251,2.373c-3.281,0-5.862-1.104-7.743-3.313s-2.821-5.241-2.821-9.097v-1.564c0-2.461.434-4.629,1.301-6.504s2.106-3.313,3.718-4.315,3.483-1.503,5.616-1.503c2.953,0,5.332.791,7.137,2.373s2.848,3.803,3.129,6.662h-5.273c-.129-1.652-.589-2.851-1.38-3.595s-1.995-1.116-3.612-1.116c-1.758,0-3.073.63-3.946,1.89s-1.321,3.214-1.345,5.862v1.934c0,2.766.419,4.787,1.257,6.064s2.159,1.916,3.964,1.916c1.629,0,2.845-.372,3.647-1.116s1.263-1.896,1.38-3.454h5.273Z"/></g><path class="ag" d="M220.033,536.158h-10.301v10.846h-4.447v-25.594h16.26v3.586h-11.812v7.611h10.301v3.551Z"/><path class="af" d="M326.096,535.578h-10.512v7.875h12.287v3.551h-16.734v-25.594h16.611v3.586h-12.164v7.066h10.512v3.516Z"/><path class="af" d="M417.785,547.004v-25.594h7.559c2.262,0,4.269.504,6.021,1.512s3.108,2.438,4.069,4.289,1.441,3.973,1.441,6.363v1.283c0,2.426-.483,4.559-1.45,6.398s-2.344,3.258-4.131,4.254-3.835,1.494-6.144,1.494h-7.365ZM422.233,524.996v18.457h2.9c2.332,0,4.122-.729,5.37-2.188s1.884-3.554,1.907-6.284v-1.424c0-2.777-.604-4.898-1.811-6.363s-2.959-2.197-5.256-2.197h-3.111Z"/><path class="af" d="M544.823,538.672c-.258,2.73-1.266,4.86-3.023,6.39-1.758,1.529-4.096,2.294-7.014,2.294-2.039,0-3.835-.483-5.388-1.45s-2.751-2.341-3.595-4.122-1.283-3.85-1.318-6.205v-2.391c0-2.414.428-4.541,1.283-6.381s2.083-3.258,3.683-4.254,3.448-1.494,5.546-1.494c2.824,0,5.098.765,6.82,2.294s2.725,3.694,3.006,6.495h-4.43c-.211-1.84-.747-3.167-1.608-3.981s-2.124-1.222-3.788-1.222c-1.934,0-3.419.707-4.456,2.12s-1.567,3.487-1.591,6.22v2.27c0,2.768.495,4.879,1.485,6.334s2.44,2.182,4.351,2.182c1.746,0,3.059-.393,3.938-1.178s1.436-2.092,1.67-3.92h4.43Z"/><path class="af" d="M632.785,547.004v-25.594h8.771c2.895,0,5.098.58,6.609,1.74s2.268,2.889,2.268,5.186c0,1.172-.316,2.227-.949,3.164s-1.559,1.664-2.777,2.18c1.383.375,2.452,1.081,3.208,2.118s1.134,2.282,1.134,3.735c0,2.402-.771,4.248-2.312,5.537s-3.747,1.934-6.618,1.934h-9.334ZM637.232,532.186h4.359c1.383,0,2.464-.313,3.243-.94s1.169-1.515,1.169-2.663c0-1.266-.36-2.18-1.081-2.742s-1.843-.844-3.366-.844h-4.324v7.189ZM637.232,535.455v7.998h4.939c1.395,0,2.484-.346,3.27-1.037s1.178-1.652,1.178-2.883c0-2.66-1.359-4.02-4.078-4.078h-5.309Z"/><path class="af" d="M753.81,541.045h-9.914l-2.074,5.959h-4.623l9.668-25.594h3.99l9.686,25.594h-4.641l-2.092-5.959ZM745.144,537.459h7.418l-3.709-10.617-3.709,10.617Z"/><path class="af" d="M649.804,633.404h-4.43v-11.355h-11.443v11.355h-4.447v-25.594h4.447v10.652h11.443v-10.652h4.43v25.594Z"/><path class="af" d="M758.556,630.082c-.926,1.207-2.209,2.121-3.85,2.742s-3.504.932-5.59.932c-2.145,0-4.043-.486-5.695-1.459s-2.927-2.364-3.823-4.175-1.362-3.923-1.397-6.337v-2.004c0-3.867.926-6.888,2.777-9.062s4.436-3.261,7.752-3.261c2.848,0,5.109.706,6.785,2.118s2.684,3.442,3.023,6.091h-4.359c-.492-3.082-2.279-4.623-5.361-4.623-1.992,0-3.507.717-4.544,2.151s-1.573,3.539-1.608,6.313v1.967c0,2.764.583,4.909,1.749,6.437,1.166,1.528,2.786,2.292,4.86,2.292,2.273,0,3.891-.516,4.852-1.547v-5.01h-5.273v-3.375h9.703v9.809Z"/><g id="r"><path class="ad" d="M253.172,1098.242l-23.908,33.084c-1.912,2.645-.021,6.343,3.242,6.343h5.215c2.209,0,4,1.791,4,4v97.258c0,2.209,1.791,4,4,4h10.693s10.693,0,10.693,0c2.209,0,4-1.791,4-4v-97.258c0-2.209,1.791-4,4-4h5.215c3.264,0,5.154-3.698,3.242-6.343l-23.908-33.084c-1.597-2.21-4.887-2.21-6.484,0Z"/><path class="ab" d="M830.016,1253.62h55.018c2.209,0,4-1.791,4-4v-10.693s0-10.693,0-10.693c0-2.209-1.791-4-4-4h-55.018"/><path class="ab" d="M697.586,1224.235h-52.986c-2.209,0-4-1.791-4-4v-5.215c0-3.264-3.698-5.154-6.343-3.242l-33.084,23.908c-2.21,1.597-2.21,4.887,0,6.484l33.084,23.908c2.645,1.912,6.343.021,6.343-3.242v-5.215c0-2.209,1.791-4,4-4h52.986"/><path class="ab" d="M125.054,632.382v-85.378c0-2.209,1.791-4,4-4h5.215c3.264,0,5.154-3.698,3.242-6.343l-23.908-33.084c-1.597-2.21-4.887-2.21-6.484,0l-23.908,33.084c-1.912,2.645-.021,6.343,3.242,6.343h5.215c2.209,0,4,1.791,4,4v85.378"/><path class="ab" d="M95.669,674.575v100.601c0,2.209,1.791,4,4,4h10.693s10.693,0,10.693,0c2.209,0,4-1.791,4-4v-100.601"/><path class="u" d="M253.172,1098.242l-23.908,33.084c-1.912,2.645-.021,6.343,3.242,6.343h5.215c2.209,0,4,1.791,4,4v97.258c0,2.209,1.791,4,4,4h10.693s10.693,0,10.693,0c2.209,0,4-1.791,4-4v-97.258c0-2.209,1.791-4,4-4h5.215c3.264,0,5.154-3.698,3.242-6.343l-23.908-33.084c-1.597-2.21-4.887-2.21-6.484,0Z"/><path class="u" d="M830.016,1253.62h55.018c2.209,0,4-1.791,4-4v-10.693s0-10.693,0-10.693c0-2.209-1.791-4-4-4h-55.018"/><path class="u" d="M830.016,1253.62h55.018c2.209,0,4-1.791,4-4v-10.693s0-10.693,0-10.693c0-2.209-1.791-4-4-4h-55.018"/><path class="u" d="M697.586,1224.235h-52.986c-2.209,0-4-1.791-4-4v-5.215c0-3.264-3.698-5.154-6.343-3.242l-33.084,23.908c-2.21,1.597-2.21,4.887,0,6.484l33.084,23.908c2.645,1.912,6.343.021,6.343-3.242v-5.215c0-2.209,1.791-4,4-4h52.986"/><path class="u" d="M697.586,1224.235h-52.986c-2.209,0-4-1.791-4-4v-5.215c0-3.264-3.698-5.154-6.343-3.242l-33.084,23.908c-2.21,1.597-2.21,4.887,0,6.484l33.084,23.908c2.645,1.912,6.343.021,6.343-3.242v-5.215c0-2.209,1.791-4,4-4h52.986"/><path class="u" d="M125.054,632.382v-85.378c0-2.209,1.791-4,4-4h5.215c3.264,0,5.154-3.698,3.242-6.343l-23.908-33.084c-1.597-2.21-4.887-2.21-6.484,0l-23.908,33.084c-1.912,2.645-.021,6.343,3.242,6.343h5.215c2.209,0,4,1.791,4,4v85.378"/><path class="u" d="M125.054,632.382v-85.378c0-2.209,1.791-4,4-4h5.215c3.264,0,5.154-3.698,3.242-6.343l-23.908-33.084c-1.597-2.21-4.887-2.21-6.484,0l-23.908,33.084c-1.912,2.645-.021,6.343,3.242,6.343h5.215c2.209,0,4,1.791,4,4v85.378"/><path class="u" d="M95.669,674.575v100.601c0,2.209,1.791,4,4,4h10.693s10.693,0,10.693,0c2.209,0,4-1.791,4-4v-100.601"/><path class="u" d="M95.669,674.575v100.601c0,2.209,1.791,4,4,4h10.693s10.693,0,10.693,0c2.209,0,4-1.791,4-4v-100.601"/></g><path class="x" d="M530.722,998.015c-60.268-15.764-123.58-15.764-183.848,0-2.17.567-4.4-.676-4.988-2.806-10.377-37.934-20.755-75.867-31.132-113.801-.587-2.129,1.308-4.508,4.241-5.275,81.169-21.231,166.438-21.231,247.607,0,2.933.767,4.828,3.146,4.241,5.275-10.377,37.934-20.755,75.867-31.132,113.801-.588,2.13-2.818,3.373-4.988,2.806Z"/></g></svg>