<?xml version="1.0" encoding="UTF-8"?><svg xmlns="http://www.w3.org/2000/svg" width="836.33605" height="1190.55115" viewBox="0 0 836.33605 1190.55115"><defs><style>.n{fill:#231f20;}.o,.p{fill:none;stroke:#231f20;stroke-width:5px;}.p{stroke-linecap:round;stroke-miterlimit:10;}</style></defs><g id="a"><g id="b"><rect class="o" x="656.71119" y="60.95464" width="42.90071" height="286.00474" rx="4" ry="4"/><line class="o" x1="699.6119" y1="96.70524" x2="656.71119" y2="96.70524"/><line class="o" x1="699.6119" y1="311.20879" x2="656.71119" y2="311.20879"/><line class="o" x1="699.6119" y1="132.45583" x2="656.71119" y2="132.45583"/><line class="o" x1="699.6119" y1="168.20642" x2="656.71119" y2="168.20642"/><line class="o" x1="699.6119" y1="203.95701" x2="656.71119" y2="203.95701"/><line class="o" x1="699.6119" y1="239.70761" x2="656.71119" y2="239.70761"/><line class="o" x1="699.6119" y1="275.4582" x2="656.71119" y2="275.4582"/><line class="o" x1="678.16154" y1="60.95464" x2="678.16154" y2="346.95939"/><rect class="o" x="656.71119" y="60.95464" width="42.90071" height="286.00474" rx="4" ry="4"/><line class="o" x1="699.6119" y1="96.70524" x2="656.71119" y2="96.70524"/><line class="o" x1="699.6119" y1="311.20879" x2="656.71119" y2="311.20879"/><line class="o" x1="699.6119" y1="132.45583" x2="656.71119" y2="132.45583"/><line class="o" x1="699.6119" y1="168.20642" x2="656.71119" y2="168.20642"/><line class="o" x1="699.6119" y1="203.95701" x2="656.71119" y2="203.95701"/><line class="o" x1="699.6119" y1="239.70761" x2="656.71119" y2="239.70761"/><line class="o" x1="699.6119" y1="275.4582" x2="656.71119" y2="275.4582"/><line class="o" x1="678.16154" y1="60.95464" x2="678.16154" y2="346.95939"/><rect class="o" x="656.71119" y="60.95464" width="42.90071" height="286.00474" rx="4" ry="4"/><line class="o" x1="699.6119" y1="96.70524" x2="656.71119" y2="96.70524"/><line class="o" x1="699.6119" y1="311.20879" x2="656.71119" y2="311.20879"/><line class="o" x1="699.6119" y1="132.45583" x2="656.71119" y2="132.45583"/><line class="o" x1="699.6119" y1="168.20642" x2="656.71119" y2="168.20642"/><line class="o" x1="699.6119" y1="203.95701" x2="656.71119" y2="203.95701"/><line class="o" x1="699.6119" y1="239.70761" x2="656.71119" y2="239.70761"/><line class="o" x1="699.6119" y1="275.4582" x2="656.71119" y2="275.4582"/><line class="o" x1="678.16154" y1="60.95464" x2="678.16154" y2="346.95939"/><rect class="o" x="549.46119" y="60.95464" width="42.90071" height="286.00474" rx="4" ry="4"/><line class="o" x1="592.3619" y1="96.70524" x2="549.46119" y2="96.70524"/><line class="o" x1="592.3619" y1="311.20879" x2="549.46119" y2="311.20879"/><line class="o" x1="592.3619" y1="132.45583" x2="549.46119" y2="132.45583"/><line class="o" x1="592.3619" y1="168.20642" x2="549.46119" y2="168.20642"/><line class="o" x1="592.3619" y1="203.95701" x2="549.46119" y2="203.95701"/><line class="o" x1="592.3619" y1="239.70761" x2="549.46119" y2="239.70761"/><line class="o" x1="592.3619" y1="275.4582" x2="549.46119" y2="275.4582"/><line class="o" x1="570.91154" y1="60.95464" x2="570.91154" y2="346.95939"/><rect class="o" x="549.46119" y="60.95464" width="42.90071" height="286.00474" rx="4" ry="4"/><line class="o" x1="592.3619" y1="96.70524" x2="549.46119" y2="96.70524"/><line class="o" x1="592.3619" y1="311.20879" x2="549.46119" y2="311.20879"/><line class="o" x1="592.3619" y1="132.45583" x2="549.46119" y2="132.45583"/><line class="o" x1="592.3619" y1="168.20642" x2="549.46119" y2="168.20642"/><line class="o" x1="592.3619" y1="203.95701" x2="549.46119" y2="203.95701"/><line class="o" x1="592.3619" y1="239.70761" x2="549.46119" y2="239.70761"/><line class="o" x1="592.3619" y1="275.4582" x2="549.46119" y2="275.4582"/><line class="o" x1="570.91154" y1="60.95464" x2="570.91154" y2="346.95939"/><rect class="o" x="549.46119" y="60.95464" width="42.90071" height="286.00474" rx="4" ry="4"/><line class="o" x1="592.3619" y1="96.70524" x2="549.46119" y2="96.70524"/><line class="o" x1="592.3619" y1="311.20879" x2="549.46119" y2="311.20879"/><line class="o" x1="592.3619" y1="132.45583" x2="549.46119" y2="132.45583"/><line class="o" x1="592.3619" y1="168.20642" x2="549.46119" y2="168.20642"/><line class="o" x1="592.3619" y1="203.95701" x2="549.46119" y2="203.95701"/><line class="o" x1="592.3619" y1="239.70761" x2="549.46119" y2="239.70761"/><line class="o" x1="592.3619" y1="275.4582" x2="549.46119" y2="275.4582"/><line class="o" x1="570.91154" y1="60.95464" x2="570.91154" y2="346.95939"/><rect class="o" x="442.21119" y="60.95464" width="42.90071" height="286.00474" rx="4" ry="4"/><line class="o" x1="485.1119" y1="96.70524" x2="442.21119" y2="96.70524"/><line class="o" x1="485.1119" y1="311.20879" x2="442.21119" y2="311.20879"/><line class="o" x1="485.1119" y1="132.45583" x2="442.21119" y2="132.45583"/><line class="o" x1="485.1119" y1="168.20642" x2="442.21119" y2="168.20642"/><line class="o" x1="485.1119" y1="203.95701" x2="442.21119" y2="203.95701"/><line class="o" x1="485.1119" y1="239.70761" x2="442.21119" y2="239.70761"/><line class="o" x1="485.1119" y1="275.4582" x2="442.21119" y2="275.4582"/><line class="o" x1="463.66154" y1="60.95464" x2="463.66154" y2="346.95939"/><rect class="o" x="442.21119" y="60.95464" width="42.90071" height="286.00474" rx="4" ry="4"/><line class="o" x1="485.1119" y1="96.70524" x2="442.21119" y2="96.70524"/><line class="o" x1="485.1119" y1="311.20879" x2="442.21119" y2="311.20879"/><line class="o" x1="485.1119" y1="132.45583" x2="442.21119" y2="132.45583"/><line class="o" x1="485.1119" y1="168.20642" x2="442.21119" y2="168.20642"/><line class="o" x1="485.1119" y1="203.95701" x2="442.21119" y2="203.95701"/><line class="o" x1="485.1119" y1="239.70761" x2="442.21119" y2="239.70761"/><line class="o" x1="485.1119" y1="275.4582" x2="442.21119" y2="275.4582"/><line class="o" x1="463.66154" y1="60.95464" x2="463.66154" y2="346.95939"/><rect class="o" x="442.21119" y="60.95464" width="42.90071" height="286.00474" rx="4" ry="4"/><line class="o" x1="485.1119" y1="96.70524" x2="442.21119" y2="96.70524"/><line class="o" x1="485.1119" y1="311.20879" x2="442.21119" y2="311.20879"/><line class="o" x1="485.1119" y1="132.45583" x2="442.21119" y2="132.45583"/><line class="o" x1="485.1119" y1="168.20642" x2="442.21119" y2="168.20642"/><line class="o" x1="485.1119" y1="203.95701" x2="442.21119" y2="203.95701"/><line class="o" x1="485.1119" y1="239.70761" x2="442.21119" y2="239.70761"/><line class="o" x1="485.1119" y1="275.4582" x2="442.21119" y2="275.4582"/><line class="o" x1="463.66154" y1="60.95464" x2="463.66154" y2="346.95939"/><rect class="o" x="334.96119" y="60.95464" width="42.90071" height="286.00474" rx="4" ry="4"/><line class="o" x1="377.8619" y1="96.70524" x2="334.96119" y2="96.70524"/><line class="o" x1="377.8619" y1="311.20879" x2="334.96119" y2="311.20879"/><line class="o" x1="377.8619" y1="132.45583" x2="334.96119" y2="132.45583"/><line class="o" x1="377.8619" y1="168.20642" x2="334.96119" y2="168.20642"/><line class="o" x1="377.8619" y1="203.95701" x2="334.96119" y2="203.95701"/><line class="o" x1="377.8619" y1="239.70761" x2="334.96119" y2="239.70761"/><line class="o" x1="377.8619" y1="275.4582" x2="334.96119" y2="275.4582"/><line class="o" x1="356.41154" y1="60.95464" x2="356.41154" y2="346.95939"/><rect class="o" x="334.96119" y="60.95464" width="42.90071" height="286.00474" rx="4" ry="4"/><line class="o" x1="377.8619" y1="96.70524" x2="334.96119" y2="96.70524"/><line class="o" x1="377.8619" y1="311.20879" x2="334.96119" y2="311.20879"/><line class="o" x1="377.8619" y1="132.45583" x2="334.96119" y2="132.45583"/><line class="o" x1="377.8619" y1="168.20642" x2="334.96119" y2="168.20642"/><line class="o" x1="377.8619" y1="203.95701" x2="334.96119" y2="203.95701"/><line class="o" x1="377.8619" y1="239.70761" x2="334.96119" y2="239.70761"/><line class="o" x1="377.8619" y1="275.4582" x2="334.96119" y2="275.4582"/><line class="o" x1="356.41154" y1="60.95464" x2="356.41154" y2="346.95939"/><rect class="o" x="334.96119" y="60.95464" width="42.90071" height="286.00474" rx="4" ry="4"/><line class="o" x1="377.8619" y1="96.70524" x2="334.96119" y2="96.70524"/><line class="o" x1="377.8619" y1="311.20879" x2="334.96119" y2="311.20879"/><line class="o" x1="377.8619" y1="132.45583" x2="334.96119" y2="132.45583"/><line class="o" x1="377.8619" y1="168.20642" x2="334.96119" y2="168.20642"/><line class="o" x1="377.8619" y1="203.95701" x2="334.96119" y2="203.95701"/><line class="o" x1="377.8619" y1="239.70761" x2="334.96119" y2="239.70761"/><line class="o" x1="377.8619" y1="275.4582" x2="334.96119" y2="275.4582"/><line class="o" x1="356.41154" y1="60.95464" x2="356.41154" y2="346.95939"/><rect class="o" x="227.71119" y="60.95464" width="42.90071" height="286.00474" rx="4" ry="4"/><line class="o" x1="270.6119" y1="96.70524" x2="227.71119" y2="96.70524"/><line class="o" x1="270.6119" y1="311.20879" x2="227.71119" y2="311.20879"/><line class="o" x1="270.6119" y1="132.45583" x2="227.71119" y2="132.45583"/><line class="o" x1="270.6119" y1="168.20642" x2="227.71119" y2="168.20642"/><line class="o" x1="270.6119" y1="203.95701" x2="227.71119" y2="203.95701"/><line class="o" x1="270.6119" y1="239.70761" x2="227.71119" y2="239.70761"/><line class="o" x1="270.6119" y1="275.4582" x2="227.71119" y2="275.4582"/><line class="o" x1="249.16154" y1="60.95464" x2="249.16154" y2="346.95939"/><rect class="o" x="227.71119" y="60.95464" width="42.90071" height="286.00474" rx="4" ry="4"/><line class="o" x1="270.6119" y1="96.70524" x2="227.71119" y2="96.70524"/><line class="o" x1="270.6119" y1="311.20879" x2="227.71119" y2="311.20879"/><line class="o" x1="270.6119" y1="132.45583" x2="227.71119" y2="132.45583"/><line class="o" x1="270.6119" y1="168.20642" x2="227.71119" y2="168.20642"/><line class="o" x1="270.6119" y1="203.95701" x2="227.71119" y2="203.95701"/><line class="o" x1="270.6119" y1="239.70761" x2="227.71119" y2="239.70761"/><line class="o" x1="270.6119" y1="275.4582" x2="227.71119" y2="275.4582"/><line class="o" x1="249.16154" y1="60.95464" x2="249.16154" y2="346.95939"/><rect class="o" x="227.71119" y="60.95464" width="42.90071" height="286.00474" rx="4" ry="4"/><line class="o" x1="270.6119" y1="96.70524" x2="227.71119" y2="96.70524"/><line class="o" x1="270.6119" y1="311.20879" x2="227.71119" y2="311.20879"/><line class="o" x1="270.6119" y1="132.45583" x2="227.71119" y2="132.45583"/><line class="o" x1="270.6119" y1="168.20642" x2="227.71119" y2="168.20642"/><line class="o" x1="270.6119" y1="203.95701" x2="227.71119" y2="203.95701"/><line class="o" x1="270.6119" y1="239.70761" x2="227.71119" y2="239.70761"/><line class="o" x1="270.6119" y1="275.4582" x2="227.71119" y2="275.4582"/><line class="o" x1="249.16154" y1="60.95464" x2="249.16154" y2="346.95939"/><rect class="o" x="120.46119" y="60.95464" width="42.90071" height="286.00474" rx="4" ry="4"/><line class="o" x1="163.3619" y1="96.70524" x2="120.46119" y2="96.70524"/><line class="o" x1="163.3619" y1="311.20879" x2="120.46119" y2="311.20879"/><line class="o" x1="163.3619" y1="132.45583" x2="120.46119" y2="132.45583"/><line class="o" x1="163.3619" y1="168.20642" x2="120.46119" y2="168.20642"/><line class="o" x1="163.3619" y1="203.95701" x2="120.46119" y2="203.95701"/><line class="o" x1="163.3619" y1="239.70761" x2="120.46119" y2="239.70761"/><line class="o" x1="163.3619" y1="275.4582" x2="120.46119" y2="275.4582"/><line class="o" x1="141.91154" y1="60.95464" x2="141.91154" y2="346.95939"/><rect class="o" x="120.46119" y="60.95464" width="42.90071" height="286.00474" rx="4" ry="4"/><line class="o" x1="163.3619" y1="96.70524" x2="120.46119" y2="96.70524"/><line class="o" x1="163.3619" y1="311.20879" x2="120.46119" y2="311.20879"/><line class="o" x1="163.3619" y1="132.45583" x2="120.46119" y2="132.45583"/><line class="o" x1="163.3619" y1="168.20642" x2="120.46119" y2="168.20642"/><line class="o" x1="163.3619" y1="203.95701" x2="120.46119" y2="203.95701"/><line class="o" x1="163.3619" y1="239.70761" x2="120.46119" y2="239.70761"/><line class="o" x1="163.3619" y1="275.4582" x2="120.46119" y2="275.4582"/><line class="o" x1="141.91154" y1="60.95464" x2="141.91154" y2="346.95939"/><rect class="o" x="120.46119" y="60.95464" width="42.90071" height="286.00474" rx="4" ry="4"/><line class="o" x1="163.3619" y1="96.70524" x2="120.46119" y2="96.70524"/><line class="o" x1="163.3619" y1="311.20879" x2="120.46119" y2="311.20879"/><line class="o" x1="163.3619" y1="132.45583" x2="120.46119" y2="132.45583"/><line class="o" x1="163.3619" y1="168.20642" x2="120.46119" y2="168.20642"/><line class="o" x1="163.3619" y1="203.95701" x2="120.46119" y2="203.95701"/><line class="o" x1="163.3619" y1="239.70761" x2="120.46119" y2="239.70761"/><line class="o" x1="163.3619" y1="275.4582" x2="120.46119" y2="275.4582"/><line class="o" x1="141.91154" y1="60.95464" x2="141.91154" y2="346.95939"/></g><g id="c"><rect class="o" x="656.7183" y="826.01733" width="42.90071" height="286.00474" rx="4" ry="4"/><line class="o" x1="699.61901" y1="861.76792" x2="656.7183" y2="861.76792"/><line class="o" x1="699.61901" y1="1076.27148" x2="656.7183" y2="1076.27148"/><line class="o" x1="699.61901" y1="897.51851" x2="656.7183" y2="897.51851"/><line class="o" x1="699.61901" y1="933.26911" x2="656.7183" y2="933.26911"/><line class="o" x1="699.61901" y1="969.0197" x2="656.7183" y2="969.0197"/><line class="o" x1="699.61901" y1="1004.77029" x2="656.7183" y2="1004.77029"/><line class="o" x1="699.61901" y1="1040.52088" x2="656.7183" y2="1040.52088"/><line class="o" x1="678.16865" y1="826.01733" x2="678.16865" y2="1112.02207"/><rect class="o" x="656.7183" y="826.01733" width="42.90071" height="286.00474" rx="4" ry="4"/><line class="o" x1="699.61901" y1="861.76792" x2="656.7183" y2="861.76792"/><line class="o" x1="699.61901" y1="1076.27148" x2="656.7183" y2="1076.27148"/><line class="o" x1="699.61901" y1="897.51851" x2="656.7183" y2="897.51851"/><line class="o" x1="699.61901" y1="933.26911" x2="656.7183" y2="933.26911"/><line class="o" x1="699.61901" y1="969.0197" x2="656.7183" y2="969.0197"/><line class="o" x1="699.61901" y1="1004.77029" x2="656.7183" y2="1004.77029"/><line class="o" x1="699.61901" y1="1040.52088" x2="656.7183" y2="1040.52088"/><line class="o" x1="678.16865" y1="826.01733" x2="678.16865" y2="1112.02207"/><rect class="o" x="656.7183" y="826.01733" width="42.90071" height="286.00474" rx="4" ry="4"/><line class="o" x1="699.61901" y1="861.76792" x2="656.7183" y2="861.76792"/><line class="o" x1="699.61901" y1="1076.27148" x2="656.7183" y2="1076.27148"/><line class="o" x1="699.61901" y1="897.51851" x2="656.7183" y2="897.51851"/><line class="o" x1="699.61901" y1="933.26911" x2="656.7183" y2="933.26911"/><line class="o" x1="699.61901" y1="969.0197" x2="656.7183" y2="969.0197"/><line class="o" x1="699.61901" y1="1004.77029" x2="656.7183" y2="1004.77029"/><line class="o" x1="699.61901" y1="1040.52088" x2="656.7183" y2="1040.52088"/><line class="o" x1="678.16865" y1="826.01733" x2="678.16865" y2="1112.02207"/><rect class="o" x="549.4683" y="826.01733" width="42.90071" height="286.00474" rx="4" ry="4"/><line class="o" x1="592.36901" y1="861.76792" x2="549.4683" y2="861.76792"/><line class="o" x1="592.36901" y1="1076.27148" x2="549.4683" y2="1076.27148"/><line class="o" x1="592.36901" y1="897.51851" x2="549.4683" y2="897.51851"/><line class="o" x1="592.36901" y1="933.26911" x2="549.4683" y2="933.26911"/><line class="o" x1="592.36901" y1="969.0197" x2="549.4683" y2="969.0197"/><line class="o" x1="592.36901" y1="1004.77029" x2="549.4683" y2="1004.77029"/><line class="o" x1="592.36901" y1="1040.52088" x2="549.4683" y2="1040.52088"/><line class="o" x1="570.91865" y1="826.01733" x2="570.91865" y2="1112.02207"/><rect class="o" x="549.4683" y="826.01733" width="42.90071" height="286.00474" rx="4" ry="4"/><line class="o" x1="592.36901" y1="861.76792" x2="549.4683" y2="861.76792"/><line class="o" x1="592.36901" y1="1076.27148" x2="549.4683" y2="1076.27148"/><line class="o" x1="592.36901" y1="897.51851" x2="549.4683" y2="897.51851"/><line class="o" x1="592.36901" y1="933.26911" x2="549.4683" y2="933.26911"/><line class="o" x1="592.36901" y1="969.0197" x2="549.4683" y2="969.0197"/><line class="o" x1="592.36901" y1="1004.77029" x2="549.4683" y2="1004.77029"/><line class="o" x1="592.36901" y1="1040.52088" x2="549.4683" y2="1040.52088"/><line class="o" x1="570.91865" y1="826.01733" x2="570.91865" y2="1112.02207"/><rect class="o" x="549.4683" y="826.01733" width="42.90071" height="286.00474" rx="4" ry="4"/><line class="o" x1="592.36901" y1="861.76792" x2="549.4683" y2="861.76792"/><line class="o" x1="592.36901" y1="1076.27148" x2="549.4683" y2="1076.27148"/><line class="o" x1="592.36901" y1="897.51851" x2="549.4683" y2="897.51851"/><line class="o" x1="592.36901" y1="933.26911" x2="549.4683" y2="933.26911"/><line class="o" x1="592.36901" y1="969.0197" x2="549.4683" y2="969.0197"/><line class="o" x1="592.36901" y1="1004.77029" x2="549.4683" y2="1004.77029"/><line class="o" x1="592.36901" y1="1040.52088" x2="549.4683" y2="1040.52088"/><line class="o" x1="570.91865" y1="826.01733" x2="570.91865" y2="1112.02207"/></g><g id="d"><rect class="o" x="656.71119" y="371.9848" width="42.90071" height="143.00237" rx="4" ry="4"/><line class="o" x1="699.6119" y1="407.73539" x2="656.71119" y2="407.73539"/><line class="o" x1="699.6119" y1="443.48599" x2="656.71119" y2="443.48599"/><line class="o" x1="699.6119" y1="479.23658" x2="656.71119" y2="479.23658"/><line class="o" x1="678.16154" y1="371.9848" x2="678.16154" y2="514.98717"/><rect class="o" x="656.71119" y="371.9848" width="42.90071" height="143.00237" rx="4" ry="4"/><line class="o" x1="699.6119" y1="407.73539" x2="656.71119" y2="407.73539"/><line class="o" x1="699.6119" y1="443.48599" x2="656.71119" y2="443.48599"/><line class="o" x1="699.6119" y1="479.23658" x2="656.71119" y2="479.23658"/><line class="o" x1="678.16154" y1="371.9848" x2="678.16154" y2="514.98717"/><rect class="o" x="656.71119" y="371.9848" width="42.90071" height="143.00237" rx="4" ry="4"/><line class="o" x1="699.6119" y1="407.73539" x2="656.71119" y2="407.73539"/><line class="o" x1="699.6119" y1="443.48599" x2="656.71119" y2="443.48599"/><line class="o" x1="699.6119" y1="479.23658" x2="656.71119" y2="479.23658"/><line class="o" x1="678.16154" y1="371.9848" x2="678.16154" y2="514.98717"/><rect class="o" x="549.46119" y="371.9848" width="42.90071" height="143.00237" rx="4" ry="4"/><line class="o" x1="592.3619" y1="407.73539" x2="549.46119" y2="407.73539"/><line class="o" x1="592.3619" y1="443.48599" x2="549.46119" y2="443.48599"/><line class="o" x1="592.3619" y1="479.23658" x2="549.46119" y2="479.23658"/><line class="o" x1="570.91154" y1="371.9848" x2="570.91154" y2="514.98717"/><rect class="o" x="549.46119" y="371.9848" width="42.90071" height="143.00237" rx="4" ry="4"/><line class="o" x1="592.3619" y1="407.73539" x2="549.46119" y2="407.73539"/><line class="o" x1="592.3619" y1="443.48599" x2="549.46119" y2="443.48599"/><line class="o" x1="592.3619" y1="479.23658" x2="549.46119" y2="479.23658"/><line class="o" x1="570.91154" y1="371.9848" x2="570.91154" y2="514.98717"/><rect class="o" x="549.46119" y="371.9848" width="42.90071" height="143.00237" rx="4" ry="4"/><line class="o" x1="592.3619" y1="407.73539" x2="549.46119" y2="407.73539"/><line class="o" x1="592.3619" y1="443.48599" x2="549.46119" y2="443.48599"/><line class="o" x1="592.3619" y1="479.23658" x2="549.46119" y2="479.23658"/><line class="o" x1="570.91154" y1="371.9848" x2="570.91154" y2="514.98717"/><rect class="o" x="442.21119" y="371.9848" width="42.90071" height="143.00237" rx="4" ry="4"/><line class="o" x1="485.1119" y1="407.73539" x2="442.21119" y2="407.73539"/><line class="o" x1="485.1119" y1="443.48599" x2="442.21119" y2="443.48599"/><line class="o" x1="485.1119" y1="479.23658" x2="442.21119" y2="479.23658"/><line class="o" x1="463.66154" y1="371.9848" x2="463.66154" y2="514.98717"/><rect class="o" x="442.21119" y="371.9848" width="42.90071" height="143.00237" rx="4" ry="4"/><line class="o" x1="485.1119" y1="407.73539" x2="442.21119" y2="407.73539"/><line class="o" x1="485.1119" y1="443.48599" x2="442.21119" y2="443.48599"/><line class="o" x1="485.1119" y1="479.23658" x2="442.21119" y2="479.23658"/><line class="o" x1="463.66154" y1="371.9848" x2="463.66154" y2="514.98717"/><rect class="o" x="442.21119" y="371.9848" width="42.90071" height="143.00237" rx="4" ry="4"/><line class="o" x1="485.1119" y1="407.73539" x2="442.21119" y2="407.73539"/><line class="o" x1="485.1119" y1="443.48599" x2="442.21119" y2="443.48599"/><line class="o" x1="485.1119" y1="479.23658" x2="442.21119" y2="479.23658"/><line class="o" x1="463.66154" y1="371.9848" x2="463.66154" y2="514.98717"/><rect class="o" x="334.96119" y="371.9848" width="42.90071" height="143.00237" rx="4" ry="4"/><line class="o" x1="377.8619" y1="407.73539" x2="334.96119" y2="407.73539"/><line class="o" x1="377.8619" y1="443.48599" x2="334.96119" y2="443.48599"/><line class="o" x1="377.8619" y1="479.23658" x2="334.96119" y2="479.23658"/><line class="o" x1="356.41154" y1="371.9848" x2="356.41154" y2="514.98717"/><rect class="o" x="334.96119" y="371.9848" width="42.90071" height="143.00237" rx="4" ry="4"/><line class="o" x1="377.8619" y1="407.73539" x2="334.96119" y2="407.73539"/><line class="o" x1="377.8619" y1="443.48599" x2="334.96119" y2="443.48599"/><line class="o" x1="377.8619" y1="479.23658" x2="334.96119" y2="479.23658"/><line class="o" x1="356.41154" y1="371.9848" x2="356.41154" y2="514.98717"/><rect class="o" x="334.96119" y="371.9848" width="42.90071" height="143.00237" rx="4" ry="4"/><line class="o" x1="377.8619" y1="407.73539" x2="334.96119" y2="407.73539"/><line class="o" x1="377.8619" y1="443.48599" x2="334.96119" y2="443.48599"/><line class="o" x1="377.8619" y1="479.23658" x2="334.96119" y2="479.23658"/><line class="o" x1="356.41154" y1="371.9848" x2="356.41154" y2="514.98717"/><rect class="o" x="227.71119" y="371.9848" width="42.90071" height="143.00237" rx="4" ry="4"/><line class="o" x1="270.6119" y1="407.73539" x2="227.71119" y2="407.73539"/><line class="o" x1="270.6119" y1="443.48599" x2="227.71119" y2="443.48599"/><line class="o" x1="270.6119" y1="479.23658" x2="227.71119" y2="479.23658"/><line class="o" x1="249.16154" y1="371.9848" x2="249.16154" y2="514.98717"/><rect class="o" x="227.71119" y="371.9848" width="42.90071" height="143.00237" rx="4" ry="4"/><line class="o" x1="270.6119" y1="407.73539" x2="227.71119" y2="407.73539"/><line class="o" x1="270.6119" y1="443.48599" x2="227.71119" y2="443.48599"/><line class="o" x1="270.6119" y1="479.23658" x2="227.71119" y2="479.23658"/><line class="o" x1="249.16154" y1="371.9848" x2="249.16154" y2="514.98717"/><rect class="o" x="227.71119" y="371.9848" width="42.90071" height="143.00237" rx="4" ry="4"/><line class="o" x1="270.6119" y1="407.73539" x2="227.71119" y2="407.73539"/><line class="o" x1="270.6119" y1="443.48599" x2="227.71119" y2="443.48599"/><line class="o" x1="270.6119" y1="479.23658" x2="227.71119" y2="479.23658"/><line class="o" x1="249.16154" y1="371.9848" x2="249.16154" y2="514.98717"/><rect class="o" x="120.46119" y="371.9848" width="42.90071" height="143.00237" rx="4" ry="4"/><line class="o" x1="163.3619" y1="407.73539" x2="120.46119" y2="407.73539"/><line class="o" x1="163.3619" y1="443.48599" x2="120.46119" y2="443.48599"/><line class="o" x1="163.3619" y1="479.23658" x2="120.46119" y2="479.23658"/><line class="o" x1="141.91154" y1="371.9848" x2="141.91154" y2="514.98717"/><rect class="o" x="120.46119" y="371.9848" width="42.90071" height="143.00237" rx="4" ry="4"/><line class="o" x1="163.3619" y1="407.73539" x2="120.46119" y2="407.73539"/><line class="o" x1="163.3619" y1="443.48599" x2="120.46119" y2="443.48599"/><line class="o" x1="163.3619" y1="479.23658" x2="120.46119" y2="479.23658"/><line class="o" x1="141.91154" y1="371.9848" x2="141.91154" y2="514.98717"/><rect class="o" x="120.46119" y="371.9848" width="42.90071" height="143.00237" rx="4" ry="4"/><line class="o" x1="163.3619" y1="407.73539" x2="120.46119" y2="407.73539"/><line class="o" x1="163.3619" y1="443.48599" x2="120.46119" y2="443.48599"/><line class="o" x1="163.3619" y1="479.23658" x2="120.46119" y2="479.23658"/><line class="o" x1="141.91154" y1="371.9848" x2="141.91154" y2="514.98717"/></g><g id="e"><rect class="o" x="656.7183" y="657.98954" width="42.90071" height="143.00237" rx="4" ry="4"/><line class="o" x1="699.61901" y1="693.74014" x2="656.7183" y2="693.74014"/><line class="o" x1="699.61901" y1="729.49073" x2="656.7183" y2="729.49073"/><line class="o" x1="699.61901" y1="765.24132" x2="656.7183" y2="765.24132"/><line class="o" x1="678.16865" y1="657.98954" x2="678.16865" y2="800.99191"/><rect class="o" x="656.7183" y="657.98954" width="42.90071" height="143.00237" rx="4" ry="4"/><line class="o" x1="699.61901" y1="693.74014" x2="656.7183" y2="693.74014"/><line class="o" x1="699.61901" y1="729.49073" x2="656.7183" y2="729.49073"/><line class="o" x1="699.61901" y1="765.24132" x2="656.7183" y2="765.24132"/><line class="o" x1="678.16865" y1="657.98954" x2="678.16865" y2="800.99191"/><rect class="o" x="656.7183" y="657.98954" width="42.90071" height="143.00237" rx="4" ry="4"/><line class="o" x1="699.61901" y1="693.74014" x2="656.7183" y2="693.74014"/><line class="o" x1="699.61901" y1="729.49073" x2="656.7183" y2="729.49073"/><line class="o" x1="699.61901" y1="765.24132" x2="656.7183" y2="765.24132"/><line class="o" x1="678.16865" y1="657.98954" x2="678.16865" y2="800.99191"/><rect class="o" x="549.4683" y="657.98954" width="42.90071" height="143.00237" rx="4" ry="4"/><line class="o" x1="592.36901" y1="693.74014" x2="549.4683" y2="693.74014"/><line class="o" x1="592.36901" y1="729.49073" x2="549.4683" y2="729.49073"/><line class="o" x1="592.36901" y1="765.24132" x2="549.4683" y2="765.24132"/><line class="o" x1="570.91865" y1="657.98954" x2="570.91865" y2="800.99191"/><rect class="o" x="549.4683" y="657.98954" width="42.90071" height="143.00237" rx="4" ry="4"/><line class="o" x1="592.36901" y1="693.74014" x2="549.4683" y2="693.74014"/><line class="o" x1="592.36901" y1="729.49073" x2="549.4683" y2="729.49073"/><line class="o" x1="592.36901" y1="765.24132" x2="549.4683" y2="765.24132"/><line class="o" x1="570.91865" y1="657.98954" x2="570.91865" y2="800.99191"/><rect class="o" x="549.4683" y="657.98954" width="42.90071" height="143.00237" rx="4" ry="4"/><line class="o" x1="592.36901" y1="693.74014" x2="549.4683" y2="693.74014"/><line class="o" x1="592.36901" y1="729.49073" x2="549.4683" y2="729.49073"/><line class="o" x1="592.36901" y1="765.24132" x2="549.4683" y2="765.24132"/><line class="o" x1="570.91865" y1="657.98954" x2="570.91865" y2="800.99191"/></g></g><g id="f"><path id="g" class="o" d="M80.98313,725.91567h71.22864c2.20914,0,4-1.79086,4-4v-150.56923c0-2.20914-1.79086-4-4-4h-71.22864"/><rect id="h" class="o" x="80.98313" y="933.26911" width="75.22864" height="139.42731" rx="4" ry="4"/><path id="i" class="o" d="M245.58826,1164.49697v-80.65043c0-2.20914,1.79086-4,4-4h238.67909c2.20914,0,4,1.79086,4,4v80.65043"/></g><g id="j"><polyline id="k" class="p" points="80.9831 933.26911 80.98315 20.78978 752.71528 20.78978 752.71528 1164.49697 80.98315 1164.49697"/></g><g id="m"><path class="n" d="M99.24219,757.85352v9.49219h-4.44727v-25.59375h9.79102c2.85938,0,5.12988.74512,6.81152,2.23535,1.68164,1.48926,2.52246,3.46094,2.52246,5.91211,0,2.51074-.82324,4.46387-2.46973,5.86035-1.64648,1.39551-3.95215,2.09375-6.91699,2.09375h-5.29102ZM99.24219,754.26758h5.34375c1.58203,0,2.78906-.37207,3.62109-1.11621s1.24805-1.81934,1.24805-3.22559c0-1.38281-.42188-2.4873-1.26562-3.31348s-2.00391-1.25098-3.48047-1.27441h-5.4668v8.92969Z"/><path class="n" d="M125.53906,767.69727c-2.70703,0-4.90137-.85254-6.58301-2.55762s-2.52246-3.97559-2.52246-6.81152v-.52734c0-1.89844.36621-3.59473,1.09863-5.08887s1.76074-2.65723,3.08496-3.48926,2.80078-1.24805,4.42969-1.24805c2.58984,0,4.59082.82617,6.00293,2.47852s2.11816,3.99023,2.11816,7.01367v1.72266h-12.42773c.12891,1.57031.65332,2.8125,1.57324,3.72656s2.07715,1.37109,3.47168,1.37109c1.95703,0,3.55078-.79102,4.78125-2.37305l2.30273,2.19727c-.76172,1.13672-1.77832,2.01855-3.0498,2.64551s-2.69824.94043-4.28027.94043ZM125.0293,751.40234c-1.17188,0-2.11816.41016-2.83887,1.23047s-1.18066,1.96289-1.37988,3.42773h8.13867v-.31641c-.09375-1.42969-.47461-2.51074-1.14258-3.24316s-1.59375-1.09863-2.77734-1.09863Z"/><path class="n" d="M141.02539,767.3457h-4.27148v-27h4.27148v27Z"/><path class="n" d="M145.68359,743.38672c0-.65625.20801-1.20117.62402-1.63477s1.01074-.65039,1.78418-.65039,1.37109.2168,1.79297.65039.63281.97852.63281,1.63477c0,.64453-.21094,1.18066-.63281,1.6084s-1.01953.6416-1.79297.6416-1.36816-.21387-1.78418-.6416-.62402-.96387-.62402-1.6084ZM150.21875,767.3457h-4.27148v-19.01953h4.27148v19.01953Z"/><path class="n" d="M166.23242,767.3457c-.1875-.36328-.35156-.95508-.49219-1.77539-1.35938,1.41797-3.02344,2.12695-4.99219,2.12695-1.91016,0-3.46875-.54492-4.67578-1.63477s-1.81055-2.4375-1.81055-4.04297c0-2.02734.75293-3.58301,2.25879-4.66699s3.65918-1.62598,6.45996-1.62598h2.61914v-1.24805c0-.98438-.27539-1.77246-.82617-2.36426s-1.38867-.8877-2.51367-.8877c-.97266,0-1.76953.24316-2.39062.72949s-.93164,1.10449-.93164,1.85449h-4.27148c0-1.04297.3457-2.01855,1.03711-2.92676s1.63184-1.62012,2.82129-2.13574,2.5166-.77344,3.98145-.77344c2.22656,0,4.00195.55957,5.32617,1.67871s2.00391,2.69238,2.03906,4.71973v8.57812c0,1.71094.24023,3.07617.7207,4.0957v.29883h-4.35938ZM161.53906,764.26953c.84375,0,1.6377-.20508,2.38184-.61523s1.30371-.96094,1.67871-1.65234v-3.58594h-2.30273c-1.58203,0-2.77148.27539-3.56836.82617s-1.19531,1.33008-1.19531,2.33789c0,.82031.27246,1.47363.81738,1.95996s1.27441.72949,2.18848.72949Z"/><path class="n" d="M178.88867,767.3457h-4.27148v-27h4.27148v27Z"/><path class="n" d="M195.06055,765.48242c-1.25391,1.47656-3.03516,2.21484-5.34375,2.21484-2.0625,0-3.62402-.60352-4.68457-1.81055s-1.59082-2.95312-1.59082-5.23828v-12.32227h4.27148v12.26953c0,2.41406,1.00195,3.62109,3.00586,3.62109,2.07422,0,3.47461-.74414,4.20117-2.23242v-13.6582h4.27148v19.01953h-4.02539l-.10547-1.86328Z"/><path class="n" d="M211.91797,767.69727c-2.70703,0-4.90137-.85254-6.58301-2.55762s-2.52247-3.97559-2.52247-6.81152v-.52734c0-1.89844.36622-3.59473,1.09864-5.08887s1.76074-2.65723,3.08496-3.48926,2.80078-1.24805,4.42969-1.24805c2.58984,0,4.59082.82617,6.00293,2.47852s2.11816,3.99023,2.11816,7.01367v1.72266h-12.42773c.12891,1.57031.65332,2.8125,1.57324,3.72656s2.07715,1.37109,3.47168,1.37109c1.95703,0,3.55078-.79102,4.78125-2.37305l2.30273,2.19727c-.76172,1.13672-1.77832,2.01855-3.0498,2.64551s-2.69824.94043-4.28027.94043ZM211.4082,751.40234c-1.17188,0-2.11816.41016-2.83887,1.23047s-1.18066,1.96289-1.37988,3.42773h8.13867v-.31641c-.09375-1.42969-.47461-2.51074-1.14258-3.24316s-1.59375-1.09863-2.77734-1.09863Z"/><path class="n" d="M102.14258,898.46973l-2.90039,3.07617v7.98047h-4.44727v-25.59375h4.44727v12.00586l2.46094-3.04102,7.48828-8.96484h5.37891l-9.50977,11.33789,10.05469,14.25586h-5.27344l-7.69922-11.05664Z"/><path class="n" d="M117.08398,885.56738c0-.65625.20801-1.20117.62402-1.63477s1.01074-.65039,1.78418-.65039,1.37109.2168,1.79297.65039.63281.97852.63281,1.63477c0,.64453-.21094,1.18066-.63281,1.6084s-1.01953.6416-1.79297.6416-1.36816-.21387-1.78418-.6416-.62402-.96387-.62402-1.6084ZM121.61914,909.52637h-4.27148v-19.01953h4.27148v19.01953Z"/><path class="n" d="M125.46875,899.84082c0-1.86328.36914-3.54199,1.10742-5.03613s1.77539-2.64258,3.11132-3.44531c1.33594-.80273,2.8711-1.2041,4.60547-1.2041,2.56641,0,4.64941.82617,6.24902,2.47852s2.46387,3.84375,2.59277,6.57422l.01758,1.00195c0,1.875-.36035,3.55078-1.08105,5.02734s-1.75195,2.61914-3.09375,3.42773-2.8916,1.21289-4.64941,1.21289c-2.68359,0-4.83105-.89355-6.44238-2.68066s-2.41699-4.16895-2.41699-7.14551v-.21094ZM129.74023,900.20996c0,1.95703.4043,3.48926,1.21289,4.59668s1.93359,1.66113,3.375,1.66113,2.56348-.5625,3.36621-1.6875,1.2041-2.77148,1.2041-4.93945c0-1.92188-.41309-3.44531-1.23926-4.57031s-1.94824-1.6875-3.36621-1.6875c-1.39453,0-2.50195.55371-3.32227,1.66113s-1.23047,2.7627-1.23047,4.96582Z"/><path class="n" d="M157.42578,904.3584c0-.76172-.31348-1.3418-.94043-1.74023s-1.66699-.75-3.12012-1.05469-2.66602-.69141-3.63867-1.16016c-2.13281-1.03125-3.19922-2.52539-3.19922-4.48242,0-1.64062.69141-3.01172,2.07422-4.11328s3.14062-1.65234,5.27344-1.65234c2.27344,0,4.11035.5625,5.51074,1.6875s2.10059,2.58398,2.10059,4.37695h-4.27148c0-.82031-.30469-1.50293-.91406-2.04785s-1.41797-.81738-2.42578-.81738c-.9375,0-1.70215.2168-2.29395.65039s-.8877,1.01367-.8877,1.74023c0,.65625.27539,1.16602.82617,1.5293s1.66406.72949,3.33984,1.09863,2.99121.80859,3.94629,1.31836,1.66406,1.12207,2.12695,1.83691.69434,1.58203.69434,2.60156c0,1.71094-.70898,3.09668-2.12695,4.15723s-3.27539,1.59082-5.57227,1.59082c-1.55859,0-2.94727-.28125-4.16602-.84375s-2.16797-1.33594-2.84766-2.32031-1.01953-2.04492-1.01953-3.18164h4.14844c.05859,1.00781.43945,1.78418,1.14258,2.3291s1.63477.81738,2.79492.81738c1.125,0,1.98047-.21387,2.56641-.6416s.87891-.9873.87891-1.67871Z"/><path class="n" d="M171.52344,901.37012l-1.89844,1.95117v6.20508h-4.27148v-27h4.27148v15.57422l1.33594-1.66992,5.25586-5.92383h5.13281l-7.06641,7.92773,7.82227,11.0918h-4.93945l-5.64258-8.15625Z"/><path class="n" d="M184.14453,885.56738c0-.65625.20801-1.20117.62402-1.63477s1.01074-.65039,1.78418-.65039,1.37109.2168,1.79297.65039.63281.97852.63281,1.63477c0,.64453-.21094,1.18066-.63281,1.6084s-1.01953.6416-1.79297.6416-1.36816-.21387-1.78418-.6416-.62402-.96387-.62402-1.6084ZM188.67969,909.52637h-4.27148v-19.01953h4.27148v19.01953Z"/><path class="n" d="M338.45605,1126.62549c0-1.125-.39551-1.99219-1.18652-2.60156s-2.21777-1.22461-4.28027-1.8457-3.70312-1.3125-4.92188-2.07422c-2.33203-1.46484-3.49805-3.375-3.49805-5.73047,0-2.0625.84082-3.76172,2.52246-5.09766s3.86426-2.00391,6.54785-2.00391c1.78125,0,3.36914.32812,4.76367.98438s2.49023,1.59082,3.28711,2.80371,1.19531,2.55762,1.19531,4.03418h-4.42969c0-1.33594-.41895-2.38184-1.25684-3.1377s-2.03613-1.13379-3.59473-1.13379c-1.45312,0-2.58105.31055-3.38379.93164s-1.2041,1.48828-1.2041,2.60156c0,.9375.43359,1.71973,1.30078,2.34668s2.29688,1.23633,4.28906,1.82812,3.5918,1.26562,4.79883,2.02148,2.0918,1.62305,2.6543,2.60156.84375,2.12402.84375,3.43652c0,2.13281-.81738,3.8291-2.45215,5.08887s-3.85254,1.88965-6.65332,1.88965c-1.85156,0-3.55371-.34277-5.10645-1.02832s-2.75977-1.63184-3.62109-2.83887-1.29199-2.61328-1.29199-4.21875h4.44727c0,1.45312.48047,2.57812,1.44141,3.375s2.33789,1.19531,4.13086,1.19531c1.54688,0,2.70996-.31348,3.48926-.94043s1.16895-1.45605,1.16895-2.4873Z"/><path class="n" d="M351.74512,1109.57471v4.62305h3.35742v3.16406h-3.35742v10.61719c0,.72656.14355,1.25098.43066,1.57324s.7998.4834,1.53809.4834c.49219,0,.99023-.05859,1.49414-.17578v3.30469c-.97266.26953-1.91016.4043-2.8125.4043-3.28125,0-4.92188-1.81055-4.92188-5.43164v-10.77539h-3.12891v-3.16406h3.12891v-4.62305h4.27148Z"/><path class="n" d="M369.72754,1133.21729c-.1875-.36328-.35156-.95508-.49219-1.77539-1.35938,1.41797-3.02344,2.12695-4.99219,2.12695-1.91016,0-3.46875-.54492-4.67578-1.63477s-1.81055-2.4375-1.81055-4.04297c0-2.02734.75293-3.58301,2.25879-4.66699s3.65918-1.62598,6.45996-1.62598h2.61914v-1.24805c0-.98438-.27539-1.77246-.82617-2.36426s-1.38867-.8877-2.51367-.8877c-.97266,0-1.76953.24316-2.39062.72949s-.93164,1.10449-.93164,1.85449h-4.27148c0-1.04297.3457-2.01855,1.03711-2.92676s1.63184-1.62012,2.82129-2.13574,2.5166-.77344,3.98145-.77344c2.22656,0,4.00195.55957,5.32617,1.67871s2.00391,2.69238,2.03906,4.71973v8.57812c0,1.71094.24023,3.07617.7207,4.0957v.29883h-4.35938ZM365.03418,1130.14111c.84375,0,1.6377-.20508,2.38184-.61523s1.30371-.96094,1.67871-1.65234v-3.58594h-2.30273c-1.58203,0-2.77148.27539-3.56836.82617s-1.19531,1.33008-1.19531,2.33789c0,.82031.27246,1.47363.81738,1.95996s1.27441.72949,2.18848.72949Z"/><path class="n" d="M377.09277,1123.5669c0-2.95312.69434-5.31152,2.08301-7.0752s3.23145-2.64551,5.52832-2.64551c2.16797,0,3.87305.75586,5.11523,2.26758l.19336-1.91602h3.84961v18.43945c0,2.49609-.77637,4.46484-2.3291,5.90625s-3.64746,2.16211-6.28418,2.16211c-1.39453,0-2.75684-.29004-4.08691-.87012s-2.34082-1.33887-3.03223-2.27637l2.02148-2.56641c1.3125,1.55859,2.92969,2.33789,4.85156,2.33789,1.41797,0,2.53711-.38379,3.35742-1.15137s1.23047-1.89551,1.23047-3.38379v-1.2832c-1.23047,1.37109-2.87109,2.05664-4.92188,2.05664-2.22656,0-4.0459-.88477-5.45801-2.6543s-2.11816-4.21875-2.11816-7.34766ZM381.34668,1123.93604c0,1.91016.38965,3.41309,1.16895,4.50879s1.86035,1.64355,3.24316,1.64355c1.72266,0,3-.73828,3.83203-2.21484v-8.36719c-.80859-1.44141-2.07422-2.16211-3.79688-2.16211-1.40625,0-2.49902.55664-3.27832,1.66992s-1.16895,2.75391-1.16895,4.92188Z"/><path class="n" d="M406.62402,1133.56885c-2.70703,0-4.90137-.85254-6.58301-2.55762s-2.52246-3.97559-2.52246-6.81152v-.52734c0-1.89844.36621-3.59473,1.09863-5.08887s1.76074-2.65723,3.08496-3.48926,2.80078-1.24805,4.42969-1.24805c2.58984,0,4.59082.82617,6.00293,2.47852s2.11816,3.99023,2.11816,7.01367v1.72266h-12.42773c.12891,1.57031.65332,2.8125,1.57324,3.72656s2.07715,1.37109,3.47168,1.37109c1.95703,0,3.55078-.79102,4.78125-2.37305l2.30273,2.19727c-.76172,1.13672-1.77832,2.01855-3.0498,2.64551s-2.69824.94043-4.28027.94043ZM406.11426,1117.27393c-1.17188,0-2.11816.41016-2.83887,1.23047s-1.18066,1.96289-1.37988,3.42773h8.13867v-.31641c-.09375-1.42969-.47461-2.51074-1.14258-3.24316s-1.59375-1.09863-2.77734-1.09863Z"/><path class="n" d="M150.16309,544.0249h-10.30078v10.8457h-4.44727v-25.59375h16.25977v3.58594h-11.8125v7.61133h10.30078v3.55078Z"/><path class="n" d="M256.22607,543.44482h-10.51172v7.875h12.28711v3.55078h-16.73438v-25.59375h16.61133v3.58594h-12.16406v7.06641h10.51172v3.51562Z"/><path class="n" d="M347.91553,554.87061v-25.59375h7.55859c2.26172,0,4.26855.50391,6.02051,1.51172s3.1084,2.4375,4.06934,4.28906,1.44141,3.97266,1.44141,6.36328v1.2832c0,2.42578-.4834,4.55859-1.4502,6.39844s-2.34375,3.25781-4.13086,4.25391-3.83496,1.49414-6.14355,1.49414h-7.36523ZM352.36279,532.86279v18.45703h2.90039c2.33203,0,4.12207-.72949,5.37012-2.18848s1.88379-3.55371,1.90723-6.28418v-1.42383c0-2.77734-.60352-4.89844-1.81055-6.36328s-2.95898-2.19727-5.25586-2.19727h-3.11133Z"/><path class="n" d="M474.95312,546.53857c-.25781,2.73047-1.26564,4.86035-3.02344,6.38965-1.75781,1.5293-4.0957,2.29395-7.01367,2.29395-2.03906,0-3.83496-.4834-5.3877-1.4502s-2.75098-2.34082-3.59473-4.12207-1.2832-3.84961-1.31836-6.20508v-2.39062c0-2.41406.42773-4.54102,1.2832-6.38086s2.08301-3.25781,3.68262-4.25391,3.44824-1.49414,5.5459-1.49414c2.82422,0,5.09766.76465,6.82031,2.29395s2.72461,3.69434,3.00586,6.49512h-4.42969c-.21095-1.83984-.74707-3.16699-1.6084-3.98145s-2.12402-1.22168-3.78809-1.22168c-1.93359,0-3.41895.70654-4.45605,2.12012s-1.56738,3.48682-1.59082,6.21973v2.26953c0,2.76807.49512,4.87939,1.48535,6.33398s2.44043,2.18164,4.35059,2.18164c1.74609,0,3.05859-.39258,3.9375-1.17773s1.43555-2.0918,1.66992-3.91992h4.42969Z"/><path class="n" d="M562.91504,554.87061v-25.59375h8.77148c2.89453,0,5.09766.58008,6.60938,1.74023s2.26758,2.88867,2.26758,5.18555c0,1.17188-.31641,2.22656-.94922,3.16406s-1.55859,1.66406-2.77734,2.17969c1.38281.375,2.45215,1.08105,3.20801,2.11816s1.13379,2.28223,1.13379,3.73535c0,2.40234-.77051,4.24805-2.31152,5.53711s-3.74707,1.93359-6.61816,1.93359h-9.33398ZM567.3623,540.05225h4.35938c1.38281,0,2.46387-.31348,3.24316-.94043s1.16895-1.51465,1.16895-2.66309c0-1.26562-.36035-2.17969-1.08105-2.74219s-1.84277-.84375-3.36621-.84375h-4.32422v7.18945ZM567.3623,543.32178v7.99805h4.93945c1.39453,0,2.48438-.3457,3.26953-1.03711s1.17773-1.65234,1.17773-2.88281c0-2.66016-1.35938-4.01953-4.07812-4.07812h-5.30859Z"/><path class="n" d="M683.94043,548.91162h-9.91406l-2.07422,5.95898h-4.62305l9.66797-25.59375h3.99023l9.68555,25.59375h-4.64062l-2.0918-5.95898ZM675.27441,545.32568h7.41797l-3.70898-10.61719-3.70898,10.61719Z"/><path class="n" d="M579.93359,641.27051h-4.42969v-11.35547h-11.44336v11.35547h-4.44727v-25.59375h4.44727v10.65234h11.44336v-10.65234h4.42969v25.59375Z"/><path class="n" d="M688.68652,637.94824c-.92578,1.20703-2.20898,2.12109-3.84961,2.74219s-3.50391.93164-5.58984.93164c-2.14453,0-4.04297-.48633-5.69531-1.45898s-2.92676-2.36426-3.82324-4.1748-1.3623-3.92285-1.39746-6.33691v-2.00391c0-3.86719.92578-6.8877,2.77734-9.06152s4.43555-3.26074,7.75195-3.26074c2.84766,0,5.10938.70605,6.78516,2.11816s2.68359,3.44238,3.02344,6.09082h-4.35938c-.49219-3.08203-2.2793-4.62305-5.36133-4.62305-1.99219,0-3.50684.7168-4.54395,2.15137s-1.57324,3.53906-1.6084,6.31348v1.9668c0,2.76367.58301,4.90918,1.74902,6.43652,1.16602,1.52832,2.78613,2.29199,4.86035,2.29199,2.27344,0,3.89062-.51562,4.85156-1.54688v-5.00977h-5.27344v-3.375h9.70312v9.80859Z"/><path class="n" d="M154.55462,1114.03185l-33.08441-23.90801c-2.64519-1.91151-6.34284-.0215-6.34284,3.24208v5.21549c0,2.20914-1.79086,4-4,4H33.28444c-2.20914,0-4,1.79086-4,4v10.69252s0,10.69252,0,10.69252c0,2.20914,1.79086,4,4,4h77.84293c2.20914,0,4,1.79086,4,4v5.21548c0,3.26358,3.69765,5.15359,6.34285,3.24208l33.0844-23.90801c2.20954-1.59669,2.20954-4.88746,0-6.48416Z"/></g></svg>