<?xml version="1.0" encoding="UTF-8"?>
<svg xmlns="http://www.w3.org/2000/svg" width="15.45cm" height="9.022cm" viewBox="0 0 437.946 255.733">
  <g id="a" data-name="Logo for Froteskia font">
    <g id="b" data-name="Pins copy 2">
      <g>
        <path d="M163.532,75.556h-6.745c-1.175,0-2.128.953-2.128,2.128v69.814c0,1.702-1.381,3.082-3.083,3.082h-8.978c-7.777,0-14.082,6.305-14.082,14.082v71.919c0,1.702-1.38,3.082-3.082,3.082h-10.095c-1.521,0-2.816-1.138-3.013-2.646l-9.683-74.238c-.979-7.501-7.838-13.017-15.549-12.13-7.157.823-12.411,7.16-12.411,14.364v71.568c0,1.702-1.38,3.082-3.082,3.082h-10.1c-1.521,0-2.817-1.138-3.014-2.646l-9.672-74.177c-.915-7.014-6.89-12.261-13.963-12.261h-9.006c-1.189,0-1.935-.641-2.273-1.022-.338-.382-.885-1.198-.743-2.379l9.57-79.641c.184-1.526,1.481-2.677,3.018-2.677h9.251c.812,0,1.575.316,2.148.89l31.638,31.638c5.475,5.474,14.381,5.474,19.854,0l17.137-17.138c2.177-2.177,3.66-5.01,3.94-8.076.35-3.834-.974-7.5-3.638-10.191l2.964-2.964c.481-.481.555-1.234.178-1.8l-.374-.561c-.499-.749-1.559-.854-2.196-.218l-2.845,2.845c-.557.557-1.461.557-2.018,0-.557-.557-.557-1.46,0-2.018l3.653-3.653c.481-.481.555-1.234.178-1.8l-.377-.565c-.499-.749-1.559-.854-2.196-.218l-3.748,3.748c-.557.557-1.461.557-2.018,0-.557-.557-.557-1.46,0-2.018l4.556-4.556c.481-.481.555-1.234.178-1.8l-.377-.565c-.499-.749-1.559-.854-2.196-.218l-4.65,4.65c-.557.557-1.461.557-2.018,0h0c-.557-.557-.557-1.461,0-2.018l5.458-5.458c.481-.481.555-1.234.178-1.8l-.377-.565c-.499-.749-1.559-.854-2.196-.218l-5.552,5.552c-.557.557-1.461.557-2.018,0h0c-.557-.557-.557-1.461,0-2.018l6.36-6.36c.481-.481.555-1.234.178-1.8l-5.083-8.278c-.086-.129-.192-.242-.314-.337l-1.744-1.351c-.568-.44-1.374-.389-1.882.119l-7.708,7.708c-.557.557-.557,1.46,0,2.018l4.098,4.099c.557.557.557,1.46,0,2.018l-4.086,4.086c-.557.557-1.46.557-2.018,0l-4.099-4.099c-.557-.557-1.46-.557-2.018,0l-7.708,7.708c-.508.508-.559,1.314-.119,1.882l1.351,1.744c.095.122.208.228.337.314l8.278,5.083c.566.377,1.319.302,1.8-.178l6.36-6.36c.557-.557,1.461-.557,2.018,0s.557,1.461,0,2.018l-5.552,5.552c-.637.637-.532,1.697.218,2.196l.565.377c.566.377,1.319.302,1.8-.178l5.458-5.458c.557-.557,1.461-.557,2.018,0s.557,1.461,0,2.018l-4.65,4.65c-.637.637-.532,1.697.218,2.196l.565.377c.566.377,1.319.302,1.8-.178l4.556-4.556c.557-.557,1.461-.557,2.018,0s.557,1.461,0,2.018l-3.748,3.748c-.637.637-.532,1.697.218,2.196l.565.377c.566.377,1.319.302,1.8-.178l3.653-3.653c.557-.557,1.461-.557,2.018,0s.557,1.461,0,2.018l-2.845,2.845c-.637.637-.532,1.697.218,2.196l.561.374c.566.377,1.319.302,1.8-.178l2.774-2.774c.642.694.629,1.78-.045,2.455l-17.392,17.392c-1.186,1.185-3.114,1.185-4.298,0l-31.638-31.638c-2.651-2.652-6.177-4.112-9.927-4.112h-9.251c-7.099,0-13.091,5.315-13.939,12.364l-9.57,79.641c-.718,5.961,2.445,11.978,8.409,14.593,1.811.794,3.793,1.121,5.77,1.121h8.803c1.521,0,2.817,1.138,3.014,2.645l9.672,74.177c.915,7.014,6.89,12.261,13.963,12.261h10.063c7.777,0,14.082-6.305,14.082-14.082v-71.837c0-1.418.901-2.748,2.277-3.093,1.828-.458,3.546.795,3.775,2.55l9.683,74.238c.909,6.969,6.894,12.224,13.921,12.224h10.095c7.777,0,14.082-6.305,14.082-14.082v-71.919c0-1.702,1.38-3.082,3.082-3.082h8.978c7.777,0,14.082-6.305,14.082-14.082v-69.814c0-1.175-.952-2.128-2.127-2.128Z" fill="#231f20"/>
        <path d="M82.892,28.927c.203-.348.146-.79-.139-1.075l-8.808-8.808c-.347-.347-.909-.347-1.255,0l-7.469,7.469c-.347.347-.347.909,0,1.255l8.808,8.808c.285.285.727.342,1.075.139l2.07-1.209c.348-.203.79-.146,1.075.139l7.838,7.838c.347.347.909.347,1.255,0l2.318-2.318c.347-.347.347-.909,0-1.255l-7.838-7.838c-.285-.285-.342-.727-.139-1.075l1.208-2.07Z" fill="#231f20"/>
        <path d="M71.033,46.329c.347.347.909.347,1.255,0l6.404-6.404c.347-.347.347-.909,0-1.255l-.759-.759c-.288-.288-.734-.343-1.083-.134l-1.982,1.185c-.349.209-.796.154-1.083-.134l-9.845-9.845c-.347-.347-.909-.347-1.255,0l-1.377,1.377c-.347.347-.909.347-1.255,0l-6.052-6.052c-.347-.347-.909-.347-1.255,0l-1.239,1.239c-.347.347-.347.909,0,1.255l19.526,19.526Z" fill="#231f20"/>
        <path d="M76.536,13.877c.347.347.347.909,0,1.255l-1.377,1.377c-.347.347-.347.909,0,1.255l9.845,9.845c.288.288.343.734.134,1.083l-1.185,1.982c-.209.349-.154.796.134,1.083l.759.759c.347.347.909.347,1.255,0l6.404-6.404c.347-.347.347-.909,0-1.255l-19.526-19.526c-.347-.347-.909-.347-1.255,0l-1.239,1.239c-.347.347-.347.909,0,1.255l6.052,6.052Z" fill="#231f20"/>
        <rect x="69.691" y="7.805" width="2.853" height="9.024" rx="1.144" ry="1.144" transform="translate(12.121 53.895) rotate(-45)" fill="#231f20"/>
        <rect x="66.53" y="10.966" width="2.853" height="9.024" rx="1.144" ry="1.144" transform="translate(8.959 52.586) rotate(-45)" fill="#231f20"/>
        <rect x="63.368" y="14.128" width="2.853" height="9.024" rx="1.144" ry="1.144" transform="translate(5.798 51.276) rotate(-45)" fill="#231f20"/>
        <rect x="60.207" y="17.289" width="2.853" height="9.024" rx="1.144" ry="1.144" transform="translate(2.639 49.971) rotate(-45.004)" fill="#231f20"/>
        <rect x="57.046" y="20.45" width="2.853" height="9.024" rx="1.144" ry="1.144" transform="translate(-.527 48.653) rotate(-44.996)" fill="#231f20"/>
      </g>
    </g>
  </g>
  <g id="c" data-name="Font Groteskia H-shift">
    <g id="d" data-name="Expanded text">
      <path d="M154.666,120.93c0-1.116-.904-2.02-2.02-2.02h-6.711c-1.116,0-2.02.904-2.02,2.02v16.053c0,1.116-.904,2.02-2.02,2.02h-6.672c-1.116,0-2.02-.904-2.02-2.02v-59.408c0-1.116.904-2.02,2.02-2.02h6.672c1.116,0,2.02.904,2.02,2.02v28.066c0,1.116.904,2.02,2.02,2.02h6.711c1.116,0,2.02-.904,2.02-2.02l.654-5.827.19,29.998-.844-8.882Z" fill="#231f20"/>
      <path d="M186.577,75.556h10.816c5.929,0,10.713,5.023,10.713,11.248v62.194c0,1.116-.904,2.02-2.02,2.02h-6.673c-1.116,0-2.02-.904-2.02-2.02v-28.067c0-1.116-.904-2.02-2.02-2.02h-6.776c-1.116,0-2.02.904-2.02,2.02v28.067c0,1.116-.904,2.02-2.02,2.02h-6.672c-1.116,0-2.02-.904-2.02-2.02v-62.194c0-6.225,4.784-11.248,10.712-11.248ZM197.393,88.988c0-1.201-.936-2.184-2.08-2.184h-6.656c-1.144,0-2.08.983-2.08,2.184v16.654c0,1.116.904,2.02,2.02,2.02h6.776c1.116,0,2.02-.904,2.02-2.02v-16.654Z" fill="#231f20"/>
      <path d="M229.264,75.556h10.816c5.929,0,10.713,5.023,10.713,11.248v62.194c0,1.116-.904,2.02-2.02,2.02h-6.673c-1.116,0-2.02-.904-2.02-2.02v-28.067c0-1.116-.904-2.02-2.02-2.02h-6.776c-1.116,0-2.02.904-2.02,2.02v28.067c0,1.116-.904,2.02-2.02,2.02h-6.672c-1.116,0-2.02-.904-2.02-2.02v-62.194c0-6.225,4.784-11.248,10.712-11.248ZM240.081,88.988c0-1.201-.936-2.184-2.08-2.184h-6.656c-1.144,0-2.08.983-2.08,2.184v16.654c0,1.116.904,2.02,2.02,2.02h6.776c1.116,0,2.02-.904,2.02-2.02v-16.654Z" fill="#231f20"/>
      <path d="M314.641,75.556h10.816c5.928,0,10.712,5.023,10.712,11.248v62.194c0,1.116-.904,2.02-2.02,2.02h-6.672c-1.116,0-2.02-.904-2.02-2.02v-28.067c0-1.116-.904-2.02-2.02-2.02h-6.776c-1.116,0-2.02.904-2.02,2.02v28.067c0,1.116-.904,2.02-2.02,2.02h-6.673c-1.116,0-2.02-.904-2.02-2.02v-62.194c0-6.225,4.784-11.248,10.713-11.248ZM325.457,88.988c0-1.201-.937-2.184-2.08-2.184h-6.656c-1.145,0-2.08.983-2.08,2.184v16.654c0,1.116.904,2.02,2.02,2.02h6.776c1.116,0,2.02-.904,2.02-2.02v-16.654Z" fill="#231f20"/>
      <path d="M369.359,149.615l-9.566-29.827c-.168-.523-.654-.877-1.202-.877h0c-.697,0-1.263.565-1.263,1.263v28.825c0,1.116-.904,2.02-2.02,2.02h-6.673c-1.116,0-2.02-.904-2.02-2.02v-71.422c0-1.116.904-2.02,2.02-2.02h19.509c5.928,0,10.712,5.023,10.712,11.248v20.858c0,4.61-2.655,8.629-6.478,10.348-.914.411-1.352,1.463-1.048,2.419l8.875,27.957c.414,1.303-.559,2.631-1.925,2.631h-6.998c-.878,0-1.655-.567-1.924-1.403ZM357.329,105.642c0,1.116.904,2.02,2.02,2.02h6.716c1.144,0,2.08-.982,2.08-2.184v-16.49c0-1.201-.937-2.184-2.08-2.184h-6.716c-1.116,0-2.02.904-2.02,2.02v16.818Z" fill="#231f20"/>
      <path d="M391.323,75.556h6.672c1.116,0,2.02.904,2.02,2.02v71.422c0,1.116-.904,2.02-2.02,2.02h-6.672c-1.116,0-2.02-.904-2.02-2.02v-71.422c0-1.116.904-2.02,2.02-2.02Z" fill="#231f20"/>
      <path d="M248.772,236.865h-28.199c-1.116,0-2.021-.905-2.021-2.021v-71.42c0-1.116.905-2.021,2.021-2.021h6.671c1.116,0,2.021.905,2.021,2.021v60.172c0,1.116.905,2.021,2.021,2.021h17.486c1.116,0,2.021.905,2.021,2.021v7.206c0,1.116-.905,2.021-2.021,2.021Z" fill="#231f20"/>
      <path d="M271.179,161.404h10.816c5.929,0,10.713,5.023,10.713,11.248v62.194c0,1.116-.904,2.02-2.02,2.02h-6.673c-1.116,0-2.02-.904-2.02-2.02v-28.066c0-1.116-.904-2.02-2.02-2.02h-6.776c-1.116,0-2.02.904-2.02,2.02v28.066c0,1.116-.904,2.02-2.02,2.02h-6.672c-1.116,0-2.02-.904-2.02-2.02v-62.194c0-6.225,4.784-11.248,10.712-11.248ZM281.996,174.836c0-1.201-.936-2.185-2.08-2.185h-6.656c-1.144,0-2.08.983-2.08,2.185v16.654c0,1.116.904,2.02,2.02,2.02h6.776c1.116,0,2.02-.904,2.02-2.02v-16.654Z" fill="#231f20"/>
      <path d="M334.149,236.865h-7.278c-.899,0-1.69-.595-1.94-1.459l-6.33-21.876c-.65-2.246-3.961-1.777-3.961.562v20.753c0,1.116-.904,2.02-2.02,2.02h-6.672c-1.116,0-2.02-.904-2.02-2.02v-71.422c0-1.116.904-2.02,2.02-2.02h7.277c.9,0,1.691.595,1.941,1.46l6.33,21.94c.648,2.248,3.961,1.779,3.961-.56v-20.82c0-1.116.904-2.02,2.02-2.02h6.673c1.116,0,2.02.904,2.02,2.02v71.422c0,1.116-.904,2.02-2.02,2.02Z" fill="#231f20"/>
      <path d="M348.637,161.404h6.672c1.116,0,2.02.904,2.02,2.02v71.422c0,1.116-.904,2.02-2.02,2.02h-6.672c-1.116,0-2.02-.904-2.02-2.02v-71.422c0-1.116.904-2.02,2.02-2.02Z" fill="#231f20"/>
      <path d="M397.995,172.106h-6.776c-1.116,0-2.02.904-2.02,2.02v60.174c0,1.116-.904,2.02-2.02,2.02h-6.673c-1.116,0-2.02-.904-2.02-2.02v-60.174c0-1.116-.904-2.02-2.02-2.02h-6.672c-1.116,0-2.02-.904-2.02-2.02v-7.208c0-1.116.904-2.02,2.02-2.02h28.201c1.116,0,2.02.904,2.02,2.02v7.208c0,1.116-.904,2.02-2.02,2.02Z" fill="#231f20"/>
      <path d="M291.461,151.018h-28.201c-1.116,0-2.02-.904-2.02-2.02v-71.422c0-1.116.904-2.02,2.02-2.02h6.673c1.116,0,2.02.904,2.02,2.02v60.174c0,1.116.904,2.02,2.02,2.02h17.488c1.116,0,2.02.904,2.02,2.02v7.208c0,1.116-.904,2.02-2.02,2.02Z" fill="#231f20"/>
    </g>
    <g id="e" data-name="Expanded year">
      <path d="M201.107,231.847h.172c1.116,0,2.021-.905,2.021-2.021v-6.043c0-1.116.905-2.021,2.021-2.021h.764c1.116,0,2.021.905,2.021,2.021v11.061c0,1.116-.905,2.021-2.021,2.021h-5.071c-1.633,0-3.219-.584-4.479-1.705l-8.912-7.795c-.42-.39-.933-.585-1.493-.585h-4.526c-.513,0-.933.439-.933.975v5.871c0,1.116-.905,2.021-2.021,2.021h-.764c-1.116,0-2.021-.905-2.021-2.021v-6.846c0-2.777,2.146-5.018,4.806-5.018h5.505c1.633,0,3.219.584,4.526,1.705l8.865,7.795c.42.39.98.585,1.54.585Z" fill="#231f20"/>
      <path d="M175.865,211.728v-5.068c0-2.777,2.146-5.018,4.806-5.018h22.629c2.66,0,4.806,2.241,4.806,5.018v5.068c0,2.777-2.146,5.018-4.806,5.018h-22.629c-2.66,0-4.806-2.241-4.806-5.018ZM202.367,206.66h-20.763c-.513,0-.933.439-.933.975v3.118c0,.536.42.974.933.974h20.763c.513,0,.933-.439.933-.974v-3.118c0-.537-.42-.975-.933-.975Z" fill="#231f20"/>
      <path d="M201.107,191.609h.172c1.116,0,2.021-.905,2.021-2.021v-6.043c0-1.116.905-2.021,2.021-2.021h.764c1.116,0,2.021.905,2.021,2.021v11.061c0,1.116-.905,2.021-2.021,2.021h-5.071c-1.633,0-3.219-.584-4.479-1.705l-8.912-7.795c-.42-.39-.933-.585-1.493-.585h-4.526c-.513,0-.933.439-.933.975v5.871c0,1.116-.905,2.021-2.021,2.021h-.764c-1.116,0-2.021-.905-2.021-2.021v-6.846c0-2.777,2.146-5.018,4.806-5.018h5.505c1.633,0,3.219.584,4.526,1.705l8.865,7.795c.42.39.98.585,1.54.585Z" fill="#231f20"/>
      <path d="M194.388,161.404h8.911c2.66,0,4.806,2.241,4.806,5.018v8.064c0,1.116-.905,2.021-2.021,2.021h-.764c-1.116,0-2.021-.905-2.021-2.021v-7.089c0-.537-.42-.975-.933-.975h-7.045c-.513,0-.933.439-.933.975v7.089c0,1.116-.905,2.021-2.021,2.021h-14.482c-1.116,0-2.021-.905-2.021-2.021v-10.039c0-1.116.905-2.021,2.021-2.021h.764c1.116,0,2.021.905,2.021,2.021v5.021c0,1.116.905,2.021,2.021,2.021h4.869c1.116,0,2.021-.905,2.021-2.021v-3.047c0-2.777,2.146-5.018,4.806-5.018Z" fill="#231f20"/>
    </g>
  </g>
</svg>

