<?xml version="1.0" encoding="UTF-8"?>
<svg xmlns="http://www.w3.org/2000/svg" width="15.45cm" height="9.022cm" viewBox="0 0 437.946 255.733">
  <defs>
    <style>
      .cls-1 {
        fill: #231f20;
      }
    </style>
  </defs>
  <g id="Logo_outline_path_and_ethernet">
    <g id="Pins_copy">
      <g>
        <path class="cls-1" d="M163.532,85.902h-6.745c-1.175,0-2.128.953-2.128,2.128v59.467c0,1.702-1.381,3.082-3.083,3.082h-8.978c-7.777,0-14.082,6.305-14.082,14.082v71.919c0,1.702-1.38,3.082-3.082,3.082h-10.095c-1.521,0-2.816-1.138-3.013-2.646l-9.683-74.238c-.979-7.501-7.838-13.017-15.549-12.13-7.157.823-12.411,7.16-12.411,14.364v71.568c0,1.702-1.38,3.082-3.082,3.082h-10.1c-1.521,0-2.817-1.138-3.014-2.646l-9.672-74.177c-.915-7.014-6.89-12.261-13.963-12.261h-9.006c-1.189,0-1.935-.641-2.273-1.022-.338-.382-.885-1.198-.743-2.379l9.57-79.641c.184-1.526,1.481-2.677,3.018-2.677h9.251c.812,0,1.575.316,2.148.89l31.638,31.638c5.475,5.474,14.381,5.474,19.854,0l17.137-17.138c2.177-2.177,3.66-5.01,3.94-8.076.35-3.834-.974-7.5-3.638-10.191l2.964-2.964c.481-.481.555-1.234.178-1.8l-.374-.561c-.499-.749-1.559-.854-2.196-.218l-2.845,2.845c-.557.557-1.461.557-2.018,0-.557-.557-.557-1.46,0-2.018l3.653-3.653c.481-.481.555-1.234.178-1.8l-.377-.565c-.499-.749-1.559-.854-2.196-.218l-3.748,3.748c-.557.557-1.461.557-2.018,0-.557-.557-.557-1.46,0-2.018l4.556-4.556c.481-.481.555-1.234.178-1.8l-.377-.565c-.499-.749-1.559-.854-2.196-.218l-4.65,4.65c-.557.557-1.461.557-2.018,0h0c-.557-.557-.557-1.461,0-2.018l5.458-5.458c.481-.481.555-1.234.178-1.8l-.377-.565c-.499-.749-1.559-.854-2.196-.218l-5.552,5.552c-.557.557-1.461.557-2.018,0h0c-.557-.557-.557-1.461,0-2.018l6.36-6.36c.481-.481.555-1.234.178-1.8l-5.083-8.278c-.086-.129-.192-.242-.314-.337l-1.744-1.351c-.568-.44-1.374-.389-1.882.119l-7.708,7.708c-.557.557-.557,1.46,0,2.018l4.098,4.099c.557.557.557,1.46,0,2.018l-4.086,4.086c-.557.557-1.46.557-2.018,0l-4.099-4.099c-.557-.557-1.46-.557-2.018,0l-7.708,7.708c-.508.508-.559,1.314-.119,1.882l1.351,1.744c.095.122.208.228.337.314l8.278,5.083c.566.377,1.319.302,1.8-.178l6.36-6.36c.557-.557,1.461-.557,2.018,0s.557,1.461,0,2.018l-5.552,5.552c-.637.637-.532,1.697.218,2.196l.565.377c.566.377,1.319.302,1.8-.178l5.458-5.458c.557-.557,1.461-.557,2.018,0s.557,1.461,0,2.018l-4.65,4.65c-.637.637-.532,1.697.218,2.196l.565.377c.566.377,1.319.302,1.8-.178l4.556-4.556c.557-.557,1.461-.557,2.018,0s.557,1.461,0,2.018l-3.748,3.748c-.637.637-.532,1.697.218,2.196l.565.377c.566.377,1.319.302,1.8-.178l3.653-3.653c.557-.557,1.461-.557,2.018,0s.557,1.461,0,2.018l-2.845,2.845c-.637.637-.532,1.697.218,2.196l.561.374c.566.377,1.319.302,1.8-.178l2.774-2.774c.642.694.629,1.78-.045,2.455l-17.392,17.392c-1.186,1.185-3.114,1.185-4.298,0l-31.638-31.638c-2.651-2.652-6.177-4.112-9.927-4.112h-9.251c-7.099,0-13.091,5.315-13.939,12.364l-9.57,79.641c-.718,5.961,2.445,11.978,8.409,14.593,1.811.794,3.793,1.121,5.77,1.121h8.803c1.521,0,2.817,1.138,3.014,2.645l9.672,74.177c.915,7.014,6.89,12.261,13.963,12.261h10.063c7.777,0,14.082-6.305,14.082-14.082v-71.837c0-1.418.901-2.748,2.277-3.093,1.828-.458,3.546.795,3.775,2.55l9.683,74.238c.909,6.969,6.894,12.224,13.921,12.224h10.095c7.777,0,14.082-6.305,14.082-14.082v-71.919c0-1.702,1.38-3.082,3.082-3.082h8.978c7.777,0,14.082-6.305,14.082-14.082v-59.467c0-1.175-.952-2.128-2.127-2.128Z"/>
        <path class="cls-1" d="M82.892,28.927c.203-.348.146-.79-.139-1.075l-8.808-8.808c-.347-.347-.909-.347-1.255,0l-7.469,7.469c-.347.347-.347.909,0,1.255l8.808,8.808c.285.285.727.342,1.075.139l2.07-1.209c.348-.203.79-.146,1.075.139l7.838,7.838c.347.347.909.347,1.255,0l2.318-2.318c.347-.347.347-.909,0-1.255l-7.838-7.838c-.285-.285-.342-.727-.139-1.075l1.208-2.07Z"/>
        <path class="cls-1" d="M71.033,46.329c.347.347.909.347,1.255,0l6.404-6.404c.347-.347.347-.909,0-1.255l-.759-.759c-.288-.288-.734-.343-1.083-.134l-1.982,1.185c-.349.209-.796.154-1.083-.134l-9.845-9.845c-.347-.347-.909-.347-1.255,0l-1.377,1.377c-.347.347-.909.347-1.255,0l-6.052-6.052c-.347-.347-.909-.347-1.255,0l-1.239,1.239c-.347.347-.347.909,0,1.255l19.526,19.526Z"/>
        <path class="cls-1" d="M76.536,13.877c.347.347.347.909,0,1.255l-1.377,1.377c-.347.347-.347.909,0,1.255l9.845,9.845c.288.288.343.734.134,1.083l-1.185,1.982c-.209.349-.154.796.134,1.083l.759.759c.347.347.909.347,1.255,0l6.404-6.404c.347-.347.347-.909,0-1.255l-19.526-19.526c-.347-.347-.909-.347-1.255,0l-1.239,1.239c-.347.347-.347.909,0,1.255l6.052,6.052Z"/>
        <rect class="cls-1" x="69.691" y="7.805" width="2.853" height="9.024" rx="1.144" ry="1.144" transform="translate(12.121 53.895) rotate(-45)"/>
        <rect class="cls-1" x="66.53" y="10.966" width="2.853" height="9.024" rx="1.144" ry="1.144" transform="translate(8.959 52.586) rotate(-45)"/>
        <rect class="cls-1" x="63.368" y="14.128" width="2.853" height="9.024" rx="1.144" ry="1.144" transform="translate(5.798 51.276) rotate(-45)"/>
        <rect class="cls-1" x="60.207" y="17.289" width="2.853" height="9.024" rx="1.144" ry="1.144" transform="translate(2.639 49.971) rotate(-45.004)"/>
        <rect class="cls-1" x="57.046" y="20.45" width="2.853" height="9.024" rx="1.144" ry="1.144" transform="translate(-.527 48.653) rotate(-44.996)"/>
      </g>
    </g>
  </g>
  <g id="Text">
    <g id="Lanit_text">
      <path class="cls-1" d="M239.623,151.764h5.829c1.218,0,2.175.957,2.175,2.175v46.461c0,1.218.957,2.175,2.176,2.175h18.445c1.218,0,2.175.957,2.175,2.176v5.829c0,1.218-.957,2.175-2.175,2.175h-28.625c-1.219,0-2.176-.957-2.176-2.175v-56.641c0-1.218.957-2.175,2.176-2.175Z"/>
      <path class="cls-1" d="M299.305,151.764h2.784c1.305,0,2.436.87,2.871,2.001l20.969,56.988c0,.087.087.261.087.522,0,.783-.696,1.479-1.566,1.479h-6.438c-1.392,0-2.523-.87-2.958-2.001l-2.697-7.396c-.436-1.131-1.566-2.001-2.958-2.001h-17.488c-1.305,0-2.437.87-2.871,2.001l-2.697,7.396c-.436,1.131-1.566,2.001-2.958,2.001h-6.525c-.783,0-1.479-.695-1.479-1.479,0-.262,0-.436.087-.522l20.882-56.988c.435-1.131,1.652-2.001,2.958-2.001ZM300.697,173.08c-.348,0-.608.261-.782.522l-5.656,15.574c-.087.087-.087.261-.087.522,0,.783.696,1.479,1.479,1.479h10.093c.783,0,1.479-.696,1.479-1.479,0-.261,0-.435-.087-.522l-5.742-15.574c-.087-.261-.348-.522-.696-.522Z"/>
      <path class="cls-1" d="M333.06,151.764h8.439c1.392,0,2.523.783,2.958,2.001l13.485,33.671c.088.174.262.261.436.261.261,0,.435-.174.435-.435v-33.323c0-1.218.957-2.175,2.176-2.175h5.829c1.218,0,2.175.957,2.175,2.175v56.641c0,1.218-.957,2.175-2.175,2.175h-7.482c-1.393,0-2.61-.783-3.045-2.001l-14.443-36.107c-.087-.174-.174-.261-.348-.261-.262,0-.436.174-.436.435v35.759c0,1.218-.957,2.175-2.175,2.175h-5.829c-1.219,0-2.176-.957-2.176-2.175v-56.641c0-1.218.957-2.175,2.176-2.175Z"/>
      <path class="cls-1" d="M377.689,151.764h5.829c1.218,0,2.175.957,2.175,2.175v56.641c0,1.218-.957,2.175-2.175,2.175h-5.829c-1.219,0-2.176-.957-2.176-2.175v-56.641c0-1.218.957-2.175,2.176-2.175Z"/>
      <path class="cls-1" d="M392.217,151.764h35.411c1.218,0,2.175.957,2.175,2.175v5.83c0,1.218-.957,2.175-2.175,2.175h-10.44c-1.219,0-2.176.957-2.176,2.175v46.461c0,1.218-.957,2.175-2.175,2.175h-5.829c-1.219,0-2.176-.957-2.176-2.175v-46.461c0-1.218-.957-2.175-2.175-2.175h-10.44c-1.219,0-2.176-.958-2.176-2.175v-5.83c0-1.218.957-2.175,2.176-2.175Z"/>
    </g>
    <g id="Haalari_text">
      <path class="cls-1" d="M154.713,123.663c0-1.218-.957-2.175-2.175-2.175h-13.398c-1.219,0-2.176.957-2.176,2.175v21.055c0,1.218-.957,2.175-2.175,2.175h-5.829c-1.219,0-2.176-.957-2.176-2.175v-56.641c0-1.218.957-2.175,2.176-2.175h5.829c1.218,0,2.175.957,2.175,2.175v21.056c0,1.218.957,2.175,2.176,2.175h13.398c1.218,0,2.175-.957,2.175-2.175l2.999-1.756v18.795l-2.999-2.51Z"/>
      <path class="cls-1" d="M193.777,85.902h2.784c1.305,0,2.437.87,2.871,2.001l20.969,56.988c0,.087.087.261.087.522,0,.783-.696,1.479-1.566,1.479h-6.438c-1.392,0-2.523-.87-2.958-2.001l-2.697-7.396c-.436-1.131-1.566-2.001-2.958-2.001h-17.488c-1.306,0-2.437.87-2.871,2.001l-2.697,7.396c-.436,1.131-1.566,2.001-2.958,2.001h-6.525c-.783,0-1.479-.695-1.479-1.479,0-.262,0-.436.087-.522l20.882-56.988c.435-1.131,1.652-2.001,2.958-2.001ZM195.169,107.218c-.348,0-.608.261-.782.522l-5.656,15.574c-.087.087-.087.261-.087.522,0,.783.696,1.479,1.479,1.479h10.093c.783,0,1.479-.696,1.479-1.479,0-.261,0-.435-.087-.522l-5.742-15.574c-.087-.261-.348-.522-.696-.522Z"/>
      <path class="cls-1" d="M249.978,85.902h2.784c1.305,0,2.437.87,2.871,2.001l20.969,56.988c0,.087.087.261.087.522,0,.783-.696,1.479-1.566,1.479h-6.438c-1.392,0-2.523-.87-2.958-2.001l-2.697-7.396c-.436-1.131-1.566-2.001-2.958-2.001h-17.488c-1.306,0-2.437.87-2.871,2.001l-2.697,7.396c-.436,1.131-1.566,2.001-2.958,2.001h-6.525c-.783,0-1.479-.695-1.479-1.479,0-.262,0-.436.087-.522l20.882-56.988c.435-1.131,1.652-2.001,2.958-2.001ZM251.37,107.218c-.348,0-.608.261-.782.522l-5.656,15.574c-.087.087-.087.261-.087.522,0,.783.696,1.479,1.479,1.479h10.093c.783,0,1.479-.696,1.479-1.479,0-.261,0-.435-.087-.522l-5.742-15.574c-.087-.261-.348-.522-.696-.522Z"/>
      <path class="cls-1" d="M283.733,85.902h5.829c1.218,0,2.175.957,2.175,2.175v46.461c0,1.218.957,2.175,2.176,2.175h18.445c1.218,0,2.175.957,2.175,2.176v5.829c0,1.218-.957,2.175-2.175,2.175h-28.625c-1.219,0-2.176-.957-2.176-2.175v-56.641c0-1.218.957-2.175,2.176-2.175Z"/>
      <path class="cls-1" d="M343.416,85.902h2.784c1.305,0,2.437.87,2.871,2.001l20.969,56.988c0,.087.087.261.087.522,0,.783-.696,1.479-1.566,1.479h-6.438c-1.392,0-2.523-.87-2.958-2.001l-2.697-7.396c-.436-1.131-1.566-2.001-2.958-2.001h-17.488c-1.306,0-2.437.87-2.871,2.001l-2.697,7.396c-.436,1.131-1.566,2.001-2.958,2.001h-6.525c-.783,0-1.479-.695-1.479-1.479,0-.262,0-.436.087-.522l20.882-56.988c.435-1.131,1.652-2.001,2.958-2.001ZM344.807,107.218c-.348,0-.608.261-.782.522l-5.656,15.574c-.087.087-.087.261-.087.522,0,.783.696,1.479,1.479,1.479h10.093c.783,0,1.479-.696,1.479-1.479,0-.261,0-.435-.087-.522l-5.742-15.574c-.087-.261-.348-.522-.696-.522Z"/>
      <path class="cls-1" d="M377.17,85.902h20.011c8.701,0,15.922,7.134,15.922,15.835v6.264c0,6.352-3.828,11.833-9.31,14.356l10.615,22.534c.087.174.087.436.087.609,0,.783-.609,1.392-1.393,1.392h-6.873c-1.392,0-2.61-.87-3.132-2.001l-9.919-20.968h-5.829c-1.219,0-2.176.957-2.176,2.175v18.619c0,1.218-.957,2.175-2.175,2.175h-5.829c-1.219,0-2.176-.957-2.176-2.175v-56.641c0-1.218.957-2.175,2.176-2.175ZM385.173,98.257v13.312c0,1.218.957,2.175,2.176,2.175h9.744c3.22,0,5.829-2.523,5.829-5.743v-6.264c0-3.219-2.522-5.655-5.742-5.655h-9.831c-1.219,0-2.176.957-2.176,2.175Z"/>
      <path class="cls-1" d="M421.799,85.902h5.829c1.218,0,2.175.957,2.175,2.175v56.641c0,1.218-.957,2.175-2.175,2.175h-5.829c-1.219,0-2.176-.957-2.176-2.175v-56.641c0-1.218.957-2.175,2.176-2.175Z"/>
    </g>
  </g>
  <g id="Year_text">
    <g id="Outlines">
      <path class="cls-1" d="M217.189,199.025c1.923,0,3.565.93,4.775,2.046,1.984,1.892,3.721,4.775,5.922,6.977.093.062.217.093.31.093.218,0,.342-.154.342-.465v-7.906c0-.435.341-.775.774-.775h2.078c.434,0,.774.341.774.775v12.061c0,.435-.341.775-.774.775h-1.023c-2.016,0-3.752-.868-5.054-1.984-2.14-1.86-3.628-4.713-5.799-6.883-.806-.744-1.457-1.086-2.325-1.086-1.768,0-3.132,1.396-3.132,3.163,0,1.488.992,2.729,2.356,3.069.403.094.775.435.775.868v2.077c0,.403-.279.744-.682.744-3.411,0-6.077-3.534-6.077-6.883,0-3.597,3.038-6.666,6.759-6.666Z"/>
      <path class="cls-1" d="M217.189,183.866h8.217c3.721,0,6.759,3.069,6.759,6.79s-3.038,6.79-6.759,6.79h-8.217c-3.721,0-6.759-3.069-6.759-6.79s3.038-6.79,6.759-6.79ZM217.189,193.818h8.217c1.768,0,3.132-1.395,3.132-3.162s-1.364-3.162-3.132-3.162h-8.217c-1.768,0-3.132,1.395-3.132,3.162s1.364,3.162,3.132,3.162Z"/>
      <path class="cls-1" d="M217.189,168.77c1.923,0,3.565.93,4.775,2.046,1.984,1.892,3.721,4.775,5.922,6.977.093.062.217.093.31.093.218,0,.342-.154.342-.465v-7.906c0-.435.341-.775.774-.775h2.078c.434,0,.774.341.774.775v12.061c0,.435-.341.775-.774.775h-1.023c-2.016,0-3.752-.868-5.054-1.984-2.14-1.86-3.628-4.713-5.799-6.883-.806-.744-1.457-1.086-2.325-1.086-1.768,0-3.132,1.396-3.132,3.163,0,1.488.992,2.729,2.356,3.069.403.094.775.435.775.868v2.077c0,.403-.279.744-.682.744-3.411,0-6.077-3.534-6.077-6.883,0-3.597,3.038-6.666,6.759-6.666Z"/>
      <path class="cls-1" d="M210.43,157.672v-2.573c0-.435.341-.775.774-.775h12.093c.434,0,.775-.341.775-.775v-.217c0-.435.341-.775.774-.775h2.078c.434,0,.774.341.774.775v.217c0,.435.342.775.775.775h2.915c.434,0,.774.341.774.775v2.077c0,.434-.341.775-.774.775h-2.915c-.434,0-.775.341-.775.775v7.689c0,.434-.341.774-.774.774h-1.892c-.496,0-.992-.124-1.427-.403l-12.526-7.906c-.402-.248-.65-.713-.65-1.209ZM217.065,158.354l6.356,4.031c.279.186.651-.031.651-.372v-3.286c0-.435-.342-.775-.775-.775h-6.108c-.217,0-.31.279-.124.402Z"/>
    </g>
  </g>
</svg>