<?xml version="1.0" encoding="UTF-8"?>
<svg id="a" data-name="Logo for Froteskia font" xmlns="http://www.w3.org/2000/svg" width="5.663cm" height="9.04cm" viewBox="0 0 160.528 256.25">
  <g id="b" data-name="Pins copy 2">
    <g>
      <path d="M155.063,75.814h-6.745c-1.175,0-2.128.953-2.128,2.128v69.814c0,1.702-1.381,3.082-3.083,3.082h-8.978c-7.777,0-14.082,6.305-14.082,14.082v71.919c0,1.702-1.38,3.082-3.082,3.082h-10.095c-1.521,0-2.816-1.138-3.013-2.646l-9.683-74.238c-.979-7.501-7.838-13.017-15.549-12.13-7.157.823-12.411,7.16-12.411,14.364v71.568c0,1.702-1.38,3.082-3.082,3.082h-10.1c-1.521,0-2.817-1.138-3.014-2.646l-9.672-74.177c-.915-7.014-6.89-12.261-13.963-12.261h-9.006c-1.189,0-1.935-.641-2.273-1.022-.338-.382-.885-1.198-.743-2.379l9.57-79.641c.184-1.526,1.481-2.677,3.018-2.677h9.251c.812,0,1.575.316,2.148.89l31.638,31.638c5.475,5.474,14.381,5.474,19.854,0l17.137-17.138c2.177-2.177,3.66-5.01,3.94-8.076.35-3.834-.974-7.5-3.638-10.191l2.964-2.964c.481-.481.555-1.234.178-1.8l-.374-.561c-.499-.749-1.559-.854-2.196-.218l-2.845,2.845c-.557.557-1.461.557-2.018,0-.557-.557-.557-1.46,0-2.018l3.653-3.653c.481-.481.555-1.234.178-1.8l-.377-.565c-.499-.749-1.559-.854-2.196-.218l-3.748,3.748c-.557.557-1.461.557-2.018,0-.557-.557-.557-1.46,0-2.018l4.556-4.556c.481-.481.555-1.234.178-1.8l-.377-.565c-.499-.749-1.559-.854-2.196-.218l-4.65,4.65c-.557.557-1.461.557-2.018,0h0c-.557-.557-.557-1.461,0-2.018l5.458-5.458c.481-.481.555-1.234.178-1.8l-.377-.565c-.499-.749-1.559-.854-2.196-.218l-5.552,5.552c-.557.557-1.461.557-2.018,0h0c-.557-.557-.557-1.461,0-2.018l6.36-6.36c.481-.481.555-1.234.178-1.8l-5.083-8.278c-.086-.129-.192-.242-.314-.337l-1.744-1.351c-.568-.44-1.374-.389-1.882.119l-7.708,7.708c-.557.557-.557,1.46,0,2.018l4.098,4.099c.557.557.557,1.46,0,2.018l-4.086,4.086c-.557.557-1.46.557-2.018,0l-4.099-4.099c-.557-.557-1.46-.557-2.018,0l-7.708,7.708c-.508.508-.559,1.314-.119,1.882l1.351,1.744c.095.122.208.228.337.314l8.278,5.083c.566.377,1.319.302,1.8-.178l6.36-6.36c.557-.557,1.461-.557,2.018,0s.557,1.461,0,2.018l-5.552,5.552c-.637.637-.532,1.697.218,2.196l.565.377c.566.377,1.319.302,1.8-.178l5.458-5.458c.557-.557,1.461-.557,2.018,0s.557,1.461,0,2.018l-4.65,4.65c-.637.637-.532,1.697.218,2.196l.565.377c.566.377,1.319.302,1.8-.178l4.556-4.556c.557-.557,1.461-.557,2.018,0s.557,1.461,0,2.018l-3.748,3.748c-.637.637-.532,1.697.218,2.196l.565.377c.566.377,1.319.302,1.8-.178l3.653-3.653c.557-.557,1.461-.557,2.018,0s.557,1.461,0,2.018l-2.845,2.845c-.637.637-.532,1.697.218,2.196l.561.374c.566.377,1.319.302,1.8-.178l2.774-2.774c.642.694.629,1.78-.045,2.455l-17.392,17.392c-1.186,1.185-3.114,1.185-4.298,0l-31.638-31.638c-2.651-2.652-6.177-4.112-9.927-4.112h-9.251c-7.099,0-13.091,5.315-13.939,12.364L3.44,146.124c-.718,5.961,2.445,11.978,8.409,14.593,1.811.794,3.793,1.121,5.77,1.121h8.803c1.521,0,2.817,1.138,3.014,2.645l9.672,74.177c.915,7.014,6.89,12.261,13.963,12.261h10.063c7.777,0,14.082-6.305,14.082-14.082v-71.837c0-1.418.901-2.748,2.277-3.093,1.828-.458,3.546.795,3.775,2.55l9.683,74.238c.909,6.969,6.894,12.224,13.921,12.224h10.095c7.777,0,14.082-6.305,14.082-14.082v-71.919c0-1.702,1.38-3.082,3.082-3.082h8.978c7.777,0,14.082-6.305,14.082-14.082v-69.814c0-1.175-.952-2.128-2.127-2.128Z" fill="#231f20"/>
      <path d="M74.422,29.186c.203-.348.146-.79-.139-1.075l-8.808-8.808c-.347-.347-.909-.347-1.255,0l-7.469,7.469c-.347.347-.347.909,0,1.255l8.808,8.808c.285.285.727.342,1.075.139l2.07-1.209c.348-.203.79-.146,1.075.139l7.838,7.838c.347.347.909.347,1.255,0l2.318-2.318c.347-.347.347-.909,0-1.255l-7.838-7.838c-.285-.285-.342-.727-.139-1.075l1.208-2.07Z" fill="#231f20"/>
      <path d="M62.564,46.587c.347.347.909.347,1.255,0l6.404-6.404c.347-.347.347-.909,0-1.255l-.759-.759c-.288-.288-.734-.343-1.083-.134l-1.982,1.185c-.349.209-.796.154-1.083-.134l-9.845-9.845c-.347-.347-.909-.347-1.255,0l-1.377,1.377c-.347.347-.909.347-1.255,0l-6.052-6.052c-.347-.347-.909-.347-1.255,0l-1.239,1.239c-.347.347-.347.909,0,1.255l19.526,19.526Z" fill="#231f20"/>
      <path d="M68.066,14.135c.347.347.347.909,0,1.255l-1.377,1.377c-.347.347-.347.909,0,1.255l9.845,9.845c.288.288.343.734.134,1.083l-1.185,1.982c-.209.349-.154.796.134,1.083l.759.759c.347.347.909.347,1.255,0l6.404-6.404c.347-.347.347-.909,0-1.255l-19.526-19.526c-.347-.347-.909-.347-1.255,0l-1.239,1.239c-.347.347-.347.909,0,1.255l6.052,6.052Z" fill="#231f20"/>
      <rect x="61.222" y="8.063" width="2.853" height="9.024" rx="1.144" ry="1.144" transform="translate(9.457 47.982) rotate(-45)" fill="#231f20"/>
      <rect x="58.06" y="11.225" width="2.853" height="9.024" rx="1.144" ry="1.144" transform="translate(6.296 46.673) rotate(-45)" fill="#231f20"/>
      <rect x="54.899" y="14.386" width="2.853" height="9.024" rx="1.144" ry="1.144" transform="translate(3.135 45.363) rotate(-45)" fill="#231f20"/>
      <rect x="51.738" y="17.547" width="2.853" height="9.024" rx="1.144" ry="1.144" transform="translate(-.025 44.058) rotate(-45.004)" fill="#231f20"/>
      <rect x="48.576" y="20.709" width="2.853" height="9.024" rx="1.144" ry="1.144" transform="translate(-3.19 42.74) rotate(-44.996)" fill="#231f20"/>
    </g>
  </g>
</svg>