<?xml version="1.0" encoding="UTF-8"?><svg xmlns="http://www.w3.org/2000/svg" width="2589.17mm" height="2589.17mm" viewBox="0 0 7339.378 7339.38"><defs><style>.c{fill:#231f20;}.d{fill:#fff;}</style></defs><g id="a"><path class="c" d="M3669.69,7339.38c-248.943,0-497.749-25.084-739.505-74.555-235.644-48.22-467.43-120.171-688.922-213.854-217.458-91.977-427.191-205.815-623.374-338.354-194.303-131.27-377.016-282.021-543.061-448.066-166.045-166.045-316.796-348.758-448.065-543.061-132.539-196.183-246.378-405.916-338.354-623.373-93.682-221.492-165.633-453.279-213.854-688.923C25.084,4167.438,0,3918.633,0,3669.69s25.084-497.749,74.554-739.504c48.22-235.645,120.171-467.431,213.854-688.923,91.977-217.458,205.815-427.19,338.354-623.374,131.269-194.303,282.02-377.016,448.065-543.061s348.758-316.796,543.061-448.065c196.183-132.539,405.916-246.377,623.374-338.354,221.492-93.682,453.279-165.633,688.922-213.854C3171.941,25.084,3420.747,0,3669.69,0s497.749,25.084,739.505,74.554c235.644,48.22,467.431,120.171,688.923,213.854,217.457,91.978,427.19,205.815,623.373,338.354,194.304,131.269,377.016,282.02,543.062,448.065s316.797,348.758,448.064,543.061c132.539,196.184,246.378,405.917,338.354,623.374,93.684,221.492,165.635,453.279,213.854,688.923,49.471,241.755,74.554,490.561,74.554,739.504s-25.083,497.749-74.554,739.505c-48.219,235.644-120.17,467.431-213.854,688.923-91.977,217.457-205.815,427.19-338.354,623.373-131.268,194.303-282.019,377.016-448.064,543.061-166.046,166.046-348.758,316.797-543.062,448.066-196.183,132.538-405.916,246.377-623.373,338.354-221.492,93.683-453.279,165.634-688.923,213.854-241.756,49.471-490.562,74.555-739.505,74.555ZM3669.69,123.431c-240.65,0-481.13,24.241-714.76,72.049-227.663,46.585-451.597,116.099-665.586,206.609-210.117,88.871-412.78,198.875-602.359,326.951-187.793,126.871-364.389,272.576-524.879,433.066-160.491,160.491-306.195,337.086-433.066,524.879-128.077,189.58-238.08,392.242-326.951,602.36-90.51,213.988-160.023,437.922-206.609,665.584-47.808,233.63-72.049,474.111-72.049,714.76s24.241,481.13,72.049,714.76c46.585,227.662,116.099,451.597,206.609,665.585,88.871,210.117,198.875,412.78,326.951,602.359,126.871,187.793,272.576,364.389,433.066,524.879,160.49,160.491,337.086,306.195,524.879,433.066,189.579,128.077,392.242,238.08,602.359,326.951,213.989,90.51,437.923,160.023,665.586,206.609,233.63,47.808,474.11,72.049,714.76,72.049s481.13-24.241,714.76-72.049c227.662-46.586,451.597-116.1,665.585-206.609,210.117-88.871,412.779-198.874,602.358-326.951,187.795-126.871,364.389-272.575,524.88-433.066,160.491-160.49,306.196-337.086,433.067-524.879,128.076-189.579,238.078-392.242,326.951-602.359,90.509-213.988,160.021-437.923,206.608-665.585,47.808-233.63,72.048-474.11,72.048-714.76s-24.24-481.13-72.048-714.76c-46.587-227.663-116.1-451.597-206.608-665.584-88.873-210.118-198.875-412.78-326.951-602.36-126.871-187.793-272.576-364.388-433.067-524.879-160.491-160.491-337.085-306.195-524.88-433.066-189.579-128.077-392.241-238.08-602.358-326.951-213.988-90.51-437.923-160.023-665.585-206.609-233.63-47.808-474.111-72.049-714.76-72.049Z"/><path class="c" d="M6935.361,2720.38l-553.283-307.969-116.811,64.186c-451.913-981.523-1444.163-1662.902-2595.578-1662.902-886.163,0-1678.048,403.603-2201.892,1037.007l1989.211-795.843,1027.563,594.492,295.357-139.45-12.657,211.484-85.476,42.07,457.038,264.417,300.404-150.983-28.228,233.778-66.908,35.963,501.934,290.391,304.305-164.318-44.321,288.961-21.546,13.304,230.223,133.194,308.886,199.966,311.777-187.748Z"/><path class="c" d="M1156.451,2937.651l-64.26-499.573c-127.069,265.452-214.349,553.583-254.094,856.68l479.231-214.944-160.877-142.163Z"/><path class="c" d="M3695.8,1527.218l-429.159-257.306-1797.341,714.949,178.5,134.824,827.935-339.909,47.473,32.282-199.388,83.553,75.957,54.12-628.547,262.053,186.095,144.319,675.071-287.688-80.705-57.917,359.848-151.915,81.654,53.17,602.911-255.407-80.705-53.17,180.399-75.957ZM2839.856,1771.706l-124.38-86.401,524.106-217.428,128.178,83.553-527.904,220.276Z"/><polygon class="c" points="3915.602 1659.669 2307.205 2359.426 2387.91 2420.192 2171.431 2516.088 2543.622 2799.978 2762 2695.537 2851.249 2763.899 4475.787 1999.578 4264.056 1871.4 2686.042 2591.096 2547.42 2487.604 4119.737 1784.049 3915.602 1659.669"/><polygon class="c" points="4629.601 2091.676 4855.574 2227.45 3263.318 3019.305 3419.98 3132.292 5016.034 2323.346 5251.502 2467.665 3611.772 3327.882 3509.23 3247.177 3288.004 3367.76 2874.986 3051.587 3091.465 2941.449 3003.164 2873.087 4629.601 2091.676"/><polygon class="c" points="5421.456 2567.359 6115.516 2987.023 5899.987 3116.151 5674.014 2975.63 4018.144 3924.147 3763.687 3727.607 5415.759 2816.119 5207.826 2687.941 5421.456 2567.359"/></g><g id="b"><path class="d" d="M6475.374,3901.315l-.009.045-3.628,2.336-.303.198-.002-.002-2441.894,1572.632-322.296-284.805-.048,4.238-472.834,292.436,13.292,491.824-467.622,301.636v-.002s0,0,0,0l-74.998-1073.075,1008.704-592.619-529.432-445.176-212.947,118.237-174.931,97.638h0l-596.511,332.945,69.786,746.756-171.891,102.324-122.918-1066.508,594.304-316.314h0l387.661-206.33-471.618-396.573-170.97,86.535-790.374,403.523,113.423,798.995-136.495,73.27v-.003h0l-166.821-1060.257,579.511-278.571h0s381.547-183.41,381.547-183.41l-427.088-359.127-152.76,73.403-.021-.198-217.4,101.968h0l-565.414,265.199,142.401,808.728-122.491,63.216v-.002s-61.046-324.545-61.046-324.545l-77.387-411.427h0s-58.078-308.771-58.078-308.771l932.829-418.391-381.949-321.168-917.85,393.478,212.823,1035.469,286.141,297.643c293.876,1264.644,1427.847,2206.975,2781.919,2206.975,1508.951,0,2744.576-1170.223,2848.863-2652.643l-43.18,28.271Z"/><path class="c" d="M6475.374,3901.315l-.009.045-3.628,2.336-.303.198-.002-.002-2441.894,1572.632-322.296-284.805-.048,4.238-472.834,292.436,13.292,491.824-467.622,301.636v-.002s0,0,0,0l-74.998-1073.075,1008.704-592.619-529.432-445.176-212.947,118.237-174.931,97.638h0l-596.511,332.945,69.786,746.756-171.891,102.324-122.918-1066.508,594.304-316.314h0l387.661-206.33-471.618-396.573-170.97,86.535-790.374,403.523,113.423,798.995-136.495,73.27v-.003h0l-166.821-1060.257,579.511-278.571h0s381.547-183.41,381.547-183.41l-427.088-359.127-152.76,73.403-.021-.198-217.4,101.968h0l-565.414,265.199,142.401,808.728-122.491,63.216v-.002s-61.046-324.545-61.046-324.545l-77.387-411.427h0s-58.078-308.771-58.078-308.771l932.829-418.391-381.949-321.168-917.85,393.478,212.823,1035.469,286.141,297.643c293.876,1264.644,1427.847,2206.975,2781.919,2206.975,1508.951,0,2744.576-1170.223,2848.863-2652.643l-43.18,28.271Z"/></g></svg>