<?xml version="1.0" encoding="UTF-8"?>
<svg xmlns="http://www.w3.org/2000/svg" width="8628" height="8628" viewBox="0 0 8628 8628">
  <defs>
    <style>
      .cls-1 {
        fill: #a9a9a9;
      }

      .cls-2 {
        fill: none;
        stroke: gray;
        stroke-miterlimit: 10;
        stroke-width: 130px;
      }

      .cls-3 {
        fill: #c4c4c4;
      }

      .cls-4 {
        fill: #3d3d3d;
      }

      .cls-5 {
        fill: #2e2e2e;
      }
    </style>
  </defs>
  <g id="Layer_2">
    <circle class="cls-2" cx="4314" cy="4314" r="3800"/>
  </g>
  <g id="Layer_5">
    <polygon class="cls-3" points="7761.37 3307.26 7524 4391 7246 4570 6952 3562 4700 1943 5044.75 1795.14 5483.33 2039.26 5470 2262 5694.98 2157.07 6177.73 2425.78 6148 2672 6396.32 2547.45 6926.68 2842.66 6880 3147 7178.64 2982.9 7761.37 3307.26"/>
    <polygon class="cls-1" points="5145 2199 5483.33 2039.26 5470 2262 5214 2388 5849 2591 6177.73 2425.78 6148 2672 5988 2758 6589 3025 6926.68 2842.66 6880 3147 6731 3239 7433 3505 7761.37 3307.26 7524 4391 7264.858 4560.667 6952 3562 5017 2325 5145 2199"/>
  </g>
  <g id="Layer_6">
    <g>
      <polygon class="cls-4" points="3996 2083 3861 1995 3309 2224 3440 2315 3996 2083"/>
      <path class="cls-4" d="M4090,1560l-2546.27,1018.71,3187.27,2574.29,2750.99-1630.58-3391.99-1962.42ZM2314.5,2778.5l662-276-80-57,210-88-50-34-872,358-188-142,1893-753,452,271-190,80,85,56-635,269-86-56-379,160,85,61-711,303-196-152ZM3358,3288l-230,110-392-299,228-101-85-64,1694-737,215,131-1656,741,146,109,1662-758,223,135-1711,805-94-72ZM4145,3869l-233,127-435-333,228-116-93-72,1713-823,238,143-1677,834,165,119,1681-852,248,152-1727,906-108-85ZM6425,3583l-1744,999-268-207,1740-960-219-135,225-127,731,442-227,136-238-148Z"/>
    </g>
  </g>
  <g id="Layer_6_copy">
    <g>
      <polygon class="cls-5" points="3996 2083 3861 1995 3309 2224 3440 2315 3996 2083"/>
      <path class="cls-5" d="M7481.99,3522.42l-3391.99-1962.42-2546.27,1018.71-.73.29,124,964,3026,2674,2576-1659,214-1035-1.01-.58ZM2314.5,2778.5l662-276-80-57,210-88-50-34-872,358-188-142,1893-753,452,271-190,80,85,56-635,269-86-56-379,160,85,61-711,303-196-152ZM3358,3288l-230,110-392-299,228-101-85-64,1694-737,215,131-1656,741,146,109,1662-758,223,135-1711,805-94-72ZM4145,3869l-233,127-435-333,228-116-93-72,1713-823,238,143-1677,834,165,119,1681-852,248,152-1727,906-108-85ZM6663,3731l-238-148-1744,999-268-207,1740-960-219-135,225-127,731,442-227,136Z"/>
    </g>
  </g>
  <g id="Layer_3">
    <polygon class="cls-1" points="4360.39 5310.845 3802.784 4841.97 3578.5 4966.5 3567.761 4644.347 3066.513 4222.861 2886.444 4314 2866.793 4054.923 2416.388 3676.19 2255.5 3753.5 2230.268 3519.688 1825.201 3179.078 858.5 3593.5 1082.654 4684.078 1445.614 5061.635 1581.5 4991.5 1625.385 5248.636 2022.388 5661.605 2173.5 5580.5 2212.824 5859.701 2652.959 6317.537 2839.5 6206.5 2874.957 6548.463 3373.727 7067.292 3869.5 6747.5 3855.5 6229.5 4353.5 5921.5 4360.39 5310.845"/>
    <polygon class="cls-3" points="1431 4140 1580.98 4991.77 1451.97 5058.35 1245 3958 2227.48 3517.34 2255.48 3753.29 1431 4140"/>
    <polygon class="cls-3" points="2054 4739 2173.46 5580.52 2029.7 5657.69 1854 4541 2866.21 4054.43 2886.44 4314 2054 4739"/>
    <polygon class="cls-3" points="2766 5420 2839.5 6206.5 2658.46 6314.27 2529 5191 3568 4638 3578.5 4966.5 2766 5420"/>
    <polygon class="cls-3" points="4353.5 5921.5 3855.5 6229.5 3869.5 6747.5 3376.99 7065.19 3298 5935 4360.39 5310.84 4353.5 5921.5"/>
  </g>
</svg>